<svg width="25" height="25" viewBox="0 0 25 25" fill="none" xmlns="http://www.w3.org/2000/svg">
<path fill-rule="evenodd" clip-rule="evenodd" d="M9.58117 0.469769C9.80394 0.217099 10.15 0.111311 10.4759 0.196212C12.4564 0.712031 15.4999 2.05214 18.0643 4.44189C20.6475 6.84941 22.7627 10.3445 22.7627 15.1113C22.7627 16.9977 22.3393 19.3062 20.8739 21.2201C19.3846 23.1655 16.9144 24.5783 13.0817 24.8148L13.0715 24.8155C7.96471 25.0717 4.37791 22.4185 2.93678 18.7624C1.50892 15.1399 2.22584 10.6326 5.44464 7.21234C5.61682 7.02938 5.85812 6.92743 6.10932 6.9315C6.36053 6.93559 6.59839 7.0453 6.76455 7.23375L9.02544 9.79796C9.85198 8.32275 10.2541 7.0368 10.3147 5.75021C10.3763 4.44161 10.0883 3.05827 9.42185 1.39175C9.2968 1.07898 9.35839 0.72244 9.58117 0.469769ZM9.49141 14.0491C9.49141 13.3095 10.091 12.7099 10.8307 12.7099C11.5704 12.7099 12.17 13.3095 12.17 14.0491C12.17 14.7888 11.5704 15.3884 10.8307 15.3884C10.091 15.3884 9.49141 14.7888 9.49141 14.0491ZM16.6149 14.2749C16.9636 13.9263 16.9636 13.3609 16.6149 13.0122C16.2663 12.6636 15.7009 12.6636 15.3522 13.0122L9.48916 18.8753C9.14046 19.2241 9.14046 19.7894 9.48916 20.138C9.83784 20.4867 10.4032 20.4867 10.7518 20.138L16.6149 14.2749ZM14.2395 19.1012C14.2395 18.3614 14.8391 17.7618 15.5788 17.7618C16.3184 17.7618 16.9181 18.3614 16.9181 19.1012C16.9181 19.8408 16.3184 20.4405 15.5788 20.4405C14.8391 20.4405 14.2395 19.8408 14.2395 19.1012Z" fill="#EEEAD0"/>
</svg>
