<svg width="15" height="15" viewBox="0 0 15 15" fill="none" xmlns="http://www.w3.org/2000/svg">
<path d="M4.43182 0C1.98835 0 0 1.98835 0 4.43182V10.5682C0 13.0117 1.98835 15 4.43182 15H10.5682C13.0117 15 15 13.0117 15 10.5682V4.43182C15 1.98835 13.0117 0 10.5682 0H4.43182ZM4.43182 0.681818H10.5682C12.6431 0.681818 14.3182 2.35688 14.3182 4.43182V10.5682C14.3182 12.6431 12.6431 14.3182 10.5682 14.3182H4.43182C2.35688 14.3182 0.681818 12.6431 0.681818 10.5682V4.43182C0.681818 2.35688 2.35688 0.681818 4.43182 0.681818ZM11.5909 2.72727C11.4101 2.72727 11.2367 2.79911 11.1088 2.92697C10.9809 3.05484 10.9091 3.22826 10.9091 3.40909C10.9091 3.58992 10.9809 3.76334 11.1088 3.89121C11.2367 4.01907 11.4101 4.09091 11.5909 4.09091C11.7717 4.09091 11.9452 4.01907 12.073 3.89121C12.2009 3.76334 12.2727 3.58992 12.2727 3.40909C12.2727 3.22826 12.2009 3.05484 12.073 2.92697C11.9452 2.79911 11.7717 2.72727 11.5909 2.72727ZM7.5 3.75C5.43297 3.75 3.75 5.43297 3.75 7.5C3.75 9.56703 5.43297 11.25 7.5 11.25C9.56703 11.25 11.25 9.56703 11.25 7.5C11.25 5.43297 9.56703 3.75 7.5 3.75ZM7.5 4.43182C9.19855 4.43182 10.5682 5.80145 10.5682 7.5C10.5682 9.19855 9.19855 10.5682 7.5 10.5682C5.80145 10.5682 4.43182 9.19855 4.43182 7.5C4.43182 5.80145 5.80145 4.43182 7.5 4.43182Z" fill="#EEEAD0"/>
</svg>
