<svg width="20" height="20" viewBox="0 0 20 20" fill="none" xmlns="http://www.w3.org/2000/svg">
<g clip-path="url(#clip0_4_5)">
<path fill-rule="evenodd" clip-rule="evenodd" d="M18.1432 1.6608L19.674 2.18131C19.7812 2.22449 19.871 2.30207 19.9292 2.40184C19.9874 2.50163 20.0107 2.61794 19.9956 2.73246L18.6177 6.97316C18.5274 7.22829 18.34 7.43741 18.0963 7.55497C17.8526 7.67254 17.5723 7.68903 17.3164 7.60084L13.4125 6.33016H13.1523L13.5503 8.24383C13.5656 8.33963 13.556 8.43773 13.5224 8.52874C13.4889 8.61976 13.4326 8.70064 13.3588 8.76364C13.2851 8.82664 13.1964 8.86964 13.1012 8.88853C13.0061 8.90741 12.9077 8.90156 12.8155 8.87151L11.009 8.28976C10.9205 8.26203 10.8404 8.21241 10.7762 8.14551C10.7119 8.07861 10.6656 7.99659 10.6415 7.90703L9.89137 5.33504L9.49333 5.19727L5.49758 3.91127C5.35523 3.87544 5.22207 3.8099 5.10684 3.71897C4.99161 3.62803 4.89691 3.51376 4.82896 3.38364C4.76101 3.25353 4.72134 3.11051 4.71257 2.96399C4.7038 2.81746 4.7261 2.67073 4.77804 2.53343C4.96647 2.00419 5.26954 1.52314 5.66557 1.1247C6.06161 0.726259 6.54081 0.420274 7.0689 0.228641C7.59698 0.0370087 8.1609 -0.0355356 8.7203 0.0161992C9.2797 0.0679339 9.82074 0.242669 10.3047 0.527901L16.4284 3.58979L17.546 1.85981C17.6102 1.76601 17.7033 1.69579 17.8112 1.65984C17.9189 1.62391 18.0356 1.62424 18.1432 1.6608ZM0.0149231 11.8864C0.0149231 8.97639 1.55248 6.42547 3.85953 5.00176C3.90518 5.04289 3.95224 5.08259 4.00061 5.12077C4.29467 5.35281 4.63171 5.52396 4.99207 5.6245L6.58937 6.13857C4.03923 6.80659 2.15778 9.12679 2.15778 11.8864C2.15778 12.5631 2.2709 13.2133 2.47924 13.8192H4.91551C5.16314 13.8192 5.40834 13.7704 5.63713 13.6757C5.86591 13.5809 6.07378 13.442 6.24888 13.2669C6.42398 13.0918 6.56288 12.8839 6.65764 12.6552C6.7524 12.4264 6.80118 12.1812 6.80118 11.9336V10.3752C6.79281 10.1223 6.83541 9.87041 6.92643 9.63439C7.01743 9.39837 7.155 9.18307 7.33094 9.00131C7.50688 8.81956 7.7176 8.67506 7.95054 8.57641C8.18347 8.47779 8.43388 8.42701 8.68684 8.42716C8.76807 8.42716 8.84877 8.42191 8.92847 8.41161C9.03346 8.77552 9.22538 9.10866 9.48797 9.38217C9.7581 9.66357 10.0943 9.87283 10.466 9.99093L12.2661 10.5706C12.648 10.6943 13.0552 10.7182 13.449 10.6401C13.844 10.5616 14.2124 10.3831 14.5186 10.1214C14.8249 9.85984 15.0589 9.52399 15.198 9.14604C15.2373 9.03937 15.2687 8.93036 15.2922 8.81987L15.625 8.92823C15.9854 9.84441 16.1834 10.8423 16.1834 11.8864C16.1834 16.3513 12.5639 19.9707 8.09916 19.9707C3.63436 19.9707 0.0149231 16.3513 0.0149231 11.8864ZM8.57887 17.8087C10.4848 17.6564 12.1371 16.6047 13.1112 15.0783L12.9691 14.9741C12.477 14.7197 11.9325 14.5836 11.3786 14.5764H9.27697C8.8464 14.6156 8.446 14.8143 8.15444 15.1336C7.86287 15.4527 7.70121 15.8694 7.70121 16.3019C7.70121 16.7341 7.86287 17.1509 8.15444 17.4701C8.27828 17.6057 8.42177 17.7196 8.57887 17.8087Z" fill="#EEEAD0"/>
</g>
<defs>
<clipPath id="clip0_4_5">
<rect width="20" height="20" fill="white"/>
</clipPath>
</defs>
</svg>
