<svg width="1240" height="1156" viewBox="0 0 1240 1156" fill="none" xmlns="http://www.w3.org/2000/svg">
<g style="mix-blend-mode:luminosity" opacity="0.1">
<g opacity="0.49">
<path d="M387.799 240.828C388.148 240.574 388.428 240.191 388.635 239.728C388.885 239.866 389.157 239.955 389.441 239.955C390.653 239.955 391.634 238.59 391.634 236.904C391.634 236.564 391.57 236.253 391.495 235.948L399.984 240.508L402.717 235.739C402.717 235.739 402.656 238.82 402.43 241.823L413.239 247.63L414.738 245.015C414.738 245.015 414.707 246.482 414.618 248.371L417.37 249.85L420.116 245.057C420.116 245.057 420.054 248.158 419.826 251.168L429.832 256.544C424.982 242.49 416.981 236.038 409.188 233.33H417.811V230.339C417.811 230.339 418.521 231.636 419.385 233.33H422.532V227.849C422.532 227.849 424.032 230.59 425.34 233.33H436.784C412.976 212.205 393.871 227.261 388.879 232.018C388.854 231.943 388.808 231.884 388.777 231.812L396.985 221.938L392.597 218.517C392.597 218.517 395.723 219.102 398.737 219.829L406.488 210.505L404.081 208.628C404.081 208.628 405.568 208.906 407.475 209.315L409.45 206.943L405.041 203.506C405.041 203.506 408.185 204.095 411.208 204.824L418.385 196.19C388.132 200.658 386.67 222.333 387.188 230.333C387.093 230.315 387.006 230.255 386.907 230.255C386.071 230.255 385.365 230.933 384.997 231.893C379.798 227.001 360.817 212.396 337.225 233.333H348.669C349.978 230.593 351.477 227.852 351.477 227.852V233.333H354.624C355.491 231.639 356.198 230.342 356.198 230.342V233.333H364.822C357.028 236.041 349.027 242.493 344.177 256.547L354.183 251.171C353.955 248.161 353.893 245.06 353.893 245.06L356.639 249.853L359.391 248.374C359.299 246.485 359.271 245.018 359.271 245.018L360.77 247.633L370.425 242.448C364.269 248.448 359.654 258.232 362.896 274.056L368.839 264.583C367.102 262.075 365.46 259.413 365.46 259.413L370.298 262.258L371.931 259.655C370.885 258.059 370.107 256.798 370.107 256.798L372.748 258.352L379.166 248.123C377.435 245.624 375.803 242.977 375.803 242.977L380.616 245.81L384.782 239.169C385.084 240.353 385.874 241.21 386.827 241.21C386.861 241.21 386.889 241.187 386.923 241.184C387.031 260.886 389.885 308.411 413.689 331.236L432.973 319.067C432.949 319.055 395.152 309.973 387.799 240.828ZM404.892 232.191C404.137 232.048 403.387 231.929 402.649 231.842V227.867C402.649 227.867 403.754 229.887 404.892 232.191ZM371.335 227.867V231.842C370.598 231.932 369.848 232.048 369.092 232.191C370.23 229.887 371.335 227.867 371.335 227.867ZM371.526 241.39C371.326 238.53 371.267 235.736 371.267 235.736L373.569 239.758C372.884 240.263 372.199 240.801 371.526 241.39Z" fill="#3D13C9"/>
<path d="M414.547 339.753L425.423 327.731C411.11 309.05 376.568 302.266 362.14 300.192C362.147 300.169 362.165 300.154 362.168 300.13C362.264 299.475 361.718 298.845 360.882 298.516L366.17 296.325L364.584 292.727C364.584 292.727 366.358 294.117 368.015 295.56L376.164 292.187L375.294 290.214C375.294 290.214 376.139 290.878 377.201 291.756L379.274 290.899L377.679 287.286C377.679 287.286 379.465 288.684 381.125 290.134L388.669 287.011C377.401 283.177 369.762 285.358 364.741 288.98L369.521 282.869L367.756 281.572C367.756 281.572 368.83 281.742 370.203 281.996L371.563 280.254L368.33 277.881C368.33 277.881 370.598 278.24 372.779 278.7L377.734 272.365C366.941 274.274 361.403 279.118 358.626 284.205L359.502 278.276L357.309 277.971C357.309 277.971 358.333 277.615 359.66 277.191L359.981 275.027L355.963 274.471C355.963 274.471 358.126 273.718 360.264 273.097L361.425 265.228C343.686 279.324 352.464 293.854 355.522 297.927C354.782 298.083 354.214 298.498 354.127 299.075C354.118 299.144 354.152 299.209 354.158 299.275C348.348 298.107 332.313 296.914 325.97 317.259L333.026 313.201C332.798 311.049 332.683 308.826 332.683 308.826L334.754 312.206L336.695 311.091C336.587 309.74 336.534 308.688 336.534 308.688L337.667 310.532L345.285 306.151C345.056 304.006 344.945 301.797 344.945 301.797L347.006 305.159L355.075 300.518C355.124 300.545 355.164 300.584 355.217 300.608C351.224 303.557 338.25 315.164 351.32 333.677L352.48 325.809C350.604 324.632 348.749 323.323 348.749 323.323L352.767 323.878L353.088 321.715C351.934 320.947 351.054 320.328 351.054 320.328L353.248 320.633L354.124 314.704C355.318 320.337 359.234 326.493 369.043 331.254L366.118 323.828C363.887 323.678 361.61 323.406 361.61 323.406L365.402 322.005L364.596 319.964C363.205 319.835 362.125 319.707 362.125 319.707L364.195 318.942L361.036 310.924C358.814 310.774 356.546 310.505 356.546 310.505L360.32 309.11L357.839 302.81C358.055 302.891 358.277 302.969 358.527 303.002C359.762 303.172 360.863 302.637 360.986 301.803C361.014 301.606 360.977 301.412 360.903 301.226C361.264 301.131 361.573 300.978 361.792 300.763C411.724 312.845 414.547 339.753 414.547 339.753ZM350.789 309.672L353.702 310.075C353.692 310.592 353.702 311.118 353.729 311.653C352.159 310.634 350.789 309.672 350.789 309.672ZM357.364 287.038C357.182 287.543 357.019 288.048 356.88 288.544L353.967 288.14C353.967 288.14 355.559 287.587 357.364 287.038ZM362.452 290.887L359.737 288.896C359.737 288.896 361.779 289.219 363.856 289.646C363.356 290.047 362.893 290.462 362.452 290.887Z" fill="#3D13C9"/>
<path d="M665.58 1077.43C665.247 1077.48 664.914 1077.64 664.599 1077.88C664.482 1077.7 664.333 1077.54 664.139 1077.44C663.318 1077.01 662.137 1077.59 661.498 1078.73C661.368 1078.96 661.294 1079.19 661.229 1079.42L657.212 1073.32L653.556 1075.58C653.556 1075.58 654.765 1073.51 656.055 1071.56L650.939 1063.8L648.934 1065.03C648.934 1065.03 649.511 1064.05 650.288 1062.81L648.986 1060.83L645.315 1063.1C645.315 1063.1 646.53 1061.02 647.826 1059.07L643.09 1051.87C641.051 1063.11 644.022 1070.31 648.271 1074.91L642.433 1071.85L641.3 1073.87C641.3 1073.87 641.313 1072.74 641.368 1071.29L639.239 1070.17L637.163 1073.88C637.163 1073.88 637.188 1071.49 637.339 1069.17L629.594 1065.11C637.703 1087.86 656.333 1084.46 661.513 1083.01C661.501 1083.07 661.51 1083.13 661.504 1083.19L652.211 1086.96L653.883 1090.83C653.883 1090.83 651.992 1089.32 650.224 1087.76L641.449 1091.32L642.365 1093.44C642.365 1093.44 641.464 1092.72 640.329 1091.77L638.095 1092.68L639.776 1096.57C639.776 1096.57 637.873 1095.05 636.101 1093.48L627.977 1096.78C650.14 1104.5 659.338 1090.35 662.016 1084.76C662.075 1084.8 662.109 1084.87 662.177 1084.91C662.744 1085.21 663.476 1085 664.09 1084.48C665.756 1089.64 673.068 1106.26 696.962 1100.48L689.218 1096.41C687.295 1097.8 685.244 1099.12 685.244 1099.12L687.32 1095.41L685.191 1094.3C683.963 1095.14 682.994 1095.76 682.994 1095.76L684.127 1093.74L678.289 1090.67C684.589 1091.61 692.445 1090.09 701.05 1082.3L692.244 1082.38C691.257 1084.5 690.128 1086.62 690.128 1086.62L690.085 1082.4L687.663 1082.43C687.008 1083.73 686.475 1084.74 686.475 1084.74L686.453 1082.43L677.956 1082.52C684.395 1080.64 691.22 1075.66 695.021 1063.8L687.416 1068.1C687.644 1070.42 687.746 1072.8 687.746 1072.8L685.552 1069.16L683.46 1070.34C683.562 1071.79 683.611 1072.92 683.611 1072.92L682.414 1070.93L674.198 1075.58C674.423 1077.88 674.525 1080.25 674.525 1080.25L672.34 1076.63L667.008 1079.64C667.252 1078.73 667.042 1077.87 666.398 1077.53C666.373 1077.52 666.345 1077.52 666.324 1077.52C673.71 1064.15 689.776 1030.97 682.312 1007.07L664.654 1008.45C664.654 1008.46 686.789 1028.03 665.58 1077.43ZM650.742 1077.21C651.199 1077.57 651.661 1077.92 652.127 1078.24L650.622 1080.93C650.622 1080.93 650.643 1079.17 650.742 1077.21ZM671.813 1092.05L673.318 1089.36C673.852 1089.57 674.401 1089.75 674.969 1089.92C673.324 1091.07 671.813 1092.05 671.813 1092.05ZM676.802 1082.83C675.855 1084.84 674.836 1086.75 674.836 1086.75L674.799 1083.21C675.46 1083.11 676.126 1082.99 676.802 1082.83Z" fill="#3D13C9"/>
<path d="M684.944 1000.99L673.031 1005.27C675.645 1022.99 696.447 1039.85 705.426 1046.38C705.413 1046.39 705.392 1046.4 705.382 1046.41C705.068 1046.82 705.2 1047.44 705.642 1047.96L701.232 1047.57L700.946 1050.56C700.946 1050.56 700.27 1048.99 699.696 1047.43L692.905 1046.82L692.747 1048.46C692.747 1048.46 692.427 1047.71 692.041 1046.74L690.313 1046.58L690.023 1049.6C690.023 1049.6 689.344 1048.01 688.77 1046.45L682.482 1045.88C688.656 1052.48 694.651 1053.71 699.421 1053.05L693.874 1055.48L694.577 1056.99C694.577 1056.99 693.914 1056.49 693.081 1055.83L691.501 1056.52L692.791 1059.28C692.791 1059.28 691.393 1058.23 690.091 1057.14L684.34 1059.67C692.365 1062.21 697.95 1060.9 701.751 1058.44L698.912 1062.15L700.282 1063.13C700.282 1063.13 699.455 1063.01 698.394 1062.82L697.36 1064.17L699.869 1065.97C699.869 1065.97 698.122 1065.71 696.438 1065.38L692.673 1070.29C710.014 1067.05 709.579 1054.1 709.051 1050.26C709.613 1050.42 710.153 1050.34 710.427 1049.98C710.461 1049.94 710.461 1049.88 710.483 1049.83C713.972 1052.69 724.37 1059.19 736.367 1047.68L730.057 1047.92C729.397 1049.45 728.631 1051 728.631 1051L728.511 1047.98L726.777 1048.04C726.339 1048.99 725.975 1049.72 725.975 1049.72L725.907 1048.07L719.091 1048.33C718.431 1049.87 717.672 1051.4 717.672 1051.4L717.551 1048.39L710.335 1048.66C710.31 1048.63 710.298 1048.59 710.273 1048.55C714.093 1047.97 727.264 1044.73 725.432 1027.56L721.668 1032.47C722.491 1033.93 723.25 1035.48 723.25 1035.48L720.742 1033.68L719.708 1035.03C720.199 1035.96 720.56 1036.69 720.56 1036.69L719.19 1035.71L716.351 1039.41C717.678 1035.17 717.357 1029.61 712.525 1022.91L711.692 1028.97C713.145 1029.87 714.583 1030.86 714.583 1030.86L711.489 1030.46L711.26 1032.13C712.155 1032.71 712.837 1033.18 712.837 1033.18L711.146 1032.96L710.245 1039.51C711.692 1040.4 713.124 1041.39 713.124 1041.39L710.042 1040.99L709.335 1046.13C709.221 1046 709.097 1045.87 708.943 1045.76C708.172 1045.2 707.224 1045.18 706.826 1045.7C706.731 1045.82 706.684 1045.96 706.666 1046.12C706.385 1046.05 706.12 1046.05 705.888 1046.11C676.663 1020.2 684.944 1000.99 684.944 1000.99ZM716.694 1044L714.876 1042.69C715.08 1042.34 715.271 1041.98 715.453 1041.61C716.132 1042.86 716.694 1044 716.694 1044ZM703.676 1056.98C703.991 1056.7 704.29 1056.41 704.574 1056.13L706.391 1057.44C706.391 1057.44 705.105 1057.25 703.676 1056.98ZM701.689 1052.57L702.772 1054.88C702.772 1054.88 701.513 1053.93 700.27 1052.9C700.757 1052.81 701.229 1052.69 701.689 1052.57Z" fill="#3D13C9"/>
<path d="M516.219 115.321L511.554 106.308L491.949 89.4119L487.703 77.8229L491.218 74.4072C474.306 68.9773 460.872 36.2603 460.872 36.2603C467.956 60.1197 458.845 86.7343 458.845 86.7343L463.066 84.6813L467.311 96.2703L461.017 121.516L463.168 130.813L459.206 131.967L472.813 175.783L474.67 175.242L515.543 298.083L573.257 280.257L532.921 158.271L534.966 157.676L521.359 113.863L516.219 115.321ZM515.929 253.209C516.33 254.404 515.645 255.701 514.408 256.09C513.171 256.478 511.835 255.815 511.434 254.616L502.226 227.045C501.825 225.847 502.51 224.553 503.748 224.165C504.985 223.776 506.321 224.44 506.722 225.638L515.929 253.209ZM501.875 211.126C502.276 212.322 501.591 213.619 500.354 214.007C499.116 214.396 497.78 213.732 497.379 212.534L488.172 184.963C487.771 183.765 488.456 182.471 489.693 182.082C490.931 181.694 492.267 182.357 492.668 183.555L501.875 211.126ZM486.654 160.596C481.69 162.152 475.929 158.214 473.788 151.804C471.646 145.394 473.936 138.933 478.9 137.379C483.865 135.825 489.625 139.76 491.767 146.171C493.908 152.581 491.619 159.039 486.654 160.596ZM527.916 249.452C528.317 250.651 527.632 251.945 526.395 252.333C525.158 252.722 523.822 252.058 523.421 250.86L514.214 223.289C513.812 222.091 514.497 220.797 515.735 220.408C516.972 220.02 518.308 220.683 518.709 221.882L527.916 249.452ZM513.862 207.373C514.263 208.571 513.578 209.865 512.341 210.254C511.103 210.642 509.767 209.979 509.366 208.78L500.159 181.209C499.758 180.011 500.443 178.717 501.68 178.329C502.918 177.94 504.254 178.604 504.655 179.802L513.862 207.373ZM539.903 245.699C540.304 246.897 539.619 248.191 538.382 248.58C537.145 248.968 535.809 248.305 535.408 247.107L526.201 219.536C525.799 218.34 526.484 217.043 527.722 216.655C528.959 216.266 530.295 216.93 530.696 218.128L539.903 245.699ZM525.849 203.616C526.247 204.812 525.565 206.109 524.328 206.497C523.09 206.886 521.754 206.222 521.353 205.024L512.146 177.453C511.745 176.255 512.43 174.961 513.667 174.572C514.905 174.184 516.241 174.847 516.642 176.046L525.849 203.616ZM551.887 241.943C552.288 243.141 551.603 244.435 550.366 244.823C549.129 245.212 547.793 244.549 547.391 243.35L538.184 215.779C537.783 214.581 538.468 213.287 539.706 212.898C540.943 212.51 542.279 213.173 542.68 214.372L551.887 241.943ZM537.833 199.863C538.234 201.061 537.549 202.355 536.312 202.744C535.074 203.132 533.738 202.469 533.337 201.271L524.13 173.7C523.729 172.501 524.414 171.207 525.651 170.819C526.889 170.43 528.225 171.094 528.626 172.292L537.833 199.863ZM517.105 152.658C512.14 154.215 506.38 150.277 504.238 143.866C502.097 137.456 504.386 130.995 509.351 129.442C514.315 127.885 520.076 131.823 522.217 138.233C524.358 144.643 522.069 151.101 517.105 152.658Z" fill="#3D13C9"/>
<path opacity="0.44" d="M516.219 115.321L511.554 106.308L491.949 89.4119L487.703 77.8229L491.218 74.4072C474.306 68.9773 460.872 36.2603 460.872 36.2603C467.956 60.1197 458.845 86.7343 458.845 86.7343L463.066 84.6813L467.311 96.2703L461.017 121.516L463.168 130.813L459.206 131.967L472.813 175.783L474.67 175.242L515.543 298.083L573.257 280.257L532.921 158.271L534.966 157.676L521.359 113.863L516.219 115.321ZM515.929 253.209C516.33 254.404 515.645 255.701 514.408 256.09C513.171 256.478 511.835 255.815 511.434 254.616L502.226 227.045C501.825 225.847 502.51 224.553 503.748 224.165C504.985 223.776 506.321 224.44 506.722 225.638L515.929 253.209ZM501.875 211.126C502.276 212.322 501.591 213.619 500.354 214.007C499.116 214.396 497.78 213.732 497.379 212.534L488.172 184.963C487.771 183.765 488.456 182.471 489.693 182.082C490.931 181.694 492.267 182.357 492.668 183.555L501.875 211.126ZM486.654 160.596C481.69 162.152 475.929 158.214 473.788 151.804C471.646 145.394 473.936 138.933 478.9 137.379C483.865 135.825 489.625 139.76 491.767 146.171C493.908 152.581 491.619 159.039 486.654 160.596ZM527.916 249.452C528.317 250.651 527.632 251.945 526.395 252.333C525.158 252.722 523.822 252.058 523.421 250.86L514.214 223.289C513.812 222.091 514.497 220.797 515.735 220.408C516.972 220.02 518.308 220.683 518.709 221.882L527.916 249.452ZM513.862 207.373C514.263 208.571 513.578 209.865 512.341 210.254C511.103 210.642 509.767 209.979 509.366 208.78L500.159 181.209C499.758 180.011 500.443 178.717 501.68 178.329C502.918 177.94 504.254 178.604 504.655 179.802L513.862 207.373ZM539.903 245.699C540.304 246.897 539.619 248.191 538.382 248.58C537.145 248.968 535.809 248.305 535.408 247.107L526.201 219.536C525.799 218.34 526.484 217.043 527.722 216.655C528.959 216.266 530.295 216.93 530.696 218.128L539.903 245.699ZM525.849 203.616C526.247 204.812 525.565 206.109 524.328 206.497C523.09 206.886 521.754 206.222 521.353 205.024L512.146 177.453C511.745 176.255 512.43 174.961 513.667 174.572C514.905 174.184 516.241 174.847 516.642 176.046L525.849 203.616ZM551.887 241.943C552.288 243.141 551.603 244.435 550.366 244.823C549.129 245.212 547.793 244.549 547.391 243.35L538.184 215.779C537.783 214.581 538.468 213.287 539.706 212.898C540.943 212.51 542.279 213.173 542.68 214.372L551.887 241.943ZM537.833 199.863C538.234 201.061 537.549 202.355 536.312 202.744C535.074 203.132 533.738 202.469 533.337 201.271L524.13 173.7C523.729 172.501 524.414 171.207 525.651 170.819C526.889 170.43 528.225 171.094 528.626 172.292L537.833 199.863ZM517.105 152.658C512.14 154.215 506.38 150.277 504.238 143.866C502.097 137.456 504.386 130.995 509.351 129.442C514.315 127.885 520.076 131.823 522.217 138.233C524.358 144.643 522.069 151.101 517.105 152.658Z" fill="url(#paint0_linear_4_177)"/>
<path d="M979.3 321.509L955.7 300.497L952.895 303.737L942.679 293.597L944.37 289.452L937.32 280.045C937.32 280.045 946.746 247.22 947.681 246.141C958.137 234.065 898.14 235.338 898.14 235.338L831.368 308.058L940.664 396.843L986.499 343.913L979.3 321.509ZM974.148 339.403C976.378 341.214 966.465 351.563 966.465 351.563L963.12 348.844C963.12 348.844 971.917 337.592 974.148 339.403ZM968.949 333.34C971.895 335.733 960.871 347.018 960.871 347.018L956.449 343.426C956.449 343.426 966.002 330.946 968.949 333.34ZM951.753 348.811C954.7 351.204 943.676 362.489 943.676 362.489L939.254 358.896C939.254 358.896 948.804 346.417 951.753 348.811ZM963.75 327.276C967.415 330.253 955.274 342.472 955.274 342.472L949.779 338.008C949.779 338.008 960.087 324.3 963.75 327.276ZM946.554 342.75C950.22 345.727 938.079 357.946 938.079 357.946L932.583 353.482C932.583 353.482 942.889 339.771 946.554 342.75ZM956.564 321.44C961.025 325.065 948.683 337.12 948.683 337.12L941.991 331.684C941.991 331.684 952.102 317.815 956.564 321.44ZM948.575 313.111C953.037 316.736 939.76 329.873 939.76 329.873L933.068 324.437C933.068 324.437 944.117 309.486 948.575 313.111ZM939.655 305.864C944.117 309.489 930.84 322.626 930.84 322.626L924.148 317.19C924.148 317.19 935.194 302.24 939.655 305.864ZM920.695 290.462C925.157 294.087 911.88 307.221 911.88 307.221L905.188 301.785C905.188 301.785 916.234 286.837 920.695 290.462ZM910.837 284.294C915.299 287.919 902.957 299.974 902.957 299.974L896.264 294.538C896.264 294.538 906.376 280.669 910.837 284.294ZM893.642 299.765C898.103 303.39 885.762 315.445 885.762 315.445L879.069 310.009C879.069 310.009 889.18 296.14 893.642 299.765ZM903.651 278.455C907.317 281.431 895.175 293.651 895.175 293.651L889.68 289.186C889.68 289.186 899.986 275.478 903.651 278.455ZM886.453 293.926C890.118 296.902 877.977 309.122 877.977 309.122L872.482 304.657C872.482 304.657 882.79 290.949 886.453 293.926ZM896.582 274.552C899.529 276.946 888.505 288.23 888.505 288.23L884.083 284.638C884.083 284.638 893.633 272.158 896.582 274.552ZM889.51 270.649C891.741 272.46 881.831 282.809 881.831 282.809L878.486 280.09C878.486 280.09 887.28 268.838 889.51 270.649ZM883 267.201C885.231 269.012 876.255 278.282 876.255 278.282L872.911 275.562C872.911 275.562 880.769 265.39 883 267.201ZM865.802 282.672C868.033 284.482 859.057 293.752 859.057 293.752L855.712 291.033C855.712 291.033 863.574 280.861 865.802 282.672ZM845.206 311.94L841.862 309.22C841.862 309.22 849.723 299.045 851.954 300.859C854.182 302.673 845.206 311.94 845.206 311.94ZM872.315 286.12C874.546 287.931 864.632 298.28 864.632 298.28L861.288 295.563C861.288 295.563 870.084 284.309 872.315 286.12ZM850.782 316.47L847.437 313.751C847.437 313.751 856.234 302.496 858.465 304.307C860.695 306.121 850.782 316.47 850.782 316.47ZM879.384 290.023C882.331 292.417 871.306 303.701 871.306 303.701L866.885 300.109C866.885 300.109 876.437 287.629 879.384 290.023ZM857.456 321.891L853.034 318.299C853.034 318.299 862.587 305.82 865.533 308.213C868.48 310.607 857.456 321.891 857.456 321.891ZM864.126 327.309L858.631 322.844C858.631 322.844 868.94 309.137 872.605 312.116C876.268 315.093 864.126 327.309 864.126 327.309ZM871.911 333.636L865.219 328.2C865.219 328.2 875.327 314.331 879.788 317.955C884.25 321.577 871.911 333.636 871.911 333.636ZM903.497 305.933C907.958 309.558 894.682 322.692 894.682 322.692L887.989 317.256C887.989 317.256 899.038 302.308 903.497 305.933ZM880.834 340.882L874.142 335.447C874.142 335.447 885.188 320.499 889.646 324.121C894.108 327.745 880.834 340.882 880.834 340.882ZM912.42 313.18C916.882 316.805 903.605 329.939 903.605 329.939L896.912 324.503C896.912 324.503 907.958 309.555 912.42 313.18ZM889.754 348.129L883.062 342.693C883.062 342.693 894.108 327.745 898.569 331.37C903.031 334.992 889.754 348.129 889.754 348.129ZM920.803 314.471L914.111 309.035C914.111 309.035 925.157 294.087 929.615 297.712C934.08 301.334 920.803 314.471 920.803 314.471ZM922.457 321.335C926.919 324.96 913.642 338.094 913.642 338.094L906.949 332.658C906.949 332.658 917.995 317.71 922.457 321.335ZM899.791 356.285L893.099 350.849C893.099 350.849 904.145 335.901 908.603 339.526C913.068 343.148 899.791 356.285 899.791 356.285ZM931.38 328.582C935.842 332.207 922.565 345.341 922.565 345.341L915.873 339.905C915.873 339.905 926.919 324.957 931.38 328.582ZM908.714 363.531L902.022 358.096C902.022 358.096 913.068 343.148 917.526 346.77C921.991 350.394 908.714 363.531 908.714 363.531ZM939.365 336.911C943.827 340.536 931.485 352.591 931.485 352.591L924.793 347.155C924.793 347.155 934.907 333.286 939.365 336.911ZM917.637 370.778L910.945 365.342C910.945 365.342 921.053 351.473 925.515 355.098C929.976 358.723 917.637 370.778 917.637 370.778ZM924.225 376.134L918.73 371.669C918.73 371.669 929.038 357.961 932.704 360.941C936.366 363.914 924.225 376.134 924.225 376.134ZM929.822 380.679L925.4 377.087C925.4 377.087 934.953 364.607 937.9 367.001C940.846 369.395 929.822 380.679 929.822 380.679ZM956.952 354.874C959.183 356.685 949.273 367.034 949.273 367.034L945.928 364.314C945.928 364.314 954.722 353.063 956.952 354.874ZM935.419 385.224L932.074 382.505C932.074 382.505 940.871 371.251 943.102 373.061C945.329 374.875 935.419 385.224 935.419 385.224ZM961.593 360.486C963.824 362.297 954.848 371.567 954.848 371.567L951.503 368.851C951.503 368.851 959.362 358.672 961.593 360.486ZM940.994 389.755L937.65 387.035C937.65 387.035 945.512 376.86 947.742 378.674C949.97 380.485 940.994 389.755 940.994 389.755Z" fill="#3D13C9"/>
<path opacity="0.44" d="M979.3 321.509L955.7 300.497L952.895 303.737L942.679 293.597L944.37 289.452L937.32 280.045C937.32 280.045 946.746 247.22 947.681 246.141C958.137 234.065 898.14 235.338 898.14 235.338L831.368 308.058L940.664 396.843L986.499 343.913L979.3 321.509ZM974.148 339.403C976.378 341.214 966.465 351.563 966.465 351.563L963.12 348.844C963.12 348.844 971.917 337.592 974.148 339.403ZM968.949 333.34C971.895 335.733 960.871 347.018 960.871 347.018L956.449 343.426C956.449 343.426 966.002 330.946 968.949 333.34ZM951.753 348.811C954.7 351.204 943.676 362.489 943.676 362.489L939.254 358.896C939.254 358.896 948.804 346.417 951.753 348.811ZM963.75 327.276C967.415 330.253 955.274 342.472 955.274 342.472L949.779 338.008C949.779 338.008 960.087 324.3 963.75 327.276ZM946.554 342.75C950.22 345.727 938.079 357.946 938.079 357.946L932.583 353.482C932.583 353.482 942.889 339.771 946.554 342.75ZM956.564 321.44C961.025 325.065 948.683 337.12 948.683 337.12L941.991 331.684C941.991 331.684 952.102 317.815 956.564 321.44ZM948.575 313.111C953.037 316.736 939.76 329.873 939.76 329.873L933.068 324.437C933.068 324.437 944.117 309.486 948.575 313.111ZM939.655 305.864C944.117 309.489 930.84 322.626 930.84 322.626L924.148 317.19C924.148 317.19 935.194 302.24 939.655 305.864ZM920.695 290.462C925.157 294.087 911.88 307.221 911.88 307.221L905.188 301.785C905.188 301.785 916.234 286.837 920.695 290.462ZM910.837 284.294C915.299 287.919 902.957 299.974 902.957 299.974L896.264 294.538C896.264 294.538 906.376 280.669 910.837 284.294ZM893.642 299.765C898.103 303.39 885.762 315.445 885.762 315.445L879.069 310.009C879.069 310.009 889.18 296.14 893.642 299.765ZM903.651 278.455C907.317 281.431 895.175 293.651 895.175 293.651L889.68 289.186C889.68 289.186 899.986 275.478 903.651 278.455ZM886.453 293.926C890.118 296.902 877.977 309.122 877.977 309.122L872.482 304.657C872.482 304.657 882.79 290.949 886.453 293.926ZM896.582 274.552C899.529 276.946 888.505 288.23 888.505 288.23L884.083 284.638C884.083 284.638 893.633 272.158 896.582 274.552ZM889.51 270.649C891.741 272.46 881.831 282.809 881.831 282.809L878.486 280.09C878.486 280.09 887.28 268.838 889.51 270.649ZM883 267.201C885.231 269.012 876.255 278.282 876.255 278.282L872.911 275.562C872.911 275.562 880.769 265.39 883 267.201ZM865.802 282.672C868.033 284.482 859.057 293.752 859.057 293.752L855.712 291.033C855.712 291.033 863.574 280.861 865.802 282.672ZM845.206 311.94L841.862 309.22C841.862 309.22 849.723 299.045 851.954 300.859C854.182 302.673 845.206 311.94 845.206 311.94ZM872.315 286.12C874.546 287.931 864.632 298.28 864.632 298.28L861.288 295.563C861.288 295.563 870.084 284.309 872.315 286.12ZM850.782 316.47L847.437 313.751C847.437 313.751 856.234 302.496 858.465 304.307C860.695 306.121 850.782 316.47 850.782 316.47ZM879.384 290.023C882.331 292.417 871.306 303.701 871.306 303.701L866.885 300.109C866.885 300.109 876.437 287.629 879.384 290.023ZM857.456 321.891L853.034 318.299C853.034 318.299 862.587 305.82 865.533 308.213C868.48 310.607 857.456 321.891 857.456 321.891ZM864.126 327.309L858.631 322.844C858.631 322.844 868.94 309.137 872.605 312.116C876.268 315.093 864.126 327.309 864.126 327.309ZM871.911 333.636L865.219 328.2C865.219 328.2 875.327 314.331 879.788 317.955C884.25 321.577 871.911 333.636 871.911 333.636ZM903.497 305.933C907.958 309.558 894.682 322.692 894.682 322.692L887.989 317.256C887.989 317.256 899.038 302.308 903.497 305.933ZM880.834 340.882L874.142 335.447C874.142 335.447 885.188 320.499 889.646 324.121C894.108 327.745 880.834 340.882 880.834 340.882ZM912.42 313.18C916.882 316.805 903.605 329.939 903.605 329.939L896.912 324.503C896.912 324.503 907.958 309.555 912.42 313.18ZM889.754 348.129L883.062 342.693C883.062 342.693 894.108 327.745 898.569 331.37C903.031 334.992 889.754 348.129 889.754 348.129ZM920.803 314.471L914.111 309.035C914.111 309.035 925.157 294.087 929.615 297.712C934.08 301.334 920.803 314.471 920.803 314.471ZM922.457 321.335C926.919 324.96 913.642 338.094 913.642 338.094L906.949 332.658C906.949 332.658 917.995 317.71 922.457 321.335ZM899.791 356.285L893.099 350.849C893.099 350.849 904.145 335.901 908.603 339.526C913.068 343.148 899.791 356.285 899.791 356.285ZM931.38 328.582C935.842 332.207 922.565 345.341 922.565 345.341L915.873 339.905C915.873 339.905 926.919 324.957 931.38 328.582ZM908.714 363.531L902.022 358.096C902.022 358.096 913.068 343.148 917.526 346.77C921.991 350.394 908.714 363.531 908.714 363.531ZM939.365 336.911C943.827 340.536 931.485 352.591 931.485 352.591L924.793 347.155C924.793 347.155 934.907 333.286 939.365 336.911ZM917.637 370.778L910.945 365.342C910.945 365.342 921.053 351.473 925.515 355.098C929.976 358.723 917.637 370.778 917.637 370.778ZM924.225 376.134L918.73 371.669C918.73 371.669 929.038 357.961 932.704 360.941C936.366 363.914 924.225 376.134 924.225 376.134ZM929.822 380.679L925.4 377.087C925.4 377.087 934.953 364.607 937.9 367.001C940.846 369.395 929.822 380.679 929.822 380.679ZM956.952 354.874C959.183 356.685 949.273 367.034 949.273 367.034L945.928 364.314C945.928 364.314 954.722 353.063 956.952 354.874ZM935.419 385.224L932.074 382.505C932.074 382.505 940.871 371.251 943.102 373.061C945.329 374.875 935.419 385.224 935.419 385.224ZM961.593 360.486C963.824 362.297 954.848 371.567 954.848 371.567L951.503 368.851C951.503 368.851 959.362 358.672 961.593 360.486ZM940.994 389.755L937.65 387.035C937.65 387.035 945.512 376.86 947.742 378.674C949.97 380.485 940.994 389.755 940.994 389.755Z" fill="url(#paint1_linear_4_177)"/>
<path d="M1049.59 565.571C1050.37 564.68 1051.74 563.82 1054.15 563.15C1061.8 561.032 1070.83 557.995 1072.36 550.094L1085.54 544.305L1071.85 546.496C1071.85 546.496 1070.17 542.686 1066.67 542.055C1066.67 542.055 1098.88 528.24 1101.93 512.437L1125.54 504.138L1099.35 504.841C1088.85 492.388 1056.31 497.364 1056.31 497.364C1059.07 495.185 1058.65 491.064 1058.65 491.064L1071.75 486.632L1057.32 487.669C1052.07 481.442 1042.64 482.969 1034.88 484.657C1030.28 485.658 1028.59 484.364 1027.63 483.112L1026.29 478.107L1002.1 483.901C1002.1 483.901 1027.69 577.811 1028.44 578.702L1051.72 573.634L1049.59 565.571Z" fill="#3D13C9"/>
<path opacity="0.44" d="M1049.59 565.571C1050.37 564.68 1051.74 563.82 1054.15 563.15C1061.8 561.032 1070.83 557.995 1072.36 550.094L1085.54 544.305L1071.85 546.496C1071.85 546.496 1070.17 542.686 1066.67 542.055C1066.67 542.055 1098.88 528.24 1101.93 512.437L1125.54 504.138L1099.35 504.841C1088.85 492.388 1056.31 497.364 1056.31 497.364C1059.07 495.185 1058.65 491.064 1058.65 491.064L1071.75 486.632L1057.32 487.669C1052.07 481.442 1042.64 482.969 1034.88 484.657C1030.28 485.658 1028.59 484.364 1027.63 483.112L1026.29 478.107L1002.1 483.901C1002.1 483.901 1027.69 577.811 1028.44 578.702L1051.72 573.634L1049.59 565.571Z" fill="url(#paint2_linear_4_177)"/>
<path d="M772.402 256.622L773.241 248.129C773.241 248.129 767.348 229.367 768.816 214.503L771.637 208.335L769.862 203.885L786.971 109.034L790.785 104.028L789.011 99.5785L793.5 98.924L788.542 93.1086L790.356 82.9301L790.038 82.2428L786.512 91.214L779.406 94.298L783.13 96.8142L779.504 100.042L780.631 106.165L752.556 198.533L748.931 201.761L748.638 208.499C743.149 222.455 729.282 236.743 729.282 236.743L726.148 244.716L699.44 273.67L720.066 278.694C718.514 276.802 717.157 275.069 717.157 275.069C717.157 275.069 727.302 258.265 746.61 263.106C765.919 267.948 770.085 284.321 770.085 284.321L762.806 289.102L783.087 294.042L772.402 256.622ZM770.223 161.104C770.862 162.481 765.62 202.777 765.62 202.777L757.78 198.742C757.78 198.742 769.588 159.726 770.223 161.104ZM743.766 240.371L751.998 219.437L764.102 221.619L764.886 243.595C763.466 244.214 743.766 240.371 743.766 240.371Z" fill="#3D13C9"/>
<path opacity="0.44" d="M772.402 256.622L773.241 248.129C773.241 248.129 767.348 229.367 768.816 214.503L771.637 208.335L769.862 203.885L786.971 109.034L790.785 104.028L789.011 99.5785L793.5 98.924L788.542 93.1086L790.356 82.9301L790.038 82.2428L786.512 91.214L779.406 94.298L783.13 96.8142L779.504 100.042L780.631 106.165L752.556 198.533L748.931 201.761L748.638 208.499C743.149 222.455 729.282 236.743 729.282 236.743L726.148 244.716L699.44 273.67L720.066 278.694C718.514 276.802 717.157 275.069 717.157 275.069C717.157 275.069 727.302 258.265 746.61 263.106C765.919 267.948 770.085 284.321 770.085 284.321L762.806 289.102L783.087 294.042L772.402 256.622ZM770.223 161.104C770.862 162.481 765.62 202.777 765.62 202.777L757.78 198.742C757.78 198.742 769.588 159.726 770.223 161.104ZM743.766 240.371L751.998 219.437L764.102 221.619L764.886 243.595C763.466 244.214 743.766 240.371 743.766 240.371Z" fill="url(#paint3_linear_4_177)"/>
<path d="M547.444 998.18L536.713 989.514L533.603 987.003L532.751 990.306C527.947 1011.82 540.283 1040.36 540.631 1040.44C540.98 1040.53 553.047 1038.41 553.047 1038.41C554.226 1039.53 555.565 1040.62 557.021 1041.66C572.532 1052.84 601.757 1059.91 601.757 1059.91C571.233 1029.85 569.65 995.634 569.65 995.634L570.261 993.261L534.232 984.544C534.232 984.544 535.59 987.517 536.706 989.511L547.444 998.18Z" fill="#3D13C9"/>
<path d="M536.713 989.514C535.596 987.52 534.238 984.547 534.238 984.547L533.606 987.003L536.713 989.514Z" fill="#3D13C9"/>
<path d="M534.238 984.547H530.563L533.603 987.003L534.238 984.547Z" fill="#3D13C9"/>
<path d="M494.67 1102.03C494.337 1101.91 493.757 1101.7 492.986 1101.41C493.596 1101.78 494.164 1101.98 494.67 1102.03Z" fill="#3D13C9"/>
<path d="M494.994 1102.14L495.022 1102.03C494.908 1102.04 494.791 1102.04 494.673 1102.03C494.88 1102.1 494.994 1102.14 494.994 1102.14Z" fill="#3D13C9"/>
<path d="M491.125 984.556L486.691 974.365C474.914 1003.22 483.97 1051.22 483.97 1051.22L500.934 1045.96C504.497 1049.71 508.03 1053.01 511.461 1055.91C512.214 1052.85 512.652 1050.95 512.652 1050.95C512.652 1050.95 512.214 1052.85 511.461 1055.91C531.109 1072.5 547.462 1075.93 547.462 1075.93C547.462 1075.93 518.333 1036.13 529.777 984.55H530.563L528.99 983.28L489.811 970.923C489.811 970.923 502.745 942.378 488.41 970.585C488.107 971.183 487.817 971.795 487.534 972.414C487.24 973.054 486.96 973.705 486.688 974.368L491.125 984.556Z" fill="#3D13C9"/>
<path d="M487.537 972.411L484.828 970.074L486.694 974.362C486.963 973.702 487.243 973.051 487.537 972.411Z" fill="#3D13C9"/>
<path d="M547.462 1075.93C555.358 1065.68 556.78 1048.55 557.027 1041.66C555.571 1040.62 554.232 1039.53 553.053 1038.41C553.053 1038.41 540.986 1040.53 540.637 1040.44C540.289 1040.36 527.95 1011.82 532.757 990.306L533.609 987.003L530.57 984.547H529.783C518.333 1036.13 547.462 1075.93 547.462 1075.93Z" fill="#3013AC"/>
<path d="M492.985 1101.41C493.76 1101.7 494.337 1101.91 494.67 1102.03C494.79 1102.04 494.908 1102.04 495.019 1102.04C495.525 1102 495.96 1101.77 496.312 1101.35C496.497 1101.13 496.685 1100.88 496.876 1100.6C501.936 1093.2 508.746 1066.95 511.461 1055.91C508.03 1053.01 504.497 1049.71 500.934 1045.96L483.97 1051.21C483.97 1051.21 474.914 1003.22 486.691 974.365L484.824 970.077C457.746 1040.73 482.384 1095.01 492.985 1101.41Z" fill="#3013AC"/>
<path d="M601.763 1059.91C601.763 1059.91 610.236 1012.65 600.702 1000.62L570.27 993.261L569.659 995.634C569.656 995.634 571.236 1029.85 601.763 1059.91Z" fill="#3013AC"/>
<path d="M375.439 1002.28C405.963 1023.7 440.502 1013.7 440.502 1013.7L444.087 1015.65C441.208 1052.75 462.902 1081.03 471.474 1089.58C478.175 1096.27 489.255 1100.95 493.772 1102.68C483.171 1096.28 458.536 1042 485.614 971.347L405.158 946.125C384.084 955.781 375.439 1002.28 375.439 1002.28Z" fill="#3D13C9"/>
<path opacity="0.44" d="M375.439 1002.28C405.963 1023.7 440.502 1013.7 440.502 1013.7L444.087 1015.65C441.208 1052.75 462.902 1081.03 471.474 1089.58C478.175 1096.27 489.255 1100.95 493.772 1102.68C494.386 1103.05 494.951 1103.26 495.457 1103.3C495.667 1103.38 495.781 1103.41 495.781 1103.41L495.809 1103.31C496.315 1103.27 496.75 1103.04 497.102 1102.62C497.287 1102.4 497.475 1102.14 497.666 1101.87C502.726 1094.47 509.536 1068.22 512.251 1057.18C531.899 1073.77 548.252 1077.2 548.252 1077.2C556.148 1066.96 557.57 1049.82 557.814 1042.93C573.325 1054.11 602.55 1061.18 602.55 1061.18C602.55 1061.18 611.023 1013.92 601.489 1001.89L571.057 994.531L535.028 985.814H531.353L529.78 984.544L490.6 972.187C490.6 972.187 503.535 943.642 489.2 971.849C488.897 972.447 488.607 973.06 488.323 973.678L485.614 971.341L405.158 946.119C384.084 955.781 375.439 1002.28 375.439 1002.28Z" fill="url(#paint4_linear_4_177)"/>
<path d="M912.293 1077.7L911.661 1080.11C911.661 1080.11 917.279 1078.92 919.384 1079.47C919.384 1079.47 929.492 1066.63 943.722 1057.58C957.31 1047.65 973.429 1042.6 973.429 1042.6C973.605 1040.5 976.653 1035.77 976.653 1035.77L974.092 1035.54C977.338 1020.77 996.56 1007.32 996.56 1007.32C992.42 1005.85 984.252 1010.1 984.252 1010.1L971.763 1006.06L969.026 1007.93L966.616 1004.62L964.188 1006.27L958.276 997.747L962.562 994.821L955.172 984.66L951.118 987.425L911.3 929.994L914.737 927.651L908.634 919.256L891.988 930.612L898.091 939.007L900.846 937.127L943.592 992.562L880.427 1035.65L840.609 978.22L844.046 975.877L837.943 967.483L821.297 978.839L827.4 987.233L830.155 985.354L872.901 1040.79L869.658 1043L877.048 1053.16L880.581 1050.75L886.925 1058.98L884.061 1060.93L886.471 1064.25L884.419 1065.65L884.139 1078.4C884.139 1078.4 877.255 1084.42 877.292 1088.69C877.292 1088.69 896.838 1075.68 912.293 1077.7ZM893.497 1054.5L887.585 1045.98L951.278 1002.53L957.622 1010.76L954.759 1012.71L957.168 1016.03L928.433 1035.63L927.748 1036.09L898.332 1056.16L895.922 1052.85L893.497 1054.5Z" fill="#3D13C9"/>
<path opacity="0.44" d="M912.293 1077.7L911.661 1080.11C911.661 1080.11 917.279 1078.92 919.384 1079.47C919.384 1079.47 929.492 1066.63 943.722 1057.58C957.31 1047.65 973.429 1042.6 973.429 1042.6C973.605 1040.5 976.653 1035.77 976.653 1035.77L974.092 1035.54C977.338 1020.77 996.56 1007.32 996.56 1007.32C992.42 1005.85 984.252 1010.1 984.252 1010.1L971.763 1006.06L969.026 1007.93L966.616 1004.62L964.188 1006.27L958.276 997.747L962.562 994.821L955.172 984.66L951.118 987.425L911.3 929.994L914.737 927.651L908.634 919.256L891.988 930.612L898.091 939.007L900.846 937.127L943.592 992.562L880.427 1035.65L840.609 978.22L844.046 975.877L837.943 967.483L821.297 978.839L827.4 987.233L830.155 985.354L872.901 1040.79L869.658 1043L877.048 1053.16L880.581 1050.75L886.925 1058.98L884.061 1060.93L886.471 1064.25L884.419 1065.65L884.139 1078.4C884.139 1078.4 877.255 1084.42 877.292 1088.69C877.292 1088.69 896.838 1075.68 912.293 1077.7ZM893.497 1054.5L887.585 1045.98L951.278 1002.53L957.622 1010.76L954.759 1012.71L957.168 1016.03L928.433 1035.63L927.748 1036.09L898.332 1056.16L895.922 1052.85L893.497 1054.5Z" fill="url(#paint5_linear_4_177)"/>
<path d="M307.173 538.553L149.978 517.138C149.978 517.138 152.132 517.526 155.93 518.214L152.749 537.746L144.585 536.634C144.585 536.634 299.814 564.665 300.678 564.797L301.776 558.046L296.719 557.356L291.9 549.927L300.912 544.374C304.134 544.954 305.982 545.286 306.074 545.298L307.173 538.553ZM180.706 541.556L187.997 535.753L192.172 543.119L180.706 541.556ZM194.557 543.442L189.515 534.542L199.891 526.282L197.044 543.779L194.557 543.442ZM277.79 540.208L270.576 544.652L266.352 538.143C270.37 538.87 274.199 539.56 277.79 540.208ZM226.217 530.902L223.532 547.389L214.097 546.104C212.113 545.008 206.288 541.311 207.729 536.452C209.284 531.216 216.322 529.713 218.019 529.423C220.737 529.913 223.477 530.406 226.217 530.902ZM263.415 537.614L268.722 545.794L258.426 552.141L239.555 549.571C237.124 548.044 232.9 544.706 234.143 540.486C235.35 536.422 239.86 534.608 242.616 533.861C249.805 535.161 256.824 536.425 263.415 537.614ZM188.571 532.875L183.036 523.109C187.599 523.934 192.471 524.812 197.547 525.73L188.571 532.875ZM201.808 526.498C205.686 527.197 209.663 527.917 213.693 528.643C210.687 529.764 207.068 531.916 205.874 535.935C204.64 540.095 207.284 543.409 209.864 545.528L198.95 544.042L201.808 526.498ZM225.439 547.649L228.111 531.246C231.709 531.895 235.309 532.546 238.876 533.189C236.18 534.411 233.325 536.488 232.295 539.969C231.159 543.803 233.319 546.92 235.683 549.045L225.439 547.649ZM261.783 552.598L269.894 547.599L274.239 554.296L261.783 552.598ZM277.087 554.684L271.749 546.457L280.959 540.779C281.888 540.946 282.798 541.111 283.689 541.272L288.879 549.269L279.549 555.019L277.087 554.684ZM157.827 518.554C163.316 519.547 171.36 520.999 180.907 522.723L180.681 522.843L187.05 534.082L178.191 541.135L178.265 541.224L154.659 538.009L157.827 518.554ZM293.875 556.97L282.903 555.476L290.049 551.074L293.875 556.97ZM290.734 548.128L286.63 541.804C290.959 542.584 294.714 543.262 297.747 543.806L290.734 548.128Z" fill="#3D13C9"/>
<path d="M273.782 619.918L191.443 608.702C191.443 608.702 192.573 608.906 194.56 609.264L192.894 619.497L188.617 618.914C188.617 618.914 269.928 633.596 270.382 633.667L270.956 630.132L268.305 629.771L265.781 625.88L270.502 622.972C272.19 623.277 273.159 623.45 273.205 623.456L273.782 619.918ZM207.537 621.493L211.357 618.454L213.545 622.312L207.537 621.493ZM214.794 622.479L212.153 617.817L217.59 613.49L216.096 622.655L214.794 622.479ZM258.392 620.787L254.615 623.115L252.403 619.706C254.504 620.085 256.51 620.447 258.392 620.787ZM231.379 615.91L229.972 624.547L225.029 623.874C223.989 623.301 220.937 621.364 221.693 618.818C222.508 616.075 226.195 615.289 227.084 615.136C228.506 615.393 229.941 615.653 231.379 615.91ZM250.863 619.428L253.643 623.713L248.25 627.036L238.364 625.688C237.09 624.891 234.877 623.139 235.528 620.931C236.161 618.803 238.524 617.85 239.965 617.461C243.733 618.143 247.411 618.806 250.863 619.428ZM211.656 616.944L208.759 611.828C211.147 612.259 213.702 612.722 216.362 613.2L211.656 616.944ZM218.592 613.603C220.626 613.971 222.705 614.347 224.819 614.727C223.245 615.313 221.348 616.439 220.724 618.546C220.077 620.725 221.465 622.461 222.813 623.573L217.096 622.793L218.592 613.603ZM230.971 624.684L232.372 616.093C234.257 616.433 236.143 616.774 238.012 617.109C236.599 617.748 235.106 618.836 234.563 620.662C233.967 622.67 235.1 624.302 236.337 625.417L230.971 624.684ZM250.005 627.278L254.254 624.66L256.531 628.169L250.005 627.278ZM258.025 628.369L255.229 624.06L260.055 621.086C260.542 621.173 261.017 621.26 261.483 621.343L264.202 625.533L259.314 628.545L258.025 628.369ZM195.553 609.444C198.429 609.964 202.641 610.723 207.642 611.625L207.525 611.688L210.86 617.575L206.22 621.269L206.26 621.313L193.893 619.628L195.553 609.444ZM266.818 629.567L261.07 628.784L264.813 626.477L266.818 629.567ZM265.17 624.935L263.02 621.621C265.288 622.031 267.253 622.383 268.842 622.67L265.17 624.935Z" fill="#3D13C9"/>
<path d="M322.091 395.134L315.636 434.787C315.636 434.787 237 517.024 257.201 643.759L252.005 642.964C252.005 642.964 218.108 534.892 322.091 395.134Z" fill="#3D13C9"/>
<path d="M157.639 519.173C165.485 515.019 173.193 510.629 180.833 506.134C188.478 501.649 196.038 497.035 203.505 492.283C218.432 482.78 232.998 472.742 246.951 461.996C250.444 459.315 253.902 456.596 257.303 453.811C260.709 451.031 264.069 448.207 267.361 445.315C273.958 439.541 280.314 433.522 286.303 427.208C292.27 420.881 297.895 414.265 302.788 407.224C307.691 400.211 321.446 379.083 324.205 371.247L321.341 387.232C318.074 395.788 313.328 403.564 308.009 410.784C302.662 418.004 296.645 424.641 290.336 430.94C284.004 437.222 277.352 443.148 270.484 448.799C267.056 451.635 263.566 454.39 260.039 457.095C256.516 459.805 252.946 462.45 249.336 465.044C234.881 475.387 219.894 484.956 204.584 493.966C189.271 502.961 173.647 511.448 157.639 519.173Z" fill="#3D13C9"/>
<path d="M193.872 619.413C200.91 618.445 207.914 617.27 214.825 615.812C216.553 615.444 218.272 615.047 219.981 614.625C221.693 614.213 223.393 613.768 225.078 613.287C226.763 612.802 228.429 612.279 230.067 611.7C231.706 611.123 233.322 610.504 234.877 609.799C236.436 609.097 237.932 608.305 239.293 607.393C240.647 606.482 241.851 605.421 242.659 604.256C243.452 603.075 243.739 601.832 243.474 600.541C243.359 599.89 243.066 599.244 242.718 598.599L242.437 598.111L242.11 597.624C241.903 597.299 241.641 596.982 241.403 596.662C239.367 594.122 236.824 591.761 234.211 589.526C232.884 588.42 231.567 587.293 230.203 586.215C228.845 585.13 227.46 584.069 226.075 583.008C214.942 574.56 203.255 566.641 191.16 559.406C179.068 552.159 166.612 545.474 153.986 539.18L151.743 538.063L154.128 537.079C157.216 535.809 160.305 534.477 163.375 533.129C166.451 531.787 169.518 530.427 172.579 529.053C178.707 526.318 184.8 523.518 190.848 520.631C196.892 517.739 202.903 514.774 208.845 511.702C211.82 510.169 214.794 508.636 217.744 507.064C220.7 505.498 223.619 503.878 226.556 502.286C238.253 495.831 249.709 488.954 260.542 481.244C265.957 477.386 271.184 473.283 276.087 468.831C280.974 464.369 285.535 459.531 289.24 454.041L289.58 454.235C286.429 460.107 282.15 465.373 277.488 470.199C272.813 475.034 267.713 479.463 262.409 483.614C257.102 487.771 251.579 491.647 245.927 495.326C240.292 499.031 234.486 502.468 228.629 505.815C225.704 507.491 222.736 509.093 219.756 510.671C216.772 512.243 213.785 513.809 210.765 515.309C204.72 518.303 198.629 521.205 192.48 523.975C186.337 526.758 180.148 529.441 173.906 532.008C167.655 534.56 161.366 536.981 154.983 539.249L155.121 537.148C161.286 540.63 167.383 544.186 173.492 547.733L191.804 558.381C197.892 561.958 204.017 565.481 210.08 569.115C216.149 572.743 222.178 576.458 227.997 580.519C230.9 582.557 233.754 584.679 236.507 586.956C237.873 588.109 239.216 589.296 240.518 590.548C241.82 591.8 243.079 593.118 244.214 594.609C244.492 594.992 244.782 595.353 245.038 595.766L245.433 596.369L245.797 597.015C246.263 597.899 246.682 598.865 246.864 599.925C247.062 600.977 247.053 602.11 246.794 603.177C246.541 604.247 246.056 605.233 245.464 606.088C244.257 607.791 242.696 609.013 241.104 610.026C239.503 611.036 237.833 611.852 236.143 612.554C232.761 613.974 229.28 614.981 225.782 615.821C224.032 616.242 222.276 616.619 220.518 616.962C218.756 617.297 216.991 617.593 215.223 617.865C211.69 618.418 208.139 618.83 204.588 619.162C201.033 619.484 197.476 619.718 193.909 619.81L193.872 619.413Z" fill="#3D13C9"/>
<path d="M195.535 609.482C202.949 608.891 210.336 607.979 217.611 606.542C221.249 605.839 224.859 605.006 228.398 603.96C231.931 602.911 235.414 601.683 238.648 600.018C240.262 599.187 241.807 598.24 243.199 597.134C244.587 596.035 245.822 594.753 246.664 593.276C247.516 591.812 247.932 590.135 247.827 588.483C247.716 586.887 246.951 585.276 246.044 583.788C244.186 580.794 241.706 578.11 239.129 575.564C236.537 573.018 233.779 570.621 230.962 568.29C225.328 563.619 219.413 559.259 213.418 555.01C207.426 550.751 201.305 546.66 195.152 542.614C188.987 538.586 182.773 534.62 176.513 530.723C170.274 526.796 163.961 522.977 157.636 519.173C170.644 526.187 183.412 533.634 195.902 541.508C202.153 545.435 208.315 549.502 214.384 553.704C220.441 557.924 226.386 562.302 232.098 566.99C234.942 569.345 237.716 571.79 240.351 574.39C241.669 575.69 242.943 577.037 244.155 578.448C245.359 579.864 246.51 581.341 247.482 582.96C248.432 584.58 249.296 586.346 249.432 588.393C249.537 590.363 249.009 592.341 248.006 594.017C247.013 595.703 245.627 597.092 244.125 598.258C242.613 599.423 240.968 600.38 239.277 601.21C235.89 602.869 232.323 604.067 228.716 605.045C225.103 606.013 221.443 606.76 217.766 607.372C214.085 607.967 210.385 608.424 206.676 608.78C202.971 609.142 199.253 609.393 195.535 609.482Z" fill="#3D13C9"/>
<path d="M253.301 643.165C251.163 641.497 248.904 639.988 246.59 638.571L244.853 637.511C244.273 637.161 243.674 636.835 243.085 636.497C242.492 636.166 241.909 635.822 241.311 635.502L239.506 634.561C234.686 632.06 229.716 629.836 224.621 627.915L220.777 626.531C220.135 626.307 219.5 626.059 218.852 625.853L216.902 625.243C215.6 624.843 214.304 624.418 212.995 624.039C211.675 623.695 210.36 623.337 209.046 622.972L207.071 622.428L205.075 621.971L201.079 621.059C198.41 620.468 195.708 620.034 193.023 619.476C194.381 619.652 195.738 619.837 197.096 620.034L199.132 620.321C199.811 620.414 200.493 620.51 201.163 620.647L205.198 621.442L207.216 621.845L209.213 622.333C210.546 622.655 211.878 622.984 213.205 623.328C214.526 623.698 215.831 624.111 217.145 624.502L219.114 625.097C219.768 625.297 220.41 625.539 221.058 625.76L224.939 627.117C230.036 629.119 235.047 631.345 239.83 633.987C244.594 636.644 249.231 639.576 253.301 643.165Z" fill="#3D13C9"/>
<path opacity="0.44" d="M204.584 493.96C219.895 484.953 234.881 475.384 249.336 465.038C252.943 462.444 256.516 459.8 260.039 457.089C263.566 454.385 267.056 451.629 270.484 448.793C277.352 443.142 284.004 437.213 290.336 430.935C296.645 424.638 302.662 417.998 308.009 410.778C313.331 403.561 318.074 395.782 321.341 387.226L324.205 371.242C321.449 379.08 307.691 400.205 302.788 407.219C297.898 414.26 292.27 420.876 286.303 427.202C280.314 433.517 273.958 439.535 267.361 445.309C264.069 448.205 260.706 451.029 257.303 453.805C253.902 456.587 250.444 459.31 246.951 461.99C232.995 472.739 218.432 482.777 203.505 492.278C196.041 497.029 188.478 501.646 180.833 506.129C173.671 510.339 166.445 514.454 159.108 518.375L149.981 517.132C149.981 517.132 152.135 517.521 155.933 518.208L152.77 537.623L152.551 537.713L144.585 536.628C144.585 536.628 147.278 537.115 151.956 537.958L151.734 538.051L153.977 539.168C166.602 545.462 179.062 552.15 191.15 559.394C203.242 566.629 214.933 574.548 226.065 582.996C227.454 584.057 228.836 585.118 230.194 586.203C231.558 587.285 232.875 588.408 234.202 589.514C236.815 591.749 239.358 594.11 241.394 596.65C241.635 596.97 241.894 597.287 242.101 597.613L242.249 597.834C241.113 598.643 239.898 599.364 238.639 600.012C235.405 601.677 231.919 602.905 228.389 603.954C224.853 605 221.24 605.831 217.602 606.536C210.657 607.908 203.606 608.798 196.528 609.39L191.437 608.696C191.437 608.696 192.567 608.9 194.554 609.258L192.887 619.491L188.611 618.908C188.611 618.908 194.588 619.987 203.304 621.561L205.063 621.962L207.059 622.419L209.034 622.963C210.348 623.328 211.666 623.686 212.983 624.03C214.291 624.409 215.587 624.834 216.889 625.234L218.839 625.844C219.49 626.05 220.123 626.298 220.765 626.522L224.609 627.906C229.703 629.827 234.671 632.051 239.493 634.552L241.298 635.493C241.897 635.813 242.48 636.16 243.072 636.489C243.662 636.826 244.257 637.149 244.84 637.502L246.578 638.562C248.327 639.632 250.046 640.759 251.706 641.963C251.888 642.621 251.993 642.955 251.993 642.955L257.188 643.75C256.5 639.438 255.933 635.183 255.467 630.975C264.211 632.553 270.249 633.641 270.373 633.659L270.947 630.123L268.296 629.762L265.772 625.871L270.493 622.963C272.181 623.268 273.15 623.441 273.196 623.447L273.773 619.912L254.307 617.261C253.048 595.595 254.59 575.462 257.895 557.084C281.968 561.429 300.373 564.746 300.669 564.791L301.767 558.04L296.71 557.35L291.891 549.921L300.903 544.368C304.125 544.948 305.973 545.28 306.065 545.292L307.164 538.541L263.541 532.597C280.919 471.072 315.624 434.775 315.624 434.775L322.079 395.122C303.557 420.018 289.413 443.904 278.669 466.356C277.815 467.184 276.951 468.006 276.071 468.807C271.169 473.259 265.942 477.365 260.527 481.22C249.691 488.931 238.234 495.807 226.541 502.262C223.603 503.855 220.681 505.477 217.729 507.04C214.779 508.612 211.804 510.145 208.83 511.678C202.884 514.75 196.877 517.715 190.833 520.608C189.697 521.148 188.559 521.686 187.42 522.221L159.216 518.378C174.677 510.88 189.777 502.662 204.584 493.96ZM158.543 518.686C158.272 518.829 158.006 518.979 157.735 519.122L157.827 518.557C158.059 518.596 158.303 518.641 158.543 518.686ZM250.894 551.116L239.558 549.571C237.127 548.044 232.903 544.706 234.146 540.486C235.353 536.422 239.864 534.608 242.619 533.861C246.476 534.557 250.283 535.245 254.004 535.917C252.792 541.135 251.761 546.206 250.894 551.116ZM187.997 535.75L188.741 537.065C188.29 536.79 187.84 536.512 187.386 536.234L187.997 535.75ZM192.125 539.148L189.515 534.542L199.891 526.282L197.272 542.378C196.815 542.088 196.362 541.795 195.905 541.508C194.649 540.716 193.387 539.93 192.125 539.148ZM189.987 539.258L192.172 543.116L180.706 541.553L186.445 536.984C187.627 537.743 188.808 538.499 189.987 539.258ZM194.557 543.442L193.464 541.517C194.026 541.882 194.591 542.246 195.152 542.614C195.732 542.994 196.306 543.379 196.886 543.759L194.557 543.442ZM199.04 543.502L201.808 526.498C205.686 527.197 209.663 527.917 213.693 528.643C210.687 529.764 207.068 531.916 205.874 535.935C204.64 540.095 207.284 543.409 209.864 545.528L200.141 544.204C199.777 543.968 199.407 543.735 199.04 543.502ZM223.532 547.39L214.097 546.104C212.113 545.008 206.288 541.311 207.729 536.452C209.284 531.216 216.322 529.713 218.019 529.423C220.74 529.913 223.477 530.409 226.22 530.903L223.532 547.39ZM228.111 531.243C231.709 531.892 235.309 532.543 238.876 533.186C236.18 534.408 233.326 536.485 232.295 539.966C231.16 543.8 233.319 546.917 235.683 549.042L225.439 547.647L228.111 531.243ZM197.55 525.727L188.571 532.872L185.322 527.14C187.26 526.291 189.194 525.434 191.126 524.567C193.224 524.947 195.365 525.332 197.55 525.727ZM187.053 534.082L185.661 535.188C183.005 533.583 180.339 531.996 177.661 530.427C179.629 529.6 181.598 528.763 183.557 527.914L187.053 534.082ZM184.754 535.911L178.191 541.135L178.265 541.224L157.355 538.377C162.921 536.359 168.426 534.232 173.896 531.999C174.828 531.617 175.76 531.225 176.689 530.837C179.389 532.513 182.076 534.208 184.754 535.911ZM172.57 529.047C169.509 530.421 166.442 531.784 163.366 533.123C160.543 534.363 157.701 535.585 154.859 536.763L157.716 519.221C162.931 522.356 168.136 525.508 173.301 528.718C173.057 528.826 172.813 528.936 172.57 529.047ZM240.515 590.533C239.213 589.281 237.87 588.094 236.504 586.941C233.751 584.664 230.897 582.545 227.994 580.504C222.175 576.443 216.146 572.731 210.077 569.1C204.014 565.463 197.886 561.943 191.801 558.366L173.489 547.718C168.571 544.867 163.662 542.007 158.722 539.183C169.287 541.09 184.773 543.887 201.678 546.938C205.627 549.58 209.555 552.258 213.421 555.007C219.416 559.256 225.334 563.617 230.965 568.287C233.782 570.618 236.541 573.018 239.132 575.561C241.706 578.107 244.186 580.791 246.047 583.785C246.396 584.359 246.726 584.954 247.003 585.554C246.88 588.145 246.803 590.658 246.763 593.094C246.729 593.154 246.701 593.214 246.667 593.273C246.195 594.101 245.596 594.863 244.918 595.571C244.692 595.231 244.449 594.914 244.211 594.588C243.076 593.1 241.817 591.785 240.515 590.533ZM245.791 597L245.723 596.877C246.075 596.537 246.411 596.178 246.729 595.804C246.723 597.015 246.723 598.204 246.735 599.373C246.522 598.521 246.176 597.732 245.791 597ZM206.676 608.783C210.382 608.427 214.081 607.97 217.766 607.376C221.443 606.763 225.103 606.013 228.716 605.048C232.323 604.067 235.89 602.872 239.277 601.214C240.545 600.589 241.789 599.893 242.971 599.092C243.202 599.573 243.387 600.054 243.471 600.538C243.736 601.829 243.449 603.072 242.656 604.253C241.848 605.421 240.644 606.479 239.29 607.391C237.932 608.305 236.433 609.097 234.874 609.796C233.316 610.501 231.703 611.12 230.064 611.697C228.426 612.277 226.76 612.799 225.075 613.284L196.831 609.435C200.12 609.324 203.403 609.1 206.676 608.783ZM199.129 620.321L197.093 620.034C196.423 619.939 195.751 619.849 195.078 619.759C198.25 619.652 201.419 619.443 204.581 619.153C206.238 618.997 207.895 618.824 209.549 618.627L206.223 621.275L206.263 621.322L200.601 620.551C200.111 620.462 199.62 620.387 199.129 620.321ZM214.825 615.812C214.757 615.827 214.689 615.839 214.621 615.854L217.59 613.493L217.303 615.262C216.476 615.453 215.652 615.635 214.825 615.812ZM212.474 616.296C212.119 616.368 211.764 616.436 211.41 616.505L208.759 611.828C211.147 612.259 213.702 612.719 216.362 613.2L212.474 616.296ZM211.357 618.451L213.545 622.309L207.54 621.49L211.357 618.451ZM212.403 618.262C213.341 618.134 214.279 617.999 215.214 617.853C215.785 617.766 216.352 617.671 216.92 617.578L216.093 622.658L214.794 622.479L212.403 618.262ZM217.972 617.405C218.818 617.261 219.666 617.109 220.512 616.95C220.931 616.87 221.348 616.777 221.767 616.693C221.311 617.207 220.937 617.817 220.721 618.546C220.073 620.725 221.462 622.461 222.81 623.573L217.093 622.793L217.972 617.405ZM219.981 614.625C219.444 614.76 218.904 614.885 218.364 615.011L218.592 613.603C219.635 613.792 220.694 613.983 221.761 614.174C221.169 614.327 220.576 614.482 219.981 614.625ZM207.528 611.691L210.373 616.708C204.933 617.757 199.444 618.648 193.937 619.404L195.553 609.479C195.612 609.476 195.671 609.476 195.729 609.473C198.599 609.99 202.742 610.741 207.651 611.625L207.528 611.691ZM230.971 624.684L232.372 616.093C234.257 616.433 236.143 616.774 238.012 617.109C236.599 617.748 235.106 618.836 234.563 620.662C233.967 622.67 235.1 624.302 236.337 625.417L230.971 624.684ZM248.716 626.749L248.25 627.036L238.364 625.688C237.09 624.891 234.878 623.139 235.529 620.931C236.161 618.803 238.525 617.85 239.965 617.461C242.628 617.943 245.238 618.415 247.765 618.869C248.049 621.738 248.376 624.368 248.716 626.749ZM229.972 624.547L225.029 623.874C223.989 623.301 220.937 621.364 221.693 618.818C222.051 617.617 222.958 616.789 223.943 616.227C224.554 616.09 225.168 615.955 225.778 615.809C226.479 615.641 227.179 615.462 227.88 615.28C229.043 615.489 230.212 615.701 231.382 615.91L229.972 624.547ZM195.686 609.467C195.64 609.47 195.593 609.476 195.547 609.479L195.553 609.444C195.597 609.453 195.643 609.461 195.686 609.467ZM251.665 641.781C248.006 638.811 243.967 636.291 239.833 633.987C235.05 631.346 230.04 629.119 224.942 627.117L221.061 625.76C220.413 625.539 219.771 625.297 219.117 625.097L217.148 624.502C215.908 624.135 214.671 623.746 213.427 623.393C224.844 625.455 238.25 627.873 249.188 629.848C250.157 635.855 251.156 639.913 251.665 641.781ZM255.161 627.981C255.087 627.228 255.013 626.474 254.945 625.724L256.531 628.166L255.161 627.981ZM266.818 629.567L261.07 628.784L264.813 626.477L266.818 629.567ZM268.845 622.67L265.174 624.932L263.023 621.618C265.288 622.031 267.256 622.386 268.845 622.67ZM261.483 621.343L264.202 625.533L259.314 628.545L258.025 628.369L255.229 624.06L260.055 621.086C260.539 621.173 261.014 621.26 261.483 621.343ZM258.392 620.787L254.717 623.053C254.637 622.061 254.563 621.071 254.495 620.085C255.843 620.327 257.148 620.563 258.392 620.787ZM231.662 614.18C233.168 613.699 234.662 613.161 236.136 612.543C237.827 611.837 239.496 611.024 241.098 610.014C242.69 609.001 244.251 607.776 245.458 606.076C246.05 605.221 246.531 604.235 246.787 603.165C246.794 603.144 246.794 603.12 246.8 603.099C246.92 607.913 247.185 612.336 247.531 616.344L231.662 614.18ZM247.167 582.467C246.263 581.042 245.235 579.718 244.159 578.451C242.949 577.04 241.672 575.693 240.354 574.393C237.719 571.79 234.942 569.348 232.101 566.993C226.392 562.305 220.444 557.927 214.387 553.707C211.406 551.642 208.401 549.613 205.374 547.614C220.178 550.285 235.853 553.115 250.123 555.691C248.586 565.284 247.654 574.234 247.167 582.467ZM261.783 552.598L269.894 547.599L274.239 554.296L261.783 552.598ZM293.875 556.97L282.903 555.476L290.049 551.074L293.875 556.97ZM297.744 543.806L290.73 548.128L286.627 541.804C290.956 542.584 294.714 543.26 297.744 543.806ZM283.689 541.272L288.879 549.269L279.549 555.019L277.087 554.684L271.749 546.457L280.959 540.779C281.891 540.95 282.801 541.111 283.689 541.272ZM277.79 540.208L270.576 544.652L266.352 538.143C270.37 538.87 274.199 539.56 277.79 540.208ZM263.415 537.614L268.722 545.794L258.904 551.845C259.901 546.896 261.021 542.079 262.246 537.402C262.637 537.474 263.029 537.546 263.415 537.614ZM210.758 515.297C213.779 513.797 216.766 512.231 219.75 510.659C222.73 509.081 225.698 507.48 228.623 505.803C234.476 502.456 240.286 499.019 245.92 495.314C251.573 491.635 257.096 487.759 262.403 483.602C267.287 479.783 271.989 475.725 276.349 471.335C266.42 492.887 259.62 513.056 255.069 531.455L194.22 523.166C199.777 520.634 205.288 518.005 210.758 515.297ZM183.566 524.044L183.036 523.109C183.64 523.219 184.251 523.33 184.868 523.441C184.433 523.641 184.001 523.841 183.566 524.044ZM180.907 522.723L180.681 522.843L181.82 524.851C179.253 526.034 176.673 527.2 174.094 528.359C168.679 525.237 163.221 522.185 157.716 519.215L157.732 519.125C158.025 518.985 158.315 518.838 158.608 518.695C164.069 519.681 171.801 521.08 180.907 522.723Z" fill="url(#paint6_linear_4_177)"/>
<path d="M934.351 29.1331C930.131 19.8421 922.219 12.5953 912.405 9.03012L925.077 50.4552L947.097 57.1911L934.351 29.1331Z" fill="#3010B9"/>
<path d="M1012.34 78.8061C1010.33 77.0699 1007.94 75.7998 1005.37 75.0139L947.094 57.1911L925.073 50.4552L862.528 31.3235L852.938 12.7447L854.416 12.3861C856.487 11.884 856.758 9.14367 854.824 8.27105L837.542 0.459382C836.002 -0.236914 834.509 1.50233 835.496 2.84114L841.43 10.8859L845.265 53.617L912.334 72.8921C899.911 82.0276 872.121 101.924 872.121 101.924H887.289C893.626 101.924 899.803 100.06 905.012 96.5632C913.148 91.1034 925.505 82.8793 932.367 78.6507L1012.8 101.763C1016.87 102.934 1021.09 99.9849 1020.99 95.8699C1020.8 87.6309 1015.98 81.941 1012.34 78.8061Z" fill="#3D13C9"/>
<path d="M784.707 1133.29C789.936 1135.96 796.061 1136.47 801.692 1134.72L781.084 1120.71L768.909 1125.21L784.707 1133.29Z" fill="#3010B9"/>
<path d="M732.235 1137.82C733.756 1137.91 735.271 1137.66 736.694 1137.13L768.912 1125.21L781.087 1120.71L815.669 1107.91L826.638 1112.87L826.113 1113.53C825.379 1114.45 826.252 1115.76 827.425 1115.48L837.894 1113.07C838.829 1112.85 838.856 1111.57 837.934 1111.32L832.398 1109.78L815.225 1092.19L778.591 1106.46C780.772 1098.2 785.854 1079.96 785.854 1079.96L779.15 1085.12C776.348 1087.27 774.293 1090.19 773.256 1093.51C771.636 1098.69 769.153 1106.52 767.65 1110.72L723.722 1127.83C721.498 1128.7 720.702 1131.44 722.235 1133.23C725.299 1136.8 729.489 1137.68 732.235 1137.82Z" fill="#3D13C9"/>
<path d="M202.079 732.918L194.473 717.265L184.841 719.548L184.356 719.662L183.033 719.975L167.183 724.834C157.898 727.123 148.08 724.595 141.095 718.221C132.002 709.922 120.117 706.112 108.738 709.071C89.5523 714.058 79.068 736.397 85.3222 758.962C91.5764 781.527 112.203 795.776 131.388 790.788C143.86 787.546 152.65 776.97 155.557 763.77C157.457 755.146 163.881 748.15 172.585 745.684L188.559 739.926L189.321 739.6L202.079 732.918ZM167.732 725.45L181.021 721.413L181.946 723.684L168.185 727.091L167.732 725.45ZM168.522 728.298L182.425 724.855L183.949 728.6L169.589 732.156L168.522 728.298ZM169.922 733.354L184.424 729.762L186.55 734.983L171.265 738.193L169.922 733.354ZM173.1 744.818L171.598 739.397L187.028 736.154L188.324 739.337L173.1 744.818Z" fill="#3D13C9"/>
<path d="M1085.06 841.433C1108.73 800.88 1119.95 743.649 1123.39 723.095C1124.12 718.759 1121.23 714.629 1116.81 713.652L1045.92 697.981C1043.38 697.416 1040.89 699.101 1040.57 701.615C1040.41 702.789 1040.24 703.975 1040.06 705.168L1082.59 713.676C1084.45 714.049 1085.62 715.848 1085.15 717.632L1083.27 724.819C1082.83 726.49 1081.12 727.536 1079.37 727.192L1037.37 718.944C1036.92 720.86 1036.44 722.784 1035.93 724.718C1038.5 725.193 1040.91 726.514 1042.69 728.636C1046.66 733.402 1045.89 740.389 1040.97 744.241C1037.62 746.862 1033.21 747.349 1029.48 745.894C1023.95 761.956 1017.31 777.49 1011.3 790.373C1013.14 791.15 1014.82 792.345 1016.17 793.959C1020.64 799.323 1019.78 807.183 1014.24 811.513C1010.13 814.722 1004.62 815.09 1000.21 812.881C999.448 814.343 998.748 815.676 998.119 816.856C996.196 820.469 997.597 824.895 1001.27 826.858L1018.07 835.844C1025.49 839.813 1034.81 837.667 1039.6 830.89L1075.44 844.675C1079.04 846.062 1083.16 844.693 1085.06 841.433ZM1103.49 774.965L1099.36 786.832C1098.98 787.922 1097.75 788.511 1096.63 788.14L1084.38 784.136C1083.25 783.768 1082.64 782.582 1083.02 781.491L1087.16 769.624C1087.54 768.534 1088.76 767.945 1089.89 768.316L1102.14 772.32C1103.27 772.688 1103.87 773.871 1103.49 774.965ZM1110.81 752.552L1107.3 764.607C1106.97 765.716 1105.78 766.364 1104.64 766.05L1092.19 762.652C1091.05 762.339 1090.38 761.185 1090.7 760.076L1094.21 748.021C1094.53 746.913 1095.72 746.267 1096.87 746.578L1109.32 749.976C1110.46 750.289 1111.13 751.443 1110.81 752.552ZM1102.78 720.558L1115.23 723.956C1116.37 724.27 1117.04 725.423 1116.72 726.532L1113.21 738.587C1112.89 739.696 1111.7 740.341 1110.55 740.03L1098.1 736.633C1096.96 736.319 1096.29 735.165 1096.61 734.057L1100.12 722.001C1100.44 720.89 1101.64 720.244 1102.78 720.558ZM1059.33 748.957L1062.84 736.901C1063.17 735.793 1064.36 735.147 1065.5 735.458L1077.95 738.856C1079.09 739.17 1079.76 740.323 1079.44 741.432L1075.93 753.487C1075.61 754.596 1074.42 755.244 1073.27 754.931L1060.82 751.533C1059.68 751.219 1059.01 750.065 1059.33 748.957ZM1051.65 770.369L1055.79 758.502C1056.17 757.411 1057.39 756.822 1058.52 757.193L1070.77 761.197C1071.9 761.565 1072.51 762.751 1072.13 763.842L1067.99 775.709C1067.61 776.8 1066.39 777.388 1065.26 777.018L1053.01 773.013C1051.88 772.646 1051.27 771.462 1051.65 770.369ZM1042.91 792.734L1047.56 781.046C1047.99 779.97 1049.24 779.435 1050.35 779.848L1062.41 784.351C1063.52 784.767 1064.08 785.974 1063.65 787.05L1059 798.737C1058.57 799.813 1057.33 800.348 1056.21 799.936L1044.15 795.432C1043.04 795.017 1042.48 793.81 1042.91 792.734ZM1045.99 821.811L1034.26 816.518C1033.18 816.031 1032.72 814.788 1033.22 813.745L1038.69 802.392C1039.19 801.346 1040.47 800.895 1041.55 801.382L1053.27 806.675C1054.35 807.162 1054.82 808.405 1054.31 809.448L1048.85 820.801C1048.35 821.844 1047.07 822.298 1045.99 821.811ZM1074.28 803.854L1078.93 792.166C1079.36 791.09 1080.6 790.555 1081.71 790.968L1093.78 795.471C1094.89 795.886 1095.44 797.094 1095.02 798.17L1090.37 809.857C1089.94 810.933 1088.69 811.468 1087.58 811.055L1075.51 806.552C1074.4 806.137 1073.85 804.929 1074.28 803.854ZM1077.35 832.931L1065.63 827.638C1064.55 827.151 1064.09 825.908 1064.59 824.865L1070.05 813.512C1070.56 812.466 1071.84 812.015 1072.92 812.502L1084.64 817.794C1085.72 818.281 1086.18 819.525 1085.68 820.568L1080.22 831.921C1079.71 832.964 1078.43 833.418 1077.35 832.931Z" fill="#3D13C9"/>
<path d="M1038.16 741.991C1034.47 744.88 1029.06 744.328 1026.07 740.754C1023.09 737.179 1023.66 731.941 1027.35 729.051C1031.04 726.161 1036.45 726.717 1039.43 730.288C1042.42 733.862 1041.85 739.101 1038.16 741.991Z" fill="#3D13C9"/>
<path d="M1010.56 808.199C1006.87 811.088 1001.46 810.533 998.477 806.961C995.493 803.387 996.067 798.149 999.754 795.259C1003.44 792.369 1008.85 792.925 1011.84 796.496C1014.82 800.07 1014.25 805.309 1010.56 808.199Z" fill="#3D13C9"/>
</g>
<path opacity="0.6" d="M704 168.237C704 146.44 688.252 128.362 667.528 124.655C667.748 122.795 667.891 120.915 667.891 118.997C667.891 92.707 646.583 71.3954 620.297 71.3954C609.365 71.3954 599.326 75.1223 591.29 81.3188C585.944 53.2403 561.305 32 531.676 32C498.139 32 470.954 59.1905 470.954 92.7329C470.954 101.755 472.975 110.292 476.507 117.992C474.161 117.609 471.77 117.357 469.314 117.357C444.843 117.357 425 137.197 425 161.678C425 171.537 428.26 180.611 433.697 187.968L433.664 188H433.723H504.899H620.064H699.308H700.682C700.682 188 700.358 187.637 699.788 187.002C702.464 181.298 704 174.952 704 168.237Z" fill="url(#paint7_linear_4_177)"/>
<path opacity="0.6" d="M1124.75 559.179C1124.75 554.762 1121.46 551.098 1117.12 550.345C1117.16 549.969 1117.2 549.586 1117.2 549.197C1117.2 543.869 1112.74 539.551 1107.24 539.551C1104.95 539.551 1102.85 540.307 1101.16 541.562C1100.05 535.872 1094.89 531.566 1088.69 531.566C1081.67 531.566 1075.98 537.077 1075.98 543.875C1075.98 545.704 1076.4 547.434 1077.14 548.994C1076.65 548.917 1076.15 548.866 1075.63 548.866C1070.51 548.866 1066.36 552.888 1066.36 557.849C1066.36 559.848 1067.04 561.686 1068.18 563.177L1068.17 563.183H1068.18H1083.08H1107.18H1123.77H1124.05C1124.05 563.183 1123.99 563.108 1123.87 562.98C1124.43 561.823 1124.75 560.538 1124.75 559.179Z" fill="url(#paint8_linear_4_177)"/>
<path opacity="0.6" d="M1024.56 1149.38C1024.56 1142.09 1019.12 1136.03 1011.95 1134.79C1012.02 1134.17 1012.07 1133.54 1012.07 1132.89C1012.07 1124.09 1004.71 1116.95 995.616 1116.95C991.837 1116.95 988.365 1118.2 985.585 1120.28C983.737 1110.88 975.218 1103.76 964.971 1103.76C953.376 1103.76 943.975 1112.87 943.975 1124.1C943.975 1127.12 944.675 1129.98 945.894 1132.56C945.083 1132.43 944.256 1132.34 943.407 1132.34C934.944 1132.34 928.085 1138.99 928.085 1147.18C928.085 1150.48 929.211 1153.52 931.093 1155.99L931.081 1156H931.099H955.712H995.533H1022.93H1023.41C1023.41 1156 1023.3 1155.88 1023.1 1155.67C1024.03 1153.76 1024.56 1151.63 1024.56 1149.38Z" fill="url(#paint9_linear_4_177)"/>
<path opacity="0.6" d="M250.866 168.691C250.866 161.241 245.31 155.064 237.994 153.797C238.071 153.16 238.123 152.518 238.123 151.863C238.123 142.88 230.604 135.595 221.329 135.595C217.472 135.595 213.927 136.868 211.092 138.986C209.207 129.391 200.512 122.132 190.055 122.132C178.219 122.132 168.627 131.423 168.627 142.886C168.627 145.97 169.339 148.887 170.586 151.517C169.759 151.385 168.914 151.299 168.05 151.299C159.413 151.299 152.412 158.079 152.412 166.444C152.412 169.812 153.56 172.914 155.483 175.43L155.47 175.442H155.492H180.611H221.252H249.216H249.7C249.7 175.442 249.586 175.316 249.385 175.101C250.326 173.153 250.866 170.986 250.866 168.691Z" fill="url(#paint10_linear_4_177)"/>
<path opacity="0.6" d="M436.735 946.52C436.735 931.144 425.263 918.387 410.166 915.772C410.326 914.46 410.434 913.133 410.434 911.779C410.434 893.233 394.911 878.199 375.763 878.199C367.799 878.199 360.484 880.826 354.63 885.198C350.737 865.388 332.785 850.407 311.199 850.407C286.769 850.407 266.963 869.589 266.963 893.251C266.963 899.617 268.435 905.638 271.008 911.068C269.299 910.796 267.559 910.62 265.769 910.62C247.941 910.62 233.489 924.618 233.489 941.885C233.489 948.839 235.862 955.24 239.827 960.434L239.802 960.457H239.842H291.693H375.59H433.319H434.319C434.319 960.457 434.081 960.197 433.671 959.752C435.615 955.73 436.735 951.256 436.735 946.52Z" fill="url(#paint11_linear_4_177)"/>
<path opacity="0.6" d="M1240 269.05C1240 252.752 1227.84 239.232 1211.84 236.459C1212.01 235.069 1212.12 233.662 1212.12 232.227C1212.12 212.57 1195.66 196.633 1175.37 196.633C1166.93 196.633 1159.17 199.418 1152.97 204.053C1148.84 183.056 1129.82 167.173 1106.93 167.173C1081.04 167.173 1060.04 187.506 1060.04 212.588C1060.04 219.335 1061.6 225.719 1064.33 231.474C1062.52 231.187 1060.67 230.999 1058.78 230.999C1039.88 230.999 1024.56 245.837 1024.56 264.14C1024.56 271.51 1027.07 278.296 1031.27 283.801L1031.25 283.825H1031.29H1086.25H1175.18H1236.37H1237.44C1237.44 283.825 1237.18 283.55 1236.75 283.078C1238.81 278.813 1240 274.071 1240 269.05Z" fill="url(#paint12_linear_4_177)"/>
<path opacity="0.6" d="M1224.95 763.63C1224.95 753.111 1217.11 744.381 1206.77 742.594C1206.88 741.698 1206.95 740.789 1206.95 739.863C1206.95 727.174 1196.33 716.888 1183.23 716.888C1177.78 716.888 1172.78 718.687 1168.78 721.679C1166.11 708.126 1153.83 697.873 1139.06 697.873C1122.35 697.873 1108.8 710.998 1108.8 727.186C1108.8 731.543 1109.8 735.661 1111.56 739.376C1110.4 739.191 1109.2 739.068 1107.98 739.068C1095.78 739.068 1085.89 748.646 1085.89 760.459C1085.89 765.217 1087.52 769.598 1090.23 773.148L1090.21 773.163H1090.24H1125.72H1183.12H1222.62H1223.3C1223.3 773.163 1223.14 772.986 1222.86 772.682C1224.18 769.932 1224.95 766.872 1224.95 763.63Z" fill="url(#paint13_linear_4_177)"/>
<path opacity="0.6" d="M318.046 1022.14C318.046 999.271 300.098 980.297 276.47 976.406C276.719 974.455 276.886 972.483 276.886 970.469C276.886 942.883 252.594 920.52 222.631 920.52C210.169 920.52 198.725 924.429 189.564 930.932C183.471 901.469 155.384 879.182 121.604 879.182C83.3722 879.182 52.3819 907.715 52.3819 942.909C52.3819 952.38 54.6867 961.333 58.7101 969.411C56.035 969.007 53.3106 968.744 50.5121 968.744C22.6133 968.744 0 989.564 0 1015.25C0 1025.59 3.71181 1035.11 9.91667 1042.84L9.87965 1042.87H9.94445H91.0828H222.366H312.699H314.263C314.263 1042.87 313.893 1042.49 313.248 1041.83C316.297 1035.84 318.046 1029.18 318.046 1022.14Z" fill="url(#paint14_linear_4_177)"/>
<path d="M643.42 1019.54C861.837 1019.54 1038.9 848.046 1038.9 636.501C1038.9 424.955 861.837 253.463 643.42 253.463C425.003 253.463 247.941 424.955 247.941 636.501C247.941 848.046 425.003 1019.54 643.42 1019.54Z" fill="url(#paint15_linear_4_177)"/>
<path d="M343.057 452.254C355.572 442.557 360.579 411.041 385.608 394.07C404.547 381.229 394.831 355.908 388.978 343.288C338.268 384.612 298.435 438.041 274.22 498.989C285.427 494.827 288.006 488.614 305.513 486.193C323.035 483.77 330.542 461.951 343.057 452.254Z" fill="url(#paint16_linear_4_177)"/>
<path d="M410.641 912.867C390.616 910.444 370.592 891.049 350.567 864.38C330.542 837.712 360.579 815.894 358.077 798.926C355.575 781.955 330.542 760.136 333.048 738.318C335.55 716.5 310.521 716.5 287.994 706.802C275.451 701.402 262.135 698.262 252.795 696.534C271.298 810.377 341.57 907.557 439.542 964.761C441.718 961.228 443.183 957.556 443.183 954.08C443.18 941.959 430.665 915.291 410.641 912.867Z" fill="url(#paint17_linear_4_177)"/>
<path d="M683.47 297.099C683.47 311.644 668.453 338.312 673.457 343.16C678.465 348.007 698.486 377.099 700.992 372.252C703.494 367.401 733.531 362.554 751.053 362.554C768.576 362.554 771.078 335.886 768.576 323.765C766.073 311.644 796.107 304.37 851.177 316.491C906.243 328.612 891.226 384.37 903.74 386.796C912.741 388.538 916.564 371.478 918.001 360.854C874.348 320.053 821.041 288.881 761.708 270.894C759.653 280.182 751.535 289.365 746.052 294.673C738.536 301.95 683.47 282.555 683.47 297.099Z" fill="url(#paint18_linear_4_177)"/>
<path d="M1038.12 612.707C1032.98 531.62 1001.82 457.361 952.593 397.665C946.573 390.364 940.282 383.285 933.737 376.432C933.793 377.266 936.19 413.521 928.767 418.315C921.257 423.162 868.696 408.617 841.161 411.041C813.63 413.465 756.058 413.465 746.046 401.344C736.033 389.223 700.992 381.949 695.984 379.525C690.98 377.102 673.457 403.767 660.943 408.617C648.428 413.465 630.643 414.549 628.403 413.465C623.399 411.041 598.366 449.83 588.354 457.101C578.342 464.375 580.844 478.919 580.844 478.919C580.844 478.919 560.819 527.406 565.827 537.1C570.832 546.798 573.337 558.919 573.337 566.192C573.337 573.466 598.366 588.011 615.889 597.708C633.411 607.405 680.967 648.618 695.984 643.768C711.001 638.921 786.092 636.494 788.597 641.345C791.1 646.192 791.1 711.65 798.61 716.497C806.12 721.344 753.556 813.467 758.56 825.588C763.565 837.709 743.543 866.801 748.548 881.346C753.553 895.89 743.543 917.708 748.548 924.982C753.553 932.256 768.573 961.345 768.573 966.195C768.573 971.042 833.651 929.832 853.676 929.832C873.701 929.832 926.264 837.709 946.289 818.314C966.314 798.92 961.306 748.009 978.828 726.191C996.351 704.373 1038.9 636.491 1038.9 636.491C1038.9 628.506 1038.62 620.578 1038.12 612.707Z" fill="url(#paint19_linear_4_177)"/>
<path d="M868.693 381.949C876.203 386.796 883.709 396.493 883.709 386.796C883.709 377.099 876.199 355.281 868.693 362.554C868.693 362.554 861.183 377.102 868.693 381.949Z" fill="#EFDDAF"/>
<path opacity="0.44" d="M837.872 595.359L983.728 638.828L1006.17 595.359L1039.83 602.606L1017.01 526.536H938.85L837.872 595.359Z" fill="url(#paint20_linear_4_177)"/>
<path d="M896.289 435.525L934.512 532.585L1017.01 468.983L896.289 435.525Z" fill="#E4C197"/>
<path d="M1017.01 468.983L934.512 532.585L1017.39 566.106L1017.01 468.983Z" fill="#D4A880"/>
<path d="M778.033 424.306L836.209 595.359L954.617 437.177L778.033 424.306Z" fill="#E4C197"/>
<path d="M954.617 437.177L836.209 595.359L983.728 571.213L954.617 437.177Z" fill="#D4A880"/>
<path opacity="0.44" d="M346.358 833.621L391.977 912.518C391.977 912.518 431.079 925.141 460.403 915.673C460.403 915.673 476.694 909.362 479.953 912.518C483.211 915.673 463.661 921.985 463.661 921.985C463.661 921.985 414.788 937.764 414.788 940.919C414.788 944.075 414.788 953.542 414.788 953.542C414.788 953.542 349.62 893.58 339.845 874.646L333.328 836.777L346.358 833.621Z" fill="url(#paint21_linear_4_177)"/>
<path d="M215.553 874.517L216.266 874.995C216.266 874.995 216.186 874.84 216.047 874.562L215.553 874.517Z" fill="#DEDEDE"/>
<path d="M208.012 890.296C213.758 892.728 225.677 884.723 225.819 884.899H225.828C224.853 883.826 225.748 881.187 223.449 876.735C223.14 876.134 222.292 874.508 218.849 874.514C217.994 874.64 217.133 874.792 216.269 874.998L202.832 879.959C202.69 882.514 203.279 888.291 208.012 890.296Z" fill="#EFF0F1"/>
<path d="M223.446 876.735C225.748 881.19 224.85 883.829 225.825 884.899C226.078 885.177 226.448 885.353 227.037 885.425C229.91 885.771 227.037 892.379 227.037 892.379L232.422 899.333C232.422 899.333 243.548 886.118 250.37 883.686C250.37 883.686 244.686 879.263 236.439 876.445C231.314 874.693 225.202 873.573 218.842 874.511C222.289 874.505 223.137 876.134 223.446 876.735Z" fill="#DEDEDE"/>
<path d="M227.037 885.425C226.448 885.353 226.078 885.177 225.825 884.899H225.819C225.674 884.72 213.755 892.728 208.012 890.293C203.279 888.288 202.69 882.511 202.829 879.953L201.191 880.557C196.164 884.729 197.244 895.508 202.628 898.986C208.016 902.462 222.014 893.072 222.014 893.072C222.579 894.163 224.02 894.504 225.038 893.786L227.04 892.376C227.04 892.376 229.91 885.774 227.037 885.425Z" fill="#E2E2E2"/>
<path d="M216.985 874.649L216.05 874.562C216.189 874.84 216.269 874.995 216.269 874.995C217.133 874.792 217.991 874.637 218.849 874.511C218.293 874.514 217.679 874.553 216.985 874.649Z" fill="#DEDEDE"/>
<path d="M243.912 907.676L256.118 922.627L256.608 923.144C263.125 913.611 263.097 903.46 263.097 903.46C264.35 910.24 261.434 918.494 258.299 924.931L260.752 927.522C271.564 915.608 269.759 900.373 269.759 900.373C272.85 910.447 266.701 924.991 263.887 930.833L267.966 935.143C271.915 946.269 277.661 945.226 277.661 945.226C277.661 945.226 279.814 954.615 284.483 948.008C289.148 941.4 273.711 930.624 273.711 930.624L271.197 927.495L280.53 909.066L270.117 897.594C272.628 892.029 265.806 880.557 265.806 880.557C265.806 880.557 244.986 890.643 234.575 903.508L243.912 907.676Z" fill="#F8F8F8"/>
<path d="M263.1 903.46C263.1 903.46 263.128 913.614 256.612 923.144L258.302 924.931C261.437 918.494 264.353 910.24 263.1 903.46Z" fill="#DEDEDE"/>
<path d="M269.759 900.373C269.759 900.373 271.564 915.608 260.752 927.522L263.887 930.833C266.704 924.994 272.853 910.447 269.759 900.373Z" fill="#DEDEDE"/>
<path d="M307.359 839.069H307.355L307.359 839.072V839.069Z" fill="#DEDEDE"/>
<path d="M202.844 836.015C212.931 834.323 228.469 841.265 228.469 841.265L229.188 840.919C229.188 840.919 224.52 831.879 224.881 830.836C225.239 829.793 214.109 830.836 213.394 831.185C212.675 831.532 206.572 833.621 206.572 833.621H201.814L202.844 836.015Z" fill="#DEDEDE"/>
<path d="M194.362 818.67C192.928 822.842 200.469 830.492 200.469 830.492L201.814 833.621H206.572L205.137 830.839C205.137 830.839 202.983 819.713 197.957 816.931C192.925 814.149 194.362 818.67 194.362 818.67Z" fill="#F1EFF1"/>
<path d="M202.844 836.015L209.444 851.351C209.123 860.08 214.859 872.153 216.05 874.559L216.985 874.646C217.679 874.55 218.293 874.511 218.846 874.511C225.205 873.573 231.317 874.693 236.442 876.445L307.022 839.248C306.676 838.94 306.34 838.677 306.016 838.477C306.016 838.477 306.503 838.639 307.361 839.069L307.364 839.072C309.376 840.085 313.443 842.61 318.225 848.213L326.84 844.042L326.121 842.652L326.84 842.305C326.84 842.305 305.658 825.618 294.168 824.228L292.014 823.532L280.885 829.793L277.296 828.054L268.682 833.965L267.963 832.575L241.397 847.182C237.809 843.707 229.191 840.925 229.191 840.925L228.472 841.271C228.472 841.271 212.928 834.326 202.844 836.015Z" fill="#F1EFF1"/>
<path d="M306.013 838.477C306.337 838.677 306.673 838.94 307.019 839.248L307.355 839.069C306.5 838.638 306.013 838.477 306.013 838.477Z" fill="#DEDEDE"/>
<path d="M326.834 842.302L346.22 832.913C346.935 809.965 325.754 805.446 325.754 805.446L294.165 824.225C305.652 825.615 326.834 842.302 326.834 842.302Z" fill="#DEDEDE"/>
<path d="M236.439 876.445C244.686 879.263 250.37 883.686 250.37 883.686C243.548 886.121 232.422 899.333 232.422 899.333L234.575 903.505C244.986 890.639 265.806 880.554 265.806 880.554L315.704 852.038C315.704 852.038 310.866 842.67 307.016 839.248L236.439 876.445Z" fill="white"/>
<path d="M307.358 839.072L307.355 839.069L307.019 839.248C310.866 842.67 315.707 852.038 315.707 852.038L318.219 848.213C313.436 842.607 309.37 840.085 307.358 839.072Z" fill="#DEDEDE"/>
<path d="M212.857 888.383C212.949 887.693 212.875 887.003 212.638 886.387C212.52 886.079 212.372 885.789 212.181 885.523C212.002 885.251 211.764 885.024 211.533 884.797L211.209 884.475L211.622 884.256C213.739 883.142 215.899 882.111 218.124 881.205L217.982 881.426C218 881.053 217.966 880.643 217.864 880.27C217.759 879.893 217.547 879.538 217.161 879.34C217.596 879.415 217.945 879.78 218.136 880.165C218.346 880.56 218.447 880.978 218.494 881.426L218.506 881.561L218.352 881.647C216.269 882.828 214.122 883.886 211.931 884.857L212.02 884.319C212.539 884.866 212.931 885.547 213.07 886.27C213.215 886.991 213.144 887.741 212.857 888.383Z" fill="#DEDEDE"/>
<path d="M210.647 882.093C210.518 881.794 210.401 881.552 210.283 881.319C210.16 881.092 210.049 880.873 209.907 880.673C209.771 880.467 209.629 880.264 209.466 880.055C209.305 879.839 209.123 879.627 208.95 879.343C209.617 879.337 210.219 879.717 210.586 880.261C210.931 880.808 211.036 881.549 210.647 882.093Z" fill="#DEDEDE"/>
<path opacity="0.44" d="M385.393 416.041L346.503 420.852L340.274 450.413L349.077 470.298C347.574 470.878 348.709 473.259 351.178 476.439C358.046 485.291 375.315 500.382 375.315 500.382C374.911 501.293 376.068 503.834 378.058 507.163C384.47 517.903 399.616 536.963 399.616 536.963C398.904 538.093 399.376 539.856 400.585 541.995C402.424 545.256 405.973 549.401 409.7 553.581C411.881 556.029 414.118 558.485 416.108 560.78C418.487 563.527 420.511 566.043 421.644 568.033C424.14 572.414 429.061 574.799 433.757 576.323C438.04 577.713 442.134 578.385 444.032 579.174C444.467 579.353 444.917 579.754 445.374 580.274C446.509 581.562 447.685 583.731 448.78 586.164C449.678 588.163 450.511 590.309 451.221 592.254C452.489 595.742 453.341 598.563 453.341 598.563C453.341 598.563 453.307 599.002 453.276 599.68C453.226 600.813 453.195 602.669 453.378 604.65C453.476 605.75 453.64 606.876 453.902 607.925C454.923 612.002 462.878 615.313 462.878 615.313C462.646 617.954 465.935 627.538 465.935 627.538C467.975 635.688 481.258 656.735 481.258 656.735L478.53 656.514L477.281 655.082L472.844 658.713L474.093 660.145L473.865 662.786L475.562 664.732L477.614 667.084L480.113 669.95L481.131 674.026C484.032 679.118 486.802 679.763 488.533 679.494C487.864 680.385 487.364 681.371 487.265 682.51C486.805 687.796 491.804 693.525 498.968 690.118C506.136 686.711 508.632 689.574 508.632 689.574C508.632 689.574 508.863 686.933 506.133 686.708C506.133 686.708 514.318 687.375 516.028 683.523C517.737 679.671 521.714 681.326 521.714 681.326C521.714 681.326 515.466 674.163 511.029 677.794C506.602 681.416 503.316 671.886 497.654 674.029C497.055 671.016 492.964 664.343 492.964 664.343L482.288 627.664L488.644 622.464C488.944 622.539 489.271 622.569 489.626 622.557L487.191 635.927L492.547 621.726L494.127 635.162L494.238 620.297C494.328 620.217 494.399 620.103 494.485 620.016C494.877 619.852 495.269 619.682 495.664 619.487L504.254 629.337L498.157 618.071C499.218 617.396 500.273 616.64 501.31 615.791C502.584 614.748 503.442 613.508 504.007 612.139L512.797 610.077L504.707 609.417C504.982 607.256 504.713 604.895 504.093 602.472L512.699 595.431L503.405 600.15C502.078 596.202 500.042 592.242 498.151 588.922C493.384 580.549 487.925 580.103 487.925 580.103L489.635 576.251C494.072 572.62 485.584 528.016 472.072 509.613C458.558 491.211 445.704 496.817 445.704 496.817L397.608 432.393L398.126 427.728L390.4 421.775L390.403 422.744L385.393 416.041ZM477.66 603.216L480.159 606.082L479.928 608.723C479.872 609.357 479.977 610.164 480.144 611.009H480.132L480.196 611.32C480.758 613.935 481.967 616.873 481.967 616.873C482.439 617.805 483.007 618.564 483.64 619.186L481.622 620.838L484.791 620.094C485.303 620.423 485.84 620.689 486.417 620.877C486.589 621.116 486.79 621.367 487.052 621.603C485.55 623.25 483.473 625.712 482.165 627.278L480.258 620.725L477.66 603.216Z" fill="url(#paint22_linear_4_177)"/>
<path d="M386.593 405.722L387.577 405.883L382.767 397.53L377.932 397.27L386.593 405.722Z" fill="#84BBE8"/>
<path d="M211.481 316.004C213.468 316.497 215.365 316.769 216.525 316.907C216.174 306.659 204.498 293.403 204.498 293.403C211.357 303.498 212.178 312.266 211.481 316.004Z" fill="#84BBE8"/>
<path d="M209.743 296.466C218.179 303.668 222.489 315.923 223.761 320.077C225.63 321.069 227.679 322.214 229.571 323.397C230.323 311.728 209.743 296.466 209.743 296.466Z" fill="#84BBE8"/>
<path d="M160.432 278.051C158.528 284.557 151.811 282.71 151.811 282.71L153.875 285.053C161.092 283.625 160.432 278.051 160.432 278.051Z" fill="#84BBE8"/>
<path d="M152.243 277.424C151.203 273.354 141.971 268.656 141.971 268.656C141.971 268.656 137.553 272.308 145.31 278.225L149.296 279.862C149.296 279.862 153.283 281.494 152.243 277.424Z" fill="#D7EFFD"/>
<path d="M229.46 307.29C234.989 317.385 235.384 324.159 235.016 327.608C235.47 328.128 235.806 328.624 235.917 329.069C236.414 331.009 236.436 335.034 237.155 339.352C243.137 325.492 229.46 307.29 229.46 307.29Z" fill="#84BBE8"/>
<path d="M297.269 317.812C297.269 317.812 301.687 314.16 304.418 314.369C307.148 314.579 305.026 323.729 300.823 324.736C299.641 325.02 298.154 324.957 296.608 324.7L299.536 330.402C306.266 335.291 318.207 342.974 317.593 337.996C316.769 331.281 308.62 313.365 303.378 310.302C298.815 307.637 291.702 310.816 289.928 311.689L292.233 316.177L297.269 317.812Z" fill="#74ADDF"/>
<path d="M206.837 281.611L209.784 279.175C209.784 279.175 216.501 281.022 220.703 280.012C224.905 279.005 228.676 283.284 231.406 283.493C234.137 283.702 239.163 289.41 243.366 288.4C243.366 288.4 242.934 293.687 232.662 284.919C232.662 284.919 225.729 285.717 223.218 282.863C223.218 282.863 228.244 288.568 228.028 291.212C227.812 293.857 223.394 297.509 223.394 297.509C223.394 297.509 227.596 296.502 229.068 295.283C230.539 294.066 230.758 291.421 230.758 291.421L239.555 301.409L241.027 300.192C241.027 300.192 249 303.465 250.472 302.248L355.84 396.072L377.929 397.267L320.104 340.844C320.104 340.844 327.901 329.47 311.348 313.568C294.794 297.667 250.728 282.313 246.309 285.965L242.107 286.972C242.107 286.972 242.539 281.685 234.782 275.768C227.025 269.851 215.282 262.3 207.917 268.387C200.552 274.474 197.173 282.193 203.674 286.685C203.674 286.685 206.473 288.317 209.043 289.279L209.348 289.389C209.348 289.395 210.607 285.89 206.837 281.611ZM287.79 321.622C287.614 321.341 287.478 321.147 287.389 321.045C286.905 320.496 286.457 319.554 286.17 318.538L277.985 301.702L283.659 299.478L289.925 311.689C291.696 310.816 298.811 307.64 303.375 310.302C308.617 313.365 316.766 331.281 317.589 337.996C318.2 342.974 306.26 335.291 299.533 330.402L304.982 341.02L299.305 343.246C299.305 343.246 290.098 325.298 287.79 321.622Z" fill="#84BBE8"/>
<path d="M330.431 416.13C326.877 409.206 319.512 415.293 320.16 407.362C320.808 399.431 323.97 394.354 323.97 394.354L355.84 396.078L250.472 302.254C249 303.471 241.027 300.198 241.027 300.198L239.555 301.415L230.758 291.427C230.758 291.427 230.543 294.072 229.068 295.288C227.596 296.505 223.394 297.515 223.394 297.515C223.394 297.515 227.812 293.863 228.028 291.218C228.244 288.574 223.218 282.869 223.218 282.869C225.729 285.723 232.662 284.925 232.662 284.925C242.934 293.693 243.366 288.406 243.366 288.406C239.163 289.413 234.137 283.708 231.406 283.499C228.676 283.29 224.905 279.011 220.703 280.018C216.501 281.025 209.784 279.181 209.784 279.181L206.837 281.617C210.607 285.896 209.348 289.401 209.348 289.401L209.043 289.291C209.993 289.646 210.91 289.912 211.647 289.969L214.378 290.178L216.892 293.032L199.475 287.707L157.096 268.495C157.096 268.495 148.084 261.152 146.609 262.368L145.353 260.943L139.463 265.811L141.977 268.665C141.977 268.665 151.206 273.363 152.249 277.433C153.289 281.503 149.302 279.868 149.302 279.868L151.817 282.722C151.817 282.722 158.534 284.569 160.438 278.063C160.438 278.063 161.098 283.637 153.881 285.065L155.587 287.002L158.318 287.211L159.574 288.636L163.986 284.976L162.73 283.55L162.946 280.905C162.946 280.905 182.23 297.016 190.203 300.288C190.203 300.288 199.432 304.986 202.162 305.195C202.162 305.195 204.245 313.335 208.228 314.973C209.253 315.394 210.376 315.732 211.481 316.004C212.178 312.263 211.357 303.498 204.501 293.403C204.501 293.403 216.177 306.659 216.528 316.907C217.226 316.99 217.679 317.026 217.679 317.026C217.679 317.026 220.416 318.299 223.764 320.074C222.493 315.92 218.182 303.665 209.747 296.463C209.747 296.463 230.327 311.725 229.571 323.394C231.872 324.835 233.89 326.311 235.02 327.605C235.384 324.156 234.992 317.382 229.463 307.287C229.463 307.287 243.144 325.489 237.161 339.346C237.951 344.083 239.58 349.175 243.64 352.271C245.485 353.679 247.719 356.022 250.132 358.741C250.117 356.575 249.685 353.278 248.059 348.619C244.72 339.054 246.627 332.548 245.803 325.833C244.979 319.118 237.654 307.914 237.654 307.914C237.654 307.914 248.966 320.753 249.79 327.467C250.613 334.182 248.494 343.33 251.005 346.184C253.165 348.634 258.546 361.144 256.426 366.033C260.08 370.273 263.73 374.341 266.75 376.627C268.176 375.736 269.305 374.167 268.167 371.445C265.868 365.946 258.114 360.032 260.234 350.882C262.357 341.734 253.776 329.102 255.248 327.886C256.72 326.67 251.301 308.96 251.301 308.96C251.301 308.96 258.194 325.45 257.978 328.095C257.762 330.74 264.871 344.585 264.439 349.874C264.007 355.164 266.087 363.304 267.346 364.73C268.602 366.155 273.196 377.15 271.724 378.369C271.724 378.369 288.685 395.938 298.586 403.809C299.274 403.277 299.546 402.27 298.765 400.396C296.466 394.901 273.847 369.221 275.535 365.36C277.222 361.499 268.25 336.869 265.954 331.37C263.659 325.875 255.291 310.601 255.291 310.601C255.291 310.601 269.938 333.008 270.981 337.078C272.02 341.148 278.913 357.638 278.697 360.283C278.481 362.928 277.833 370.859 286.846 378.201C295.859 385.544 308.21 402.452 305.05 407.533C305.05 407.533 317.62 426.485 325.525 434.488C327.679 431.222 333.335 421.787 330.431 416.13Z" fill="#CAE4F6"/>
<path d="M250.999 346.187C248.484 343.333 250.607 334.185 249.783 327.471C248.96 320.756 237.648 307.917 237.648 307.917C237.648 307.917 244.973 319.121 245.797 325.836C246.621 332.551 244.717 339.057 248.052 348.622C249.679 353.281 250.107 356.577 250.126 358.744C252.144 361.018 254.282 363.555 256.42 366.039C258.54 361.147 253.159 348.637 250.999 346.187Z" fill="#84BBE8"/>
<path d="M355.84 396.075L323.97 394.351C323.97 394.351 320.808 399.428 320.16 407.359C319.512 415.29 326.877 409.203 330.431 416.127C333.335 421.784 327.682 431.219 325.513 434.482C328.352 437.354 330.595 438.827 331.431 437.485C331.431 437.485 336.713 423.258 337.145 417.971C337.577 412.685 328.133 410.629 324.146 408.994C320.16 407.359 325.226 395.776 325.226 395.776L386.593 405.719L377.932 397.267L355.84 396.075Z" fill="#84BBE8"/>
<path d="M267.337 364.733C266.081 363.307 263.998 355.164 264.43 349.878C264.862 344.591 257.753 330.743 257.969 328.098C258.185 325.453 251.292 308.963 251.292 308.963C251.292 308.963 256.71 326.67 255.239 327.889C253.767 329.105 262.347 341.737 260.225 350.885C258.102 360.035 265.859 365.949 268.157 371.448C269.296 374.17 268.167 375.739 266.741 376.63C268.728 378.133 270.444 378.868 271.712 378.372C273.187 377.156 268.592 366.161 267.337 364.733Z" fill="#84BBE8"/>
<path d="M286.837 378.201C277.824 370.859 278.472 362.928 278.688 360.283C278.904 357.638 272.011 341.148 270.971 337.078C269.931 333.008 255.282 310.601 255.282 310.601C255.282 310.601 263.646 325.875 265.945 331.37C268.244 336.869 277.216 361.499 275.525 365.36C273.835 369.221 296.457 394.901 298.756 400.396C299.54 402.267 299.265 403.277 298.577 403.809C301.647 406.248 304.044 407.769 305.038 407.53C308.2 402.452 295.849 385.544 286.837 378.201Z" fill="#84BBE8"/>
<path d="M287.389 321.045L286.17 318.538C286.457 319.554 286.908 320.496 287.389 321.045Z" fill="#84BBE8"/>
<path d="M287.79 321.622C290.098 325.301 299.308 343.243 299.308 343.243L304.985 341.017L299.536 330.399L296.608 324.697C292.662 324.04 288.293 322.067 287.392 321.042C287.479 321.147 287.614 321.341 287.79 321.622Z" fill="#C8E4FB"/>
<path d="M277.985 301.702L286.17 318.538C285.707 316.91 285.658 315.081 286.565 314.334L292.23 316.177L289.925 311.689L283.659 299.478L277.985 301.702Z" fill="#C8E4FB"/>
<path d="M304.418 314.369C301.687 314.16 297.269 317.812 297.269 317.812L292.233 316.174L286.568 314.331C285.661 315.081 285.711 316.907 286.173 318.535L287.392 321.042C288.296 322.067 292.662 324.037 296.608 324.697C298.154 324.954 299.641 325.017 300.823 324.733C305.026 323.729 307.145 314.579 304.418 314.369Z" fill="#CDE5F9"/>
<path d="M325.229 395.779C325.229 395.779 320.163 407.362 324.149 408.997C328.136 410.635 337.58 412.688 337.148 417.974C336.716 423.261 331.434 437.488 331.434 437.488L343.785 454.397L381.394 447.972L332.714 396.99L325.229 395.779Z" fill="#D1E7F9"/>
<path d="M386.593 405.722L332.708 396.99L381.388 447.975L392.603 411.588L386.593 405.722Z" fill="#84BBE8"/>
<path d="M230.512 260.814L216.519 272.376C215.843 272.326 215.158 272.284 214.47 272.254L215.609 258.34L209.497 272.311C208.704 272.367 207.938 272.457 207.201 272.577L194.597 263.378L203.597 273.596C203.073 273.832 202.597 274.104 202.178 274.415L187.016 272.107L200.447 275.798L185.109 278.613L199.126 278.455C199.058 278.793 199.037 279.109 199.062 279.408L191.391 285.747C191.391 285.747 196.683 282.887 199.682 281.061C200.339 282.005 201.268 282.513 201.268 282.513L199.577 286.374L202.523 283.939C204.646 274.791 225.226 275.039 226.698 273.823C226.698 273.823 224.372 273.324 221.123 272.878L230.512 260.814Z" fill="#CAE8FC"/>
<path d="M219.728 291.912L218.256 293.128L213.23 287.42C213.23 287.42 214.702 286.204 216.177 284.987C217.648 283.771 217.432 286.413 215.961 287.632L214.489 288.849L219.728 291.912Z" fill="#84BBE8"/>
<path d="M147.973 262.464C146.973 264.069 143.122 271.402 137.661 270.984C132.2 270.565 127.173 264.858 131.808 258.564C136.442 252.268 133.931 249.417 133.931 249.417C133.931 249.417 136.661 249.626 136.445 252.271C136.445 252.271 137.093 244.339 141.296 243.332C145.498 242.325 144.458 238.255 144.458 238.255C144.458 238.255 150.74 245.388 146.322 249.04C141.907 252.686 151.135 257.387 147.973 262.464Z" fill="#CAE4F6"/>
<path opacity="0.6" d="M672.436 421.988C672.436 411.938 664.938 403.603 655.071 401.893C655.176 401.036 655.244 400.169 655.244 399.285C655.244 387.164 645.099 377.338 632.584 377.338C627.379 377.338 622.6 379.056 618.774 381.913C616.228 368.967 604.497 359.174 590.39 359.174C574.423 359.174 561.48 371.711 561.48 387.176C561.48 391.336 562.442 395.271 564.124 398.821C563.007 398.645 561.868 398.529 560.699 398.529C549.048 398.529 539.601 407.676 539.601 418.963C539.601 423.509 541.153 427.692 543.741 431.084L543.726 431.099H543.754H577.644H632.476H670.205H670.859C670.859 431.099 670.705 430.929 670.433 430.639C671.705 428.006 672.436 425.08 672.436 421.988Z" fill="url(#paint23_linear_4_177)"/>
<path opacity="0.6" d="M447.302 740.159C447.302 714.468 428.138 693.157 402.909 688.788C403.177 686.598 403.356 684.38 403.356 682.118C403.356 651.132 377.42 626.011 345.427 626.011C332.122 626.011 319.901 630.401 310.12 637.708C303.615 604.611 273.625 579.578 237.559 579.578C196.741 579.578 163.65 611.628 163.65 651.162C163.65 661.797 166.109 671.856 170.407 680.929C167.553 680.478 164.64 680.182 161.653 680.182C131.866 680.182 107.72 703.569 107.72 732.419C107.72 744.038 111.684 754.733 118.306 763.409L118.266 763.447H118.334H204.967H345.14H441.588H443.26C443.26 763.447 442.865 763.014 442.174 762.267C445.432 755.549 447.302 748.075 447.302 740.159Z" fill="url(#paint24_linear_4_177)"/>
<path opacity="0.6" d="M1024.56 907.844C1024.56 891.545 1012.4 878.026 996.394 875.252C996.563 873.863 996.678 872.455 996.678 871.021C996.678 851.363 980.223 835.426 959.927 835.426C951.485 835.426 943.731 838.211 937.526 842.846C933.398 821.85 914.373 805.966 891.491 805.966C865.595 805.966 844.602 826.3 844.602 851.381C844.602 858.129 846.163 864.509 848.887 870.268C847.076 869.981 845.228 869.793 843.333 869.793C824.435 869.793 809.116 884.63 809.116 902.934C809.116 910.303 811.63 917.09 815.833 922.595L815.808 922.618H815.851H870.812H959.742H1020.93H1021.99C1021.99 922.618 1021.74 922.343 1021.31 921.871C1023.37 917.607 1024.56 912.864 1024.56 907.844Z" fill="url(#paint25_linear_4_177)"/>
</g>
<defs>
<linearGradient id="paint0_linear_4_177" x1="543.004" y1="286.808" x2="505.874" y2="164.416" gradientUnits="userSpaceOnUse">
<stop stop-color="#606060"/>
<stop offset="1" stop-color="#606060" stop-opacity="0"/>
</linearGradient>
<linearGradient id="paint1_linear_4_177" x1="875.301" y1="364.515" x2="964.912" y2="256.931" gradientUnits="userSpaceOnUse">
<stop stop-color="#606060"/>
<stop offset="1" stop-color="#606060" stop-opacity="0"/>
</linearGradient>
<linearGradient id="paint2_linear_4_177" x1="1001.42" y1="532.356" x2="1103.15" y2="515.834" gradientUnits="userSpaceOnUse">
<stop stop-color="#606060"/>
<stop offset="1" stop-color="#606060" stop-opacity="0"/>
</linearGradient>
<linearGradient id="paint3_linear_4_177" x1="743.846" y1="269.388" x2="757.552" y2="187.491" gradientUnits="userSpaceOnUse">
<stop stop-color="#606060"/>
<stop offset="1" stop-color="#606060" stop-opacity="0"/>
</linearGradient>
<linearGradient id="paint4_linear_4_177" x1="506.241" y1="963.57" x2="475.963" y2="1090.37" gradientUnits="userSpaceOnUse">
<stop stop-color="#606060"/>
<stop offset="1" stop-color="#606060" stop-opacity="0"/>
</linearGradient>
<linearGradient id="paint5_linear_4_177" x1="851.32" y1="1070.11" x2="944.083" y2="942.568" gradientUnits="userSpaceOnUse">
<stop stop-color="#606060"/>
<stop offset="0.7882" stop-color="#606060" stop-opacity="0.2118"/>
<stop offset="1" stop-color="#606060" stop-opacity="0"/>
</linearGradient>
<linearGradient id="paint6_linear_4_177" x1="209.776" y1="636.517" x2="251.966" y2="360.216" gradientUnits="userSpaceOnUse">
<stop stop-color="#606060"/>
<stop offset="1" stop-color="#606060" stop-opacity="0"/>
</linearGradient>
<linearGradient id="paint7_linear_4_177" x1="704" y1="110" x2="425.005" y2="110" gradientUnits="userSpaceOnUse">
<stop stop-color="white"/>
<stop offset="0.9966" stop-color="white" stop-opacity="0"/>
</linearGradient>
<linearGradient id="paint8_linear_4_177" x1="1124.75" y1="547.375" x2="1066.36" y2="547.375" gradientUnits="userSpaceOnUse">
<stop stop-color="white"/>
<stop offset="0.9966" stop-color="white" stop-opacity="0"/>
</linearGradient>
<linearGradient id="paint9_linear_4_177" x1="1024.56" y1="1129.88" x2="928.087" y2="1129.88" gradientUnits="userSpaceOnUse">
<stop stop-color="white"/>
<stop offset="0.9966" stop-color="white" stop-opacity="0"/>
</linearGradient>
<linearGradient id="paint10_linear_4_177" x1="250.867" y1="148.789" x2="152.41" y2="148.789" gradientUnits="userSpaceOnUse">
<stop stop-color="white"/>
<stop offset="0.9966" stop-color="white" stop-opacity="0"/>
</linearGradient>
<linearGradient id="paint11_linear_4_177" x1="436.735" y1="905.434" x2="233.485" y2="905.434" gradientUnits="userSpaceOnUse">
<stop stop-color="white"/>
<stop offset="0.9966" stop-color="white" stop-opacity="0"/>
</linearGradient>
<linearGradient id="paint12_linear_4_177" x1="1240" y1="225.5" x2="1024.56" y2="225.5" gradientUnits="userSpaceOnUse">
<stop stop-color="white"/>
<stop offset="0.9966" stop-color="white" stop-opacity="0"/>
</linearGradient>
<linearGradient id="paint13_linear_4_177" x1="1224.95" y1="735.52" x2="1085.89" y2="735.52" gradientUnits="userSpaceOnUse">
<stop stop-color="white"/>
<stop offset="0.9966" stop-color="white" stop-opacity="0"/>
</linearGradient>
<linearGradient id="paint14_linear_4_177" x1="318.048" y1="961.027" x2="0.000606627" y2="961.027" gradientUnits="userSpaceOnUse">
<stop stop-color="white"/>
<stop offset="0.9966" stop-color="white" stop-opacity="0"/>
</linearGradient>
<linearGradient id="paint15_linear_4_177" x1="363.776" y1="365.652" x2="905.195" y2="924.656" gradientUnits="userSpaceOnUse">
<stop stop-color="#B5FAFA"/>
<stop offset="1" stop-color="#7695EA"/>
</linearGradient>
<linearGradient id="paint16_linear_4_177" x1="274.221" y1="421.141" x2="396.736" y2="421.141" gradientUnits="userSpaceOnUse">
<stop stop-color="#EFDDAF"/>
<stop offset="1" stop-color="#7EBE7A"/>
</linearGradient>
<linearGradient id="paint17_linear_4_177" x1="252.791" y1="830.647" x2="443.179" y2="830.647" gradientUnits="userSpaceOnUse">
<stop stop-color="#EFDDAF"/>
<stop offset="1" stop-color="#7EBE7A"/>
</linearGradient>
<linearGradient id="paint18_linear_4_177" x1="794.314" y1="389.304" x2="798.066" y2="216.09" gradientUnits="userSpaceOnUse">
<stop stop-color="#EFDDAF"/>
<stop offset="1" stop-color="#7EBE7A"/>
</linearGradient>
<linearGradient id="paint19_linear_4_177" x1="565.024" y1="671.515" x2="1038.9" y2="671.515" gradientUnits="userSpaceOnUse">
<stop stop-color="#EFDDAF"/>
<stop offset="1" stop-color="#C7BE7A"/>
</linearGradient>
<linearGradient id="paint20_linear_4_177" x1="862.294" y1="531.683" x2="1043.39" y2="618.404" gradientUnits="userSpaceOnUse">
<stop stop-color="#606060"/>
<stop offset="1" stop-color="#606060" stop-opacity="0"/>
</linearGradient>
<linearGradient id="paint21_linear_4_177" x1="333.326" y1="893.582" x2="480.319" y2="893.582" gradientUnits="userSpaceOnUse">
<stop stop-color="#606060"/>
<stop offset="1" stop-color="#606060" stop-opacity="0"/>
</linearGradient>
<linearGradient id="paint22_linear_4_177" x1="356.997" y1="452.748" x2="516.266" y2="653.574" gradientUnits="userSpaceOnUse">
<stop stop-color="#606060"/>
<stop offset="1" stop-color="#606060" stop-opacity="0"/>
</linearGradient>
<linearGradient id="paint23_linear_4_177" x1="672.436" y1="395.134" x2="539.603" y2="395.134" gradientUnits="userSpaceOnUse">
<stop stop-color="white"/>
<stop offset="0.9966" stop-color="white" stop-opacity="0"/>
</linearGradient>
<linearGradient id="paint24_linear_4_177" x1="447.301" y1="671.515" x2="107.721" y2="671.515" gradientUnits="userSpaceOnUse">
<stop stop-color="white"/>
<stop offset="0.9966" stop-color="white" stop-opacity="0"/>
</linearGradient>
<linearGradient id="paint25_linear_4_177" x1="1024.56" y1="864.294" x2="809.118" y2="864.294" gradientUnits="userSpaceOnUse">
<stop stop-color="white"/>
<stop offset="0.9966" stop-color="white" stop-opacity="0"/>
</linearGradient>
</defs>
</svg>
