<svg width="1574" height="1583" viewBox="0 0 1574 1583" fill="none" xmlns="http://www.w3.org/2000/svg">
<g style="mix-blend-mode:luminosity" opacity="0.1">
<g opacity="0.49">
<path d="M749.91 1169.51C749.479 1169.53 749.036 1169.7 748.61 1169.98C748.475 1169.73 748.296 1169.5 748.058 1169.35C747.041 1168.69 745.474 1169.3 744.557 1170.72C744.372 1171 744.257 1171.3 744.154 1171.59L739.512 1163.15L734.624 1165.66C734.624 1165.66 736.352 1163.11 738.175 1160.72L732.265 1149.96L729.584 1151.34C729.584 1151.34 730.408 1150.13 731.51 1148.59L730.006 1145.85L725.094 1148.38C725.094 1148.38 726.833 1145.81 728.662 1143.41L723.191 1133.46C719.615 1147.89 722.818 1157.65 727.885 1164.17L720.649 1159.47L719.021 1161.98C719.021 1161.98 719.131 1160.51 719.328 1158.62L716.687 1156.91L713.706 1161.5C713.706 1161.5 713.938 1158.39 714.332 1155.38L704.729 1149.15C713.213 1179.83 737.434 1177.59 744.211 1176.31C744.191 1176.39 744.198 1176.47 744.184 1176.54L731.926 1180.36L733.746 1185.62C733.746 1185.62 731.442 1183.43 729.308 1181.18L717.732 1184.79L718.731 1187.67C718.731 1187.67 717.634 1186.63 716.257 1185.25L713.309 1186.16L715.139 1191.45C715.139 1191.45 712.821 1189.24 710.681 1186.98L699.962 1190.32C727.777 1203.03 740.796 1185.64 744.713 1178.65C744.783 1178.72 744.823 1178.81 744.906 1178.87C745.608 1179.32 746.57 1179.14 747.4 1178.53C749.101 1185.46 757.083 1208.04 788.268 1203.31L778.665 1197.09C776.077 1198.67 773.328 1200.16 773.328 1200.16L776.309 1195.56L773.669 1193.85C772.019 1194.8 770.721 1195.5 770.721 1195.5L772.348 1192.99L765.112 1188.3C773.125 1190.27 783.348 1189.21 795.064 1180.05L783.743 1179.12C782.298 1181.77 780.662 1184.4 780.662 1184.4L780.965 1178.89L777.851 1178.63C776.901 1180.27 776.127 1181.51 776.127 1181.51L776.291 1178.5L765.369 1177.6C773.799 1175.92 782.995 1170.22 788.882 1155.18L778.742 1159.89C778.836 1162.94 778.764 1166.07 778.764 1166.07L776.253 1161.05L773.467 1162.35C773.477 1164.25 773.443 1165.73 773.443 1165.73L772.072 1162.99L761.122 1168.09C761.216 1171.12 761.145 1174.23 761.145 1174.23L758.647 1169.24L751.54 1172.54C751.93 1171.39 751.734 1170.24 750.934 1169.72C750.905 1169.7 750.869 1169.7 750.839 1169.69C761.467 1153.1 784.926 1111.67 777.37 1079.57L754.569 1079.29C754.583 1079.31 781.357 1107.49 749.91 1169.51ZM730.869 1167.46C731.425 1167.99 731.989 1168.5 732.561 1168.97L730.399 1172.31C730.399 1172.31 730.571 1170.01 730.869 1167.46ZM756.674 1189.34L758.836 1186.01C759.503 1186.33 760.196 1186.64 760.908 1186.93C758.699 1188.25 756.674 1189.34 756.674 1189.34ZM763.87 1177.89C762.482 1180.4 761.011 1182.78 761.011 1182.78L761.268 1178.15C762.118 1178.1 762.985 1178.02 763.87 1177.89Z" fill="#3D13C9"/>
<path d="M781.284 1071.95L765.617 1076.12C767.465 1099.58 792.757 1124.07 803.735 1133.66C803.717 1133.67 803.693 1133.68 803.677 1133.69C803.241 1134.19 803.356 1135.02 803.879 1135.75L798.25 1134.71L797.623 1138.59C797.623 1138.59 796.891 1136.46 796.286 1134.35L787.613 1132.75L787.27 1134.87C787.27 1134.87 786.922 1133.86 786.509 1132.54L784.303 1132.13L783.676 1136.03C783.676 1136.03 782.937 1133.89 782.333 1131.77L774.304 1130.29C781.673 1139.63 789.27 1141.96 795.453 1141.65L788.118 1144.18L788.893 1146.23C788.893 1146.23 788.085 1145.5 787.071 1144.54L784.981 1145.26L786.404 1149.01C786.404 1149.01 784.696 1147.48 783.116 1145.9L775.512 1148.52C785.606 1152.79 792.889 1151.74 797.986 1148.98L794.025 1153.48L795.7 1154.93C795.7 1154.93 794.647 1154.67 793.303 1154.31L791.857 1155.95L794.925 1158.6C794.925 1158.6 792.701 1158.06 790.568 1157.41L785.314 1163.38C807.867 1161.21 808.406 1144.24 808.056 1139.16C808.762 1139.43 809.464 1139.39 809.85 1138.95C809.895 1138.9 809.903 1138.83 809.933 1138.77C814.173 1142.91 826.979 1152.63 843.37 1139.01L835.241 1138.58C834.262 1140.51 833.148 1142.44 833.148 1142.44L833.25 1138.48L831.015 1138.36C830.371 1139.55 829.842 1140.46 829.842 1140.46L829.895 1138.3L821.12 1137.83C820.144 1139.75 819.036 1141.67 819.036 1141.67L819.136 1137.72L809.841 1137.23C809.814 1137.18 809.801 1137.12 809.77 1137.08C814.725 1136.77 831.926 1134.09 831.031 1111.45L825.777 1117.42C826.71 1119.43 827.554 1121.53 827.554 1121.53L824.486 1118.88L823.039 1120.52C823.59 1121.8 823.991 1122.79 823.991 1122.79L822.316 1121.34L818.356 1125.84C820.418 1120.47 820.482 1113.17 814.841 1103.84L813.256 1111.66C815.046 1113 816.809 1114.47 816.809 1114.47L812.865 1113.58L812.43 1115.73C813.528 1116.6 814.364 1117.29 814.364 1117.29L812.211 1116.81L810.5 1125.25C812.283 1126.59 814.039 1128.05 814.039 1128.05L810.114 1127.17L808.768 1133.8C808.631 1133.62 808.487 1133.43 808.295 1133.27C807.352 1132.45 806.137 1132.3 805.579 1132.93C805.449 1133.08 805.374 1133.27 805.336 1133.46C804.981 1133.35 804.639 1133.31 804.338 1133.37C769.014 1096.07 781.284 1071.95 781.284 1071.95ZM818.416 1131.88L816.192 1129.96C816.481 1129.53 816.759 1129.08 817.027 1128.62C817.79 1130.33 818.416 1131.88 818.416 1131.88ZM800.586 1147.29C801.014 1146.97 801.426 1146.63 801.812 1146.29L804.036 1148.22C804.036 1148.22 802.4 1147.81 800.586 1147.29ZM798.411 1141.3L799.606 1144.44C799.606 1144.44 798.068 1143.06 796.558 1141.57C797.195 1141.51 797.81 1141.41 798.411 1141.3Z" fill="#3D13C9"/>
<path d="M971.961 316.42C972.266 316.561 972.632 316.609 973.028 316.577C973.027 316.794 973.067 317.005 973.174 317.196C973.629 318.004 974.934 318.163 976.09 317.555C976.324 317.432 976.513 317.277 976.694 317.116L976.745 324.422L981.04 324.518C981.04 324.518 978.903 325.59 976.76 326.526L976.827 335.826L979.183 335.879C979.183 335.879 978.164 336.39 976.835 337.01L976.851 339.378L981.166 339.473C981.166 339.473 979.016 340.554 976.865 341.489L976.926 350.101C984.749 341.785 986.177 334.121 985.114 327.95L988.346 333.696L990.397 332.615C990.397 332.615 989.772 333.556 988.933 334.747L990.112 336.843L993.872 334.86C993.872 334.86 992.552 336.851 991.163 338.714L995.451 346.337C1001.03 322.834 983.542 315.555 978.41 313.948C978.452 313.905 978.476 313.852 978.513 313.805L988.36 315.701L989.063 311.542C989.063 311.542 989.831 313.835 990.464 316.108L999.762 317.898L1000.15 315.616C1000.15 315.616 1000.51 316.708 1000.95 318.126L1003.32 318.582L1004.02 314.402C1004.02 314.402 1004.79 316.709 1005.43 318.989L1014.04 320.645C999.642 302.106 984.228 308.973 978.935 312.213C978.912 312.141 978.921 312.064 978.884 311.997C978.568 311.44 977.843 311.215 977.045 311.318C978.453 306.083 981.361 288.156 958.165 280.012L962.452 287.635C964.821 287.515 967.261 287.523 967.261 287.523L963.501 289.505L964.679 291.601C966.167 291.565 967.319 291.568 967.319 291.568L965.269 292.649L968.5 298.395C963.724 294.18 956.304 291.185 944.847 293.038L952.281 297.759C954.262 296.518 956.362 295.355 956.362 295.355L954.103 298.919L956.148 300.216C957.409 299.474 958.403 298.922 958.403 298.922L957.168 300.867L964.342 305.422C957.919 303.491 949.483 303.958 939.842 311.84L948.563 312.369C949.63 310.304 950.842 308.248 950.842 308.248L950.701 312.498L953.1 312.643C953.805 311.369 954.376 310.397 954.376 310.397L954.299 312.715L963.72 313.289C964.786 311.23 965.99 309.186 965.99 309.186L965.849 313.419L971.962 313.792C971.263 314.422 970.971 315.258 971.328 315.892C971.342 315.916 971.369 315.926 971.382 315.945C957.911 323.145 926.384 342.238 919.643 366.356L935.212 374.801C935.215 374.796 927.291 346.33 971.961 316.42ZM984.287 324.682C984.104 324.126 983.903 323.585 983.687 323.061L986.414 321.624C986.414 321.624 985.438 323.089 984.287 324.682ZM974.684 300.762L971.958 302.2C971.62 301.739 971.26 301.285 970.878 300.831C972.884 300.76 974.684 300.762 974.684 300.762ZM965.482 305.784C967.368 304.617 969.263 303.566 969.263 303.566L967.369 306.555C966.761 306.278 966.137 306.016 965.482 305.784Z" fill="#3D13C9"/>
<path d="M914.127 370.024L926.448 372.919C933.899 356.623 925.617 331.159 921.634 320.798C921.652 320.792 921.672 320.801 921.688 320.794C922.175 320.622 922.402 320.028 922.314 319.352L925.798 322.084L927.669 319.725C927.669 319.725 927.381 321.411 927.012 323.035L932.377 327.244L933.403 325.95C933.403 325.95 933.266 326.751 933.06 327.779L934.425 328.849L936.307 326.479C936.307 326.479 936.017 328.175 935.645 329.804L940.612 333.701C939.021 324.806 934.664 320.506 930.299 318.47L936.279 319.445L936.506 317.801C936.506 317.801 936.793 318.578 937.133 319.585L938.836 319.863L939.252 316.849C939.252 316.849 939.856 318.487 940.357 320.108L946.556 321.118C941.206 314.619 935.806 312.681 931.281 312.675L935.677 311.112L935.062 309.542C935.062 309.542 935.689 310.094 936.479 310.827L938.081 310.256L936.957 307.38C936.957 307.38 938.281 308.548 939.51 309.748L945.34 307.676C929.03 300.958 922.349 312.062 920.702 315.571C920.317 315.133 919.82 314.907 919.395 315.058C919.343 315.075 919.313 315.122 919.268 315.151C917.893 310.858 912.708 299.742 896.378 302.877L901.802 306.109C903.194 305.177 904.674 304.3 904.674 304.3L903.132 306.9L904.623 307.788C905.509 307.227 906.211 306.813 906.211 306.813L905.371 308.234L911.231 311.724C912.619 310.797 914.09 309.923 914.09 309.923L912.554 312.514L918.757 316.212C918.758 316.255 918.748 316.295 918.749 316.338C915.228 314.747 902.411 310.304 894.609 325.706L900.438 323.635C900.543 321.958 900.747 320.248 900.747 320.248L901.872 323.125L903.474 322.554C903.568 321.507 903.663 320.697 903.663 320.697L904.278 322.267L908.674 320.704C905.257 323.536 902.502 328.374 902.908 336.629L906.906 331.995C906.173 330.455 905.506 328.84 905.506 328.84L907.885 330.86L908.984 329.585C908.55 328.609 908.233 327.844 908.233 327.844L909.533 328.947L913.851 323.943C913.121 322.409 912.458 320.8 912.458 320.8L914.828 322.81L918.219 318.879C918.243 319.052 918.275 319.229 918.345 319.406C918.689 320.292 919.47 320.83 920.086 320.61C920.233 320.559 920.352 320.462 920.45 320.344C920.652 320.549 920.871 320.699 921.101 320.769C931.526 358.411 914.127 370.024 914.127 370.024ZM910.884 316.667L911.696 318.753C911.337 318.933 910.981 319.13 910.625 319.345C910.735 317.927 910.884 316.667 910.884 316.667ZM928.867 312.858C928.452 312.92 928.046 312.996 927.652 313.082L926.839 310.995C926.839 310.995 927.815 311.855 928.867 312.858ZM928.134 317.64L928.483 315.113C928.483 315.113 929.025 316.59 929.509 318.129C929.05 317.942 928.59 317.783 928.134 317.64Z" fill="#3D13C9"/>
<path d="M573.878 1204.96L572.89 1215.06L580.148 1239.9L577.405 1251.93L572.598 1252.89C583.834 1266.64 577.308 1301.4 577.308 1301.4C584.343 1277.53 606.467 1260.15 606.467 1260.15L601.809 1259.58L604.551 1247.55L623.567 1229.79L626.82 1220.82L630.772 1222.01L643.191 1177.84L641.339 1177.28L673.871 1051.97L615.748 1035.53L583.23 1159.83L581.19 1159.22L568.772 1203.38L573.878 1204.96ZM649.135 1089.42C649.449 1088.19 650.729 1087.48 651.979 1087.83C653.228 1088.17 653.988 1089.46 653.673 1090.68L646.399 1118.82C646.084 1120.05 644.805 1120.76 643.556 1120.41C642.306 1120.07 641.546 1118.78 641.861 1117.56L649.135 1089.42ZM638.034 1132.37C638.348 1131.15 639.628 1130.44 640.877 1130.78C642.127 1131.13 642.887 1132.41 642.572 1133.64L635.298 1161.78C634.983 1163 633.704 1163.72 632.454 1163.37C631.205 1163.02 630.445 1161.74 630.76 1160.51L638.034 1132.37ZM623.315 1183.05C628.328 1184.45 631.019 1190.88 629.328 1197.43C627.638 1203.97 622.202 1208.15 617.191 1206.75C612.18 1205.35 609.488 1198.92 611.178 1192.37C612.869 1185.83 618.303 1181.66 623.315 1183.05ZM637.034 1086.05C637.349 1084.82 638.628 1084.11 639.877 1084.46C641.127 1084.8 641.887 1086.09 641.571 1087.31L634.298 1115.45C633.982 1116.68 632.704 1117.39 631.454 1117.04C630.205 1116.7 629.444 1115.41 629.76 1114.19L637.034 1086.05ZM625.934 1129C626.249 1127.78 627.528 1127.06 628.778 1127.41C630.027 1127.76 630.787 1129.04 630.472 1130.26L623.198 1158.41C622.883 1159.63 621.604 1160.34 620.355 1160C619.105 1159.65 618.345 1158.37 618.66 1157.14L625.934 1129ZM624.934 1082.67C625.249 1081.45 626.528 1080.74 627.777 1081.09C629.027 1081.43 629.787 1082.72 629.471 1083.94L622.198 1112.08C621.884 1113.3 620.604 1114.02 619.354 1113.67C618.105 1113.32 617.345 1112.04 617.66 1110.82L624.934 1082.67ZM613.832 1125.63C614.149 1124.41 615.427 1123.69 616.676 1124.04C617.926 1124.39 618.686 1125.67 618.37 1126.9L611.097 1155.04C610.781 1156.26 609.502 1156.98 608.253 1156.63C607.003 1156.28 606.243 1155 606.559 1153.77L613.832 1125.63ZM612.835 1079.31C613.15 1078.08 614.429 1077.37 615.678 1077.72C616.928 1078.06 617.688 1079.35 617.373 1080.57L610.099 1108.71C609.783 1109.94 608.505 1110.65 607.255 1110.3C606.006 1109.96 605.246 1108.67 605.561 1107.45L612.835 1079.31ZM601.735 1122.26C602.051 1121.04 603.329 1120.32 604.579 1120.67C605.828 1121.02 606.588 1122.3 606.273 1123.53L598.999 1151.67C598.684 1152.89 597.405 1153.61 596.156 1153.26C594.906 1152.91 594.146 1151.63 594.461 1150.4L601.735 1122.26ZM593.447 1173.15C598.46 1174.54 601.151 1180.98 599.46 1187.52C597.77 1194.07 592.334 1198.24 587.323 1196.84C582.31 1195.45 579.619 1189.01 581.31 1182.47C583.001 1175.92 588.435 1171.75 593.447 1173.15Z" fill="#3D13C9"/>
<path opacity="0.44" d="M573.878 1204.96L572.89 1215.06L580.148 1239.9L577.405 1251.93L572.598 1252.89C583.834 1266.64 577.308 1301.4 577.308 1301.4C584.343 1277.53 606.467 1260.15 606.467 1260.15L601.809 1259.58L604.551 1247.55L623.567 1229.79L626.82 1220.82L630.772 1222.01L643.191 1177.84L641.339 1177.28L673.871 1051.97L615.748 1035.53L583.23 1159.83L581.19 1159.22L568.772 1203.38L573.878 1204.96ZM649.135 1089.42C649.449 1088.19 650.729 1087.48 651.979 1087.83C653.228 1088.17 653.988 1089.46 653.673 1090.68L646.399 1118.82C646.084 1120.05 644.805 1120.76 643.556 1120.41C642.306 1120.07 641.546 1118.78 641.861 1117.56L649.135 1089.42ZM638.034 1132.37C638.348 1131.15 639.628 1130.44 640.877 1130.78C642.127 1131.13 642.887 1132.41 642.572 1133.64L635.298 1161.78C634.983 1163 633.704 1163.72 632.454 1163.37C631.205 1163.02 630.445 1161.74 630.76 1160.51L638.034 1132.37ZM623.315 1183.05C628.328 1184.45 631.019 1190.88 629.328 1197.43C627.638 1203.97 622.202 1208.15 617.191 1206.75C612.18 1205.35 609.488 1198.92 611.178 1192.37C612.869 1185.83 618.303 1181.66 623.315 1183.05ZM637.034 1086.05C637.349 1084.82 638.628 1084.11 639.877 1084.46C641.127 1084.8 641.887 1086.09 641.571 1087.31L634.298 1115.45C633.982 1116.68 632.704 1117.39 631.454 1117.04C630.205 1116.7 629.444 1115.41 629.76 1114.19L637.034 1086.05ZM625.934 1129C626.249 1127.78 627.528 1127.06 628.778 1127.41C630.027 1127.76 630.787 1129.04 630.472 1130.26L623.198 1158.41C622.883 1159.63 621.604 1160.34 620.355 1160C619.105 1159.65 618.345 1158.37 618.66 1157.14L625.934 1129ZM624.934 1082.67C625.249 1081.45 626.528 1080.74 627.777 1081.09C629.027 1081.43 629.787 1082.72 629.471 1083.94L622.198 1112.08C621.884 1113.3 620.604 1114.02 619.354 1113.67C618.105 1113.32 617.345 1112.04 617.66 1110.82L624.934 1082.67ZM613.832 1125.63C614.149 1124.41 615.427 1123.69 616.676 1124.04C617.926 1124.39 618.686 1125.67 618.37 1126.9L611.097 1155.04C610.781 1156.26 609.502 1156.98 608.253 1156.63C607.003 1156.28 606.243 1155 606.559 1153.77L613.832 1125.63ZM612.835 1079.31C613.15 1078.08 614.429 1077.37 615.678 1077.72C616.928 1078.06 617.688 1079.35 617.373 1080.57L610.099 1108.71C609.783 1109.94 608.505 1110.65 607.255 1110.3C606.006 1109.96 605.246 1108.67 605.561 1107.45L612.835 1079.31ZM601.735 1122.26C602.051 1121.04 603.329 1120.32 604.579 1120.67C605.828 1121.02 606.588 1122.3 606.273 1123.53L598.999 1151.67C598.684 1152.89 597.405 1153.61 596.156 1153.26C594.906 1152.91 594.146 1151.63 594.461 1150.4L601.735 1122.26ZM593.447 1173.15C598.46 1174.54 601.151 1180.98 599.46 1187.52C597.77 1194.07 592.334 1198.24 587.323 1196.84C582.31 1195.45 579.619 1189.01 581.31 1182.47C583.001 1175.92 588.435 1171.75 593.447 1173.15Z" fill="url(#paint0_linear_16_6)"/>
<path d="M297.489 780.024L305.861 810.494L309.977 809.301L313.033 823.367L309.359 825.925L310.157 837.654C310.157 837.654 284.391 860.068 283.019 860.465C267.676 864.909 318.71 896.48 318.71 896.48L414.298 871.789L370.891 737.832L303.638 757.31L297.489 780.024ZM311.548 767.813C310.661 765.08 324.609 761.79 324.609 761.79L325.936 765.891C325.936 765.891 312.434 770.546 311.548 767.813ZM312.611 775.729C311.441 772.117 326.83 768.647 326.83 768.647L328.586 774.066C328.586 774.066 313.782 779.34 312.611 775.729ZM335.456 772.102C334.286 768.491 349.675 765.02 349.675 765.02L351.431 770.439C351.431 770.439 336.629 775.715 335.456 772.102ZM313.675 783.645C312.219 779.153 329.054 775.505 329.054 775.505L331.236 782.241C331.236 782.241 315.129 788.135 313.675 783.645ZM336.521 780.016C335.065 775.524 351.9 771.876 351.9 771.876L354.082 778.612C354.082 778.612 337.976 784.51 336.521 780.016ZM316.53 792.451C314.758 786.983 331.672 783.582 331.672 783.582L334.33 791.784C334.33 791.784 318.301 797.92 316.53 792.451ZM318.701 803.786C316.93 798.317 335.217 794.517 335.217 794.517L337.875 802.719C337.875 802.719 320.47 809.253 318.701 803.786ZM322.244 814.719C320.472 809.25 338.759 805.45 338.759 805.45L341.417 813.652C341.417 813.652 324.015 820.188 322.244 814.719ZM329.774 837.957C328.002 832.488 346.287 828.691 346.287 828.691L348.945 836.893C348.945 836.893 331.545 843.426 329.774 837.957ZM334.69 848.495C332.918 843.027 349.832 839.626 349.832 839.626L352.49 847.828C352.49 847.828 336.461 853.964 334.69 848.495ZM357.534 844.869C355.763 839.4 372.677 835.999 372.677 835.999L375.335 844.201C375.335 844.201 359.306 850.338 357.534 844.869ZM337.542 857.304C336.086 852.813 352.921 849.165 352.921 849.165L355.103 855.901C355.103 855.901 338.999 861.796 337.542 857.304ZM360.39 853.679C358.933 849.188 375.768 845.54 375.768 845.54L377.95 852.276C377.95 852.276 361.843 858.169 360.39 853.679ZM341.35 864.425C340.18 860.813 355.569 857.342 355.569 857.342L357.325 862.762C357.325 862.762 342.523 868.038 341.35 864.425ZM345.161 871.547C344.274 868.814 358.22 865.522 358.22 865.522L359.547 869.623C359.547 869.623 346.048 874.28 345.161 871.547ZM348.748 877.982C347.861 875.249 360.435 872.354 360.435 872.354L361.762 876.455C361.762 876.455 349.634 880.715 348.748 877.982ZM371.595 874.357C370.708 871.624 383.282 868.729 383.282 868.729L384.609 872.83C384.609 872.83 372.479 877.089 371.595 874.357ZM404.798 861.003L406.125 865.105C406.125 865.105 393.993 869.366 393.108 866.63C392.226 863.896 404.798 861.003 404.798 861.003ZM368.006 867.92C367.119 865.187 381.067 861.897 381.067 861.897L382.396 865.996C382.396 865.996 368.892 870.653 368.006 867.92ZM402.585 854.169L403.912 858.27C403.912 858.27 390.408 862.928 389.522 860.195C388.637 857.459 402.585 854.169 402.585 854.169ZM364.198 860.8C363.027 857.188 378.416 853.717 378.416 853.717L380.172 859.137C380.172 859.137 365.368 864.411 364.198 860.8ZM399.934 845.989L401.69 851.409C401.69 851.409 386.885 856.683 385.715 853.072C384.545 849.46 399.934 845.989 399.934 845.989ZM397.284 837.814L399.466 844.55C399.466 844.55 383.359 850.444 381.905 845.95C380.451 841.46 397.284 837.814 397.284 837.814ZM394.194 828.271L396.852 836.473C396.852 836.473 380.826 842.611 379.054 837.142C377.281 831.676 394.194 828.271 394.194 828.271ZM352.621 834.332C350.849 828.863 369.134 825.066 369.134 825.066L371.792 833.268C371.792 833.268 354.39 839.799 352.621 834.332ZM390.649 817.336L393.308 825.538C393.308 825.538 375.907 832.071 374.137 826.607C372.365 821.138 390.649 817.336 390.649 817.336ZM349.076 823.397C347.304 817.928 365.59 814.131 365.59 814.131L368.248 822.333C368.248 822.333 350.847 828.866 349.076 823.397ZM387.107 806.403L389.765 814.605C389.765 814.605 372.365 821.138 370.593 815.669C368.82 810.203 387.107 806.403 387.107 806.403ZM342.744 817.753L345.402 825.955C345.402 825.955 328.002 832.488 326.233 827.021C324.457 821.553 342.744 817.753 342.744 817.753ZM345.091 811.094C343.319 805.625 361.604 801.827 361.604 801.827L364.263 810.029C364.263 810.029 346.862 816.563 345.091 811.094ZM383.122 794.099L385.78 802.301C385.78 802.301 368.38 808.835 366.611 803.367C364.835 797.9 383.122 794.099 383.122 794.099ZM341.546 800.159C339.774 794.69 358.06 790.892 358.06 790.892L360.718 799.094C360.718 799.094 343.318 805.628 341.546 800.159ZM379.577 783.164L382.236 791.366C382.236 791.366 364.835 797.9 363.065 792.435C361.29 786.965 379.577 783.164 379.577 783.164ZM339.377 788.826C337.605 783.358 354.519 779.957 354.519 779.957L357.177 788.159C357.177 788.159 341.146 794.293 339.377 788.826ZM376.033 772.229L378.691 780.431C378.691 780.431 362.664 786.57 360.893 781.101C359.121 775.632 376.033 772.229 376.033 772.229ZM373.419 764.152L375.601 770.888C375.601 770.888 359.494 776.782 358.039 772.288C356.584 767.8 373.419 764.152 373.419 764.152ZM371.195 757.294L372.951 762.713C372.951 762.713 358.146 767.987 356.976 764.376C355.806 760.764 371.195 757.294 371.195 757.294ZM334.392 764.186C333.506 761.453 347.451 758.161 347.451 758.161L348.778 762.263C348.778 762.263 335.279 766.919 334.392 764.186ZM368.972 750.435L370.298 754.536C370.298 754.536 356.795 759.194 355.908 756.461C355.026 753.727 368.972 750.435 368.972 750.435ZM333.552 756.953C332.665 754.219 345.239 751.324 345.239 751.324L346.568 755.423C346.568 755.423 334.437 759.688 333.552 756.953ZM366.758 743.6L368.085 747.702C368.085 747.702 355.953 751.963 355.068 749.227C354.184 746.496 366.758 743.6 366.758 743.6Z" fill="#3D13C9"/>
<path opacity="0.44" d="M297.489 780.024L305.861 810.494L309.977 809.301L313.033 823.367L309.359 825.925L310.157 837.654C310.157 837.654 284.391 860.068 283.019 860.465C267.676 864.909 318.71 896.48 318.71 896.48L414.298 871.789L370.891 737.832L303.638 757.31L297.489 780.024ZM311.548 767.813C310.661 765.08 324.609 761.79 324.609 761.79L325.936 765.891C325.936 765.891 312.434 770.546 311.548 767.813ZM312.611 775.729C311.441 772.117 326.83 768.647 326.83 768.647L328.586 774.066C328.586 774.066 313.782 779.34 312.611 775.729ZM335.456 772.102C334.286 768.491 349.675 765.02 349.675 765.02L351.431 770.439C351.431 770.439 336.629 775.715 335.456 772.102ZM313.675 783.645C312.219 779.153 329.054 775.505 329.054 775.505L331.236 782.241C331.236 782.241 315.129 788.135 313.675 783.645ZM336.521 780.016C335.065 775.524 351.9 771.876 351.9 771.876L354.082 778.612C354.082 778.612 337.976 784.51 336.521 780.016ZM316.53 792.451C314.758 786.983 331.672 783.582 331.672 783.582L334.33 791.784C334.33 791.784 318.301 797.92 316.53 792.451ZM318.701 803.786C316.93 798.317 335.217 794.517 335.217 794.517L337.875 802.719C337.875 802.719 320.47 809.253 318.701 803.786ZM322.244 814.719C320.472 809.25 338.759 805.45 338.759 805.45L341.417 813.652C341.417 813.652 324.015 820.188 322.244 814.719ZM329.774 837.957C328.002 832.488 346.287 828.691 346.287 828.691L348.945 836.893C348.945 836.893 331.545 843.426 329.774 837.957ZM334.69 848.495C332.918 843.027 349.832 839.626 349.832 839.626L352.49 847.828C352.49 847.828 336.461 853.964 334.69 848.495ZM357.534 844.869C355.763 839.4 372.677 835.999 372.677 835.999L375.335 844.201C375.335 844.201 359.306 850.338 357.534 844.869ZM337.542 857.304C336.086 852.813 352.921 849.165 352.921 849.165L355.103 855.901C355.103 855.901 338.999 861.796 337.542 857.304ZM360.39 853.679C358.933 849.188 375.768 845.54 375.768 845.54L377.95 852.276C377.95 852.276 361.843 858.169 360.39 853.679ZM341.35 864.425C340.18 860.813 355.569 857.342 355.569 857.342L357.325 862.762C357.325 862.762 342.523 868.038 341.35 864.425ZM345.161 871.547C344.274 868.814 358.22 865.522 358.22 865.522L359.547 869.623C359.547 869.623 346.048 874.28 345.161 871.547ZM348.748 877.982C347.861 875.249 360.435 872.354 360.435 872.354L361.762 876.455C361.762 876.455 349.634 880.715 348.748 877.982ZM371.595 874.357C370.708 871.624 383.282 868.729 383.282 868.729L384.609 872.83C384.609 872.83 372.479 877.089 371.595 874.357ZM404.798 861.003L406.125 865.105C406.125 865.105 393.993 869.366 393.108 866.63C392.226 863.896 404.798 861.003 404.798 861.003ZM368.006 867.92C367.119 865.187 381.067 861.897 381.067 861.897L382.396 865.996C382.396 865.996 368.892 870.653 368.006 867.92ZM402.585 854.169L403.912 858.27C403.912 858.27 390.408 862.928 389.522 860.195C388.637 857.459 402.585 854.169 402.585 854.169ZM364.198 860.8C363.027 857.188 378.416 853.717 378.416 853.717L380.172 859.137C380.172 859.137 365.368 864.411 364.198 860.8ZM399.934 845.989L401.69 851.409C401.69 851.409 386.885 856.683 385.715 853.072C384.545 849.46 399.934 845.989 399.934 845.989ZM397.284 837.814L399.466 844.55C399.466 844.55 383.359 850.444 381.905 845.95C380.451 841.46 397.284 837.814 397.284 837.814ZM394.194 828.271L396.852 836.473C396.852 836.473 380.826 842.611 379.054 837.142C377.281 831.676 394.194 828.271 394.194 828.271ZM352.621 834.332C350.849 828.863 369.134 825.066 369.134 825.066L371.792 833.268C371.792 833.268 354.39 839.799 352.621 834.332ZM390.649 817.336L393.308 825.538C393.308 825.538 375.907 832.071 374.137 826.607C372.365 821.138 390.649 817.336 390.649 817.336ZM349.076 823.397C347.304 817.928 365.59 814.131 365.59 814.131L368.248 822.333C368.248 822.333 350.847 828.866 349.076 823.397ZM387.107 806.403L389.765 814.605C389.765 814.605 372.365 821.138 370.593 815.669C368.82 810.203 387.107 806.403 387.107 806.403ZM342.744 817.753L345.402 825.955C345.402 825.955 328.002 832.488 326.233 827.021C324.457 821.553 342.744 817.753 342.744 817.753ZM345.091 811.094C343.319 805.625 361.604 801.827 361.604 801.827L364.263 810.029C364.263 810.029 346.862 816.563 345.091 811.094ZM383.122 794.099L385.78 802.301C385.78 802.301 368.38 808.835 366.611 803.367C364.835 797.9 383.122 794.099 383.122 794.099ZM341.546 800.159C339.774 794.69 358.06 790.892 358.06 790.892L360.718 799.094C360.718 799.094 343.318 805.628 341.546 800.159ZM379.577 783.164L382.236 791.366C382.236 791.366 364.835 797.9 363.065 792.435C361.29 786.965 379.577 783.164 379.577 783.164ZM339.377 788.826C337.605 783.358 354.519 779.957 354.519 779.957L357.177 788.159C357.177 788.159 341.146 794.293 339.377 788.826ZM376.033 772.229L378.691 780.431C378.691 780.431 362.664 786.57 360.893 781.101C359.121 775.632 376.033 772.229 376.033 772.229ZM373.419 764.152L375.601 770.888C375.601 770.888 359.494 776.782 358.039 772.288C356.584 767.8 373.419 764.152 373.419 764.152ZM371.195 757.294L372.951 762.713C372.951 762.713 358.146 767.987 356.976 764.376C355.806 760.764 371.195 757.294 371.195 757.294ZM334.392 764.186C333.506 761.453 347.451 758.161 347.451 758.161L348.778 762.263C348.778 762.263 335.279 766.919 334.392 764.186ZM368.972 750.435L370.298 754.536C370.298 754.536 356.795 759.194 355.908 756.461C355.026 753.727 368.972 750.435 368.972 750.435ZM333.552 756.953C332.665 754.219 345.239 751.324 345.239 751.324L346.568 755.423C346.568 755.423 334.437 759.688 333.552 756.953ZM366.758 743.6L368.085 747.702C368.085 747.702 355.953 751.963 355.068 749.227C354.184 746.496 366.758 743.6 366.758 743.6Z" fill="url(#paint1_linear_16_6)"/>
<path d="M371.288 537.001C370.144 537.32 368.531 537.301 366.14 536.548C358.572 534.166 349.342 531.801 343.762 537.6L329.553 535.286L342.235 540.897C342.235 540.897 341.568 545.006 344.16 547.438C344.16 547.438 309.621 541.51 298.464 553.109L274.134 547.225L296.496 560.887C298.531 577.047 328.541 590.574 328.541 590.574C325.044 590.903 323.149 594.586 323.149 594.586L309.745 591.178L322.42 598.16C323.436 606.241 332.179 610.089 339.608 612.894C344.011 614.555 344.725 616.56 344.854 618.136L343.25 623.061L366.707 631.364C366.707 631.364 396.321 538.643 396.176 537.488L373.886 529.076L371.288 537.001Z" fill="#3D13C9"/>
<path opacity="0.44" d="M371.288 537.001C370.144 537.32 368.531 537.301 366.14 536.548C358.572 534.166 349.342 531.801 343.762 537.6L329.553 535.286L342.235 540.897C342.235 540.897 341.568 545.006 344.16 547.438C344.16 547.438 309.621 541.51 298.464 553.109L274.134 547.225L296.496 560.887C298.531 577.047 328.541 590.574 328.541 590.574C325.044 590.903 323.149 594.586 323.149 594.586L309.745 591.178L322.42 598.16C323.436 606.241 332.179 610.089 339.608 612.894C344.011 614.555 344.725 616.56 344.854 618.136L343.25 623.061L366.707 631.364C366.707 631.364 396.321 538.643 396.176 537.488L373.886 529.076L371.288 537.001Z" fill="url(#paint2_linear_16_6)"/>
<path d="M435.792 947.026L430.468 953.696C430.468 953.696 425.206 972.644 415.888 984.317L410.166 987.958L409.234 992.657L343.277 1062.94L337.354 1065.06L336.422 1069.76L332.299 1067.87L333.296 1075.45L326.236 1083L326.129 1083.75L333.968 1078.14L341.608 1079.42L339.852 1075.28L344.65 1074.54L347.036 1068.79L420.843 1006.56L425.641 1005.83L429.553 1000.33C441.751 991.609 461.158 987.164 461.158 987.164L468.126 982.179L506.288 972.414L491.714 956.978C491.987 959.409 492.183 961.602 492.183 961.602C492.183 961.602 474.529 970.182 460.961 955.616C447.393 941.05 452.806 925.045 452.806 925.045L461.514 924.993L447.185 909.815L435.792 947.026ZM385.657 1028.36C385.87 1026.85 412.19 995.895 412.19 995.895L416.574 1003.55C416.574 1003.55 385.44 1029.86 385.657 1028.36ZM450.979 976.241L432.684 989.327L423.714 980.912L435.012 962.045C436.54 962.298 450.979 976.241 450.979 976.241Z" fill="#3D13C9"/>
<path opacity="0.44" d="M435.792 947.026L430.468 953.696C430.468 953.696 425.206 972.644 415.888 984.317L410.166 987.958L409.234 992.657L343.277 1062.94L337.354 1065.06L336.422 1069.76L332.299 1067.87L333.296 1075.45L326.236 1083L326.129 1083.75L333.968 1078.14L341.608 1079.42L339.852 1075.28L344.65 1074.54L347.036 1068.79L420.843 1006.56L425.641 1005.83L429.553 1000.33C441.751 991.609 461.158 987.164 461.158 987.164L468.126 982.179L506.288 972.414L491.714 956.978C491.987 959.409 492.183 961.602 492.183 961.602C492.183 961.602 474.529 970.182 460.961 955.616C447.393 941.05 452.806 925.045 452.806 925.045L461.514 924.993L447.185 909.815L435.792 947.026ZM385.657 1028.36C385.87 1026.85 412.19 995.895 412.19 995.895L416.574 1003.55C416.574 1003.55 385.44 1029.86 385.657 1028.36ZM450.979 976.241L432.684 989.327L423.714 980.912L435.012 962.045C436.54 962.298 450.979 976.241 450.979 976.241Z" fill="url(#paint3_linear_16_6)"/>
<path d="M1027.97 447.186L1032.26 460.296L1033.5 464.094L1036.02 461.787C1051.75 446.349 1056.93 415.692 1056.68 415.429C1056.43 415.169 1045.15 410.382 1045.15 410.382C1044.78 408.801 1044.24 407.162 1043.59 405.49C1036.66 387.674 1015.98 365.842 1015.98 365.842C1025.24 407.671 1007.95 437.242 1007.95 437.242L1006.15 438.901L1031.64 465.816C1031.64 465.816 1032.12 462.582 1032.26 460.302L1027.97 447.186Z" fill="#3D13C9"/>
<path d="M1032.26 460.296C1032.11 462.576 1031.63 465.81 1031.63 465.81L1033.5 464.093L1032.26 460.296Z" fill="#3D13C9"/>
<path d="M1031.63 465.81L1034.72 467.809L1033.5 464.094L1031.63 465.81Z" fill="#3D13C9"/>
<path d="M1128.75 388.759C1128.96 389.038 1129.34 389.529 1129.82 390.197C1129.51 389.554 1129.15 389.072 1128.75 388.759Z" fill="#3D13C9"/>
<path d="M1128.54 388.49L1128.45 388.565C1128.55 388.62 1128.65 388.686 1128.74 388.76C1128.61 388.585 1128.54 388.49 1128.54 388.49Z" fill="#3D13C9"/>
<path d="M1067.81 489.256L1065.99 500.219C1091.57 482.416 1110.08 437.217 1110.08 437.217L1092.99 432.397C1092.04 427.309 1090.87 422.621 1089.57 418.325C1087.27 420.48 1085.87 421.832 1085.87 421.832C1085.87 421.832 1087.27 420.483 1089.57 418.325C1082.11 393.717 1070.25 381.937 1070.25 381.937C1070.25 381.937 1073.04 431.178 1035.38 468.234L1034.72 467.806L1035.35 469.728L1061.5 501.411C1061.5 501.411 1035.12 518.326 1062.49 502.456C1063.07 502.119 1063.65 501.763 1064.22 501.398C1064.82 501.021 1065.41 500.627 1066 500.218L1067.81 489.256Z" fill="#3D13C9"/>
<path d="M1064.22 501.399L1065.22 504.834L1065.99 500.22C1065.4 500.628 1064.81 501.022 1064.22 501.399Z" fill="#3D13C9"/>
<path d="M1070.25 381.939C1058.05 386.239 1047.54 399.843 1043.59 405.486C1044.24 407.159 1044.77 408.798 1045.15 410.379C1045.15 410.379 1056.43 415.166 1056.67 415.426C1056.92 415.686 1051.75 446.345 1036.01 461.783L1033.5 464.091L1034.71 467.805L1035.37 468.233C1073.04 431.181 1070.25 381.939 1070.25 381.939Z" fill="#3013AC"/>
<path d="M1129.82 390.197C1129.33 389.527 1128.96 389.038 1128.75 388.759C1128.65 388.686 1128.55 388.62 1128.46 388.564C1128.01 388.321 1127.53 388.273 1127 388.435C1126.72 388.522 1126.43 388.631 1126.12 388.762C1117.85 392.218 1097.85 410.539 1089.57 418.325C1090.87 422.623 1092.04 427.311 1092.99 432.397L1110.08 437.217C1110.08 437.217 1091.57 482.416 1065.99 500.219L1065.22 504.833C1126.38 460.28 1135.24 401.333 1129.82 390.197Z" fill="#3013AC"/>
<path d="M1015.98 365.839C1015.98 365.839 983.155 400.885 984.613 416.162L1006.14 438.896L1007.95 437.237C1007.95 437.239 1025.24 407.669 1015.98 365.839Z" fill="#3013AC"/>
<path d="M1174.53 537.32C1160.57 502.74 1126.15 492.341 1126.15 492.341L1124.2 488.755C1146.8 459.194 1143.98 423.661 1141.44 411.822C1139.46 402.564 1132.71 392.607 1129.86 388.7C1135.27 399.836 1126.41 458.781 1065.25 503.337L1119.04 568.27C1141.98 571.633 1174.53 537.32 1174.53 537.32Z" fill="#3D13C9"/>
<path opacity="0.44" d="M1174.53 537.32C1160.57 502.741 1126.15 492.341 1126.15 492.341L1124.2 488.756C1146.8 459.194 1143.98 423.661 1141.44 411.822C1139.46 402.564 1132.71 392.607 1129.86 388.701C1129.54 388.056 1129.18 387.576 1128.78 387.263C1128.64 387.086 1128.57 386.994 1128.57 386.994L1128.49 387.069C1128.04 386.826 1127.55 386.778 1127.03 386.94C1126.75 387.027 1126.46 387.138 1126.14 387.267C1117.87 390.723 1097.88 409.044 1089.6 416.829C1082.13 392.221 1070.28 380.441 1070.28 380.441C1058.08 384.742 1047.57 398.346 1043.62 403.993C1036.68 386.177 1016.01 364.345 1016.01 364.345C1016.01 364.345 983.186 399.391 984.644 414.668L1006.17 437.402L1031.66 464.317L1034.74 466.316L1035.37 468.238L1061.53 499.92C1061.53 499.92 1035.14 516.835 1062.52 500.966C1063.1 500.629 1063.67 500.273 1064.25 499.908L1065.25 503.343L1119.04 568.276C1141.98 571.633 1174.53 537.32 1174.53 537.32Z" fill="url(#paint4_linear_16_6)"/>
<path d="M765.095 181.98L766.939 180.298C766.939 180.298 761.578 178.239 760.109 176.636C760.109 176.636 744.641 181.914 727.778 181.765C710.974 182.705 694.703 178.171 694.703 178.171C693.411 179.841 688.285 182.144 688.285 182.144L690.305 183.736C679.546 194.364 656.102 195.188 656.102 195.188C658.777 198.674 667.941 199.552 667.941 199.552L676.225 209.734L679.537 209.656L679.757 213.748L682.695 213.68L683.017 224.049L677.829 224.173L678.502 236.718L683.408 236.605L685.574 306.455L681.416 306.551L681.97 316.915L702.115 316.442L701.561 306.078L698.226 306.157L692.517 236.388L768.959 234.596L771.125 304.447L766.967 304.542L767.521 314.906L787.666 314.434L787.112 304.07L783.777 304.148L778.068 234.38L781.992 234.288L781.319 221.743L777.043 221.844L776.197 211.488L779.663 211.405L779.444 207.314L781.928 207.254L789.099 196.71C789.099 196.71 798.149 195.405 800.441 191.801C800.441 191.801 776.967 192.078 765.095 181.98ZM768.247 211.669L768.57 222.038L691.49 223.844L690.644 213.488L694.11 213.406L693.891 209.314L728.665 208.5L729.493 208.481L765.094 207.644L765.313 211.736L768.247 211.669Z" fill="#3D13C9"/>
<path opacity="0.44" d="M765.095 181.98L766.939 180.298C766.939 180.298 761.578 178.239 760.109 176.636C760.109 176.636 744.641 181.914 727.778 181.765C710.974 182.705 694.703 178.171 694.703 178.171C693.411 179.841 688.285 182.144 688.285 182.144L690.305 183.736C679.546 194.364 656.102 195.188 656.102 195.188C658.777 198.674 667.941 199.552 667.941 199.552L676.225 209.734L679.537 209.656L679.757 213.748L682.695 213.68L683.017 224.049L677.829 224.173L678.502 236.718L683.408 236.605L685.574 306.455L681.416 306.551L681.97 316.915L702.115 316.442L701.561 306.078L698.226 306.157L692.517 236.388L768.959 234.596L771.125 304.447L766.967 304.542L767.521 314.906L787.666 314.434L787.112 304.07L783.777 304.148L778.068 234.38L781.992 234.288L781.319 221.743L777.043 221.844L776.197 211.488L779.663 211.405L779.444 207.314L781.928 207.254L789.099 196.71C789.099 196.71 798.149 195.405 800.441 191.801C800.441 191.801 776.967 192.078 765.095 181.98ZM768.247 211.669L768.57 222.038L691.49 223.844L690.644 213.488L694.11 213.406L693.891 209.314L728.665 208.5L729.493 208.481L765.094 207.644L765.313 211.736L768.247 211.669Z" fill="url(#paint5_linear_16_6)"/>
<path d="M979.529 963.559L1099.78 1067.04C1099.78 1067.04 1098.18 1065.55 1095.37 1062.9L1108.66 1048.25L1114.91 1053.62C1114.91 1053.62 999.91 945.652 999.256 945.072L994.662 950.138L998.53 953.469L998.532 962.324L987.949 962.08C985.562 959.841 984.191 958.558 984.12 958.497L979.529 963.559ZM1087.28 1029.84L1078 1030.74L1078.51 1022.29L1087.28 1029.84ZM1076.68 1020.72L1076.07 1030.93L1062.87 1032.22L1074.78 1019.09L1076.68 1020.72ZM1005.08 978.155L1013.55 978.35L1013.56 986.11C1010.58 983.315 1007.74 980.653 1005.08 978.155ZM1043.3 1014.02L1054.52 1001.65L1061.74 1007.86C1062.8 1009.86 1065.68 1016.13 1061.83 1019.42C1057.67 1022.97 1050.95 1020.4 1049.37 1019.72C1047.36 1017.83 1045.32 1015.93 1043.3 1014.02ZM1015.73 988.152L1015.73 978.401L1027.82 978.677L1042.26 991.099C1043.47 993.703 1045.2 998.802 1041.86 1001.67C1038.64 1004.42 1033.86 1003.49 1031.14 1002.62C1025.82 997.614 1020.62 992.735 1015.73 988.152ZM1075.96 1032.84L1075.29 1044.05C1071.91 1040.88 1068.3 1037.49 1064.54 1033.96L1075.96 1032.84ZM1061.38 1030.99C1058.51 1028.3 1055.56 1025.53 1052.57 1022.73C1055.71 1023.42 1059.91 1023.59 1063.1 1020.86C1066.4 1018.05 1065.98 1013.83 1064.97 1010.64L1073.32 1017.83L1061.38 1030.99ZM1053.06 1000.39L1041.89 1012.7C1039.23 1010.2 1036.56 1007.69 1033.92 1005.21C1036.84 1005.66 1040.37 1005.47 1043.13 1003.11C1046.17 1000.51 1046.05 996.716 1045.22 993.647L1053.06 1000.39ZM1025.26 976.467L1015.73 976.249L1015.73 968.266L1025.26 976.467ZM1013.55 966.391L1013.55 976.198L1002.74 975.952C1002.05 975.306 1001.37 974.673 1000.71 974.053L1000.71 964.519L1011.67 964.771L1013.55 966.391ZM1093.96 1061.59C1089.9 1057.77 1083.94 1052.17 1076.86 1045.53L1077.12 1045.55L1077.89 1032.66L1089.16 1031.56L1089.15 1031.45L1107.2 1046.99L1093.96 1061.59ZM1000.71 955.34L1009.1 962.563L1000.71 962.369L1000.71 955.34ZM998.532 964.468L998.535 972.007C995.327 968.997 992.546 966.385 990.297 964.279L998.532 964.468Z" fill="#3D13C9"/>
<path d="M1051.81 913.453L1114.8 967.658C1114.8 967.658 1113.96 966.873 1112.49 965.491L1119.45 957.812L1122.72 960.627C1122.72 960.627 1062.49 904.073 1062.14 903.766L1059.74 906.42L1061.77 908.165L1061.77 912.803L1056.22 912.675C1054.97 911.501 1054.26 910.828 1054.22 910.798L1051.81 913.453ZM1108.25 948.17L1103.39 948.642L1103.66 944.215L1108.25 948.17ZM1102.7 943.395L1102.38 948.743L1095.46 949.417L1101.7 942.539L1102.7 943.395ZM1065.2 921.096L1069.63 921.197L1069.63 925.262C1068.08 923.8 1066.59 922.406 1065.2 921.096ZM1085.21 939.884L1091.09 933.403L1094.87 936.656C1095.43 937.703 1096.94 940.988 1094.92 942.713C1092.74 944.572 1089.22 943.226 1088.39 942.87C1087.34 941.881 1086.28 940.882 1085.21 939.884ZM1070.77 926.333L1070.77 921.225L1077.11 921.37L1084.67 927.879C1085.3 929.242 1086.21 931.915 1084.46 933.414C1082.77 934.855 1080.27 934.369 1078.85 933.911C1076.06 931.29 1073.33 928.732 1070.77 926.333ZM1102.32 949.746L1101.97 955.615C1100.2 953.954 1098.31 952.176 1096.34 950.328L1102.32 949.746ZM1094.68 948.776C1093.18 947.361 1091.64 945.914 1090.07 944.446C1091.71 944.81 1093.91 944.897 1095.58 943.468C1097.31 941.993 1097.09 939.781 1096.57 938.114L1100.94 941.879L1094.68 948.776ZM1090.33 932.744L1084.48 939.191C1083.08 937.879 1081.68 936.568 1080.3 935.27C1081.83 935.502 1083.67 935.401 1085.12 934.165C1086.72 932.804 1086.65 930.819 1086.22 929.21L1090.33 932.744ZM1075.77 920.212L1070.78 920.097L1070.77 915.915L1075.77 920.212ZM1069.63 914.934L1069.63 920.071L1063.96 919.941C1063.6 919.603 1063.25 919.271 1062.91 918.948L1062.9 913.953L1068.64 914.085L1069.63 914.934ZM1111.75 964.8C1109.62 962.799 1106.5 959.871 1102.8 956.393L1102.93 956.404L1103.33 949.65L1109.24 949.075L1109.23 949.016L1118.69 957.157L1111.75 964.8ZM1062.9 909.145L1067.3 912.929L1062.91 912.829L1062.9 909.145ZM1061.77 913.928L1061.77 917.879C1060.09 916.301 1058.63 914.936 1057.45 913.831L1061.77 913.928Z" fill="#3D13C9"/>
<path d="M888.989 1075.78L915.977 1046.02C915.977 1046.02 1026.7 1019.8 1078.69 902.469L1082.62 905.963C1082.62 905.963 1052.27 1015.08 888.989 1075.78Z" fill="#3D13C9"/>
<path d="M1094.46 1061.17C1085.61 1060.39 1076.76 1059.88 1067.9 1059.49C1059.05 1059.1 1050.19 1058.86 1041.34 1058.78C1023.65 1058.63 1005.96 1059.13 988.411 1060.56C984.022 1060.91 979.641 1061.31 975.273 1061.79C970.903 1062.27 966.547 1062.81 962.211 1063.45C953.535 1064.71 944.927 1066.3 936.467 1068.34C928.018 1070.4 919.699 1072.89 911.763 1076.14C903.834 1079.36 880.798 1089.6 874.221 1094.67L885.32 1082.82C892.716 1077.42 900.928 1073.48 909.319 1070.31C917.733 1067.16 926.392 1064.87 935.114 1063.01C943.844 1061.19 952.649 1059.83 961.486 1058.83C965.906 1058.31 970.332 1057.9 974.763 1057.55C979.194 1057.19 983.628 1056.92 988.068 1056.7C1005.82 1055.89 1023.6 1056.01 1041.35 1056.78C1059.09 1057.56 1076.82 1058.94 1094.46 1061.17Z" fill="#3D13C9"/>
<path d="M1118.59 957.35C1112.15 954.333 1105.64 951.509 1099.05 948.972C1097.4 948.341 1095.74 947.739 1094.07 947.163C1092.41 946.577 1090.74 946.026 1089.07 945.513C1087.39 945.003 1085.71 944.535 1084.02 944.13C1082.33 943.723 1080.64 943.363 1078.95 943.108C1077.26 942.85 1075.57 942.7 1073.94 942.725C1072.3 942.753 1070.72 942.988 1069.4 943.526C1068.1 944.086 1067.18 944.973 1066.7 946.2C1066.44 946.809 1066.34 947.51 1066.28 948.241L1066.25 948.803L1066.26 949.389C1066.25 949.775 1066.3 950.184 1066.33 950.581C1066.65 953.82 1067.5 957.184 1068.48 960.482C1068.99 962.131 1069.48 963.793 1070.04 965.44C1070.59 967.089 1071.18 968.733 1071.76 970.377C1076.51 983.522 1082 996.525 1088.22 1009.18C1094.42 1021.83 1101.24 1034.22 1108.41 1046.37L1109.68 1048.53L1107.14 1048.05C1103.86 1047.44 1100.54 1046.88 1097.24 1046.34C1093.92 1045.79 1090.61 1045.26 1087.3 1044.75C1080.67 1043.71 1074.03 1042.75 1067.38 1041.88C1060.74 1041.02 1054.08 1040.24 1047.43 1039.58C1044.1 1039.25 1040.77 1038.92 1037.44 1038.63C1034.1 1038.34 1030.77 1038.11 1027.44 1037.85C1014.12 1036.9 1000.76 1036.44 987.479 1037.01C980.836 1037.3 974.219 1037.9 967.682 1038.97C961.154 1040.06 954.696 1041.64 948.6 1044.23L948.421 1043.88C954.259 1040.67 960.714 1038.58 967.252 1037.06C973.804 1035.55 980.493 1034.61 987.202 1034.01C993.916 1033.41 1000.66 1033.16 1007.4 1033.15C1014.15 1033.1 1020.89 1033.38 1027.62 1033.76C1030.99 1033.94 1034.35 1034.21 1037.71 1034.51C1041.07 1034.81 1044.43 1035.13 1047.78 1035.51C1054.48 1036.29 1061.17 1037.16 1067.83 1038.19C1074.5 1039.19 1081.16 1040.31 1087.79 1041.55C1094.42 1042.81 1101.02 1044.2 1107.61 1045.77L1106.35 1047.46C1103.07 1041.18 1099.89 1034.88 1096.69 1028.58L1087.12 1009.68C1083.96 1003.37 1080.73 997.083 1077.62 990.736C1074.51 984.39 1071.47 977.993 1068.79 971.42C1067.47 968.13 1066.23 964.797 1065.16 961.389C1064.64 959.678 1064.16 957.952 1063.74 956.193C1063.33 954.434 1062.99 952.644 1062.85 950.775C1062.83 950.303 1062.78 949.841 1062.79 949.356L1062.79 948.635L1062.83 947.895C1062.92 946.899 1063.1 945.861 1063.52 944.872C1063.93 943.882 1064.55 942.937 1065.35 942.182C1066.14 941.422 1067.09 940.858 1068.05 940.464C1069.99 939.691 1071.96 939.514 1073.85 939.53C1075.74 939.554 1077.59 939.778 1079.39 940.108C1083 940.757 1086.47 941.805 1089.86 943.004C1091.55 943.602 1093.23 944.242 1094.9 944.91C1096.56 945.588 1098.2 946.299 1099.83 947.033C1103.09 948.491 1106.3 950.077 1109.46 951.731C1112.62 953.394 1115.73 955.133 1118.77 956.996L1118.59 957.35Z" fill="#3D13C9"/>
<path d="M1111.79 964.777C1105.25 961.24 1098.55 957.986 1091.67 955.235C1088.23 953.845 1084.75 952.58 1081.21 951.533C1077.67 950.491 1074.08 949.626 1070.46 949.264C1068.66 949.083 1066.85 949.037 1065.08 949.208C1063.31 949.375 1061.58 949.78 1060.07 950.56C1058.56 951.325 1057.3 952.506 1056.49 953.949C1055.71 955.349 1055.48 957.116 1055.43 958.859C1055.36 962.382 1055.98 965.983 1056.76 969.521C1057.55 973.067 1058.56 976.579 1059.65 980.067C1061.84 987.051 1064.43 993.928 1067.15 1000.75C1069.86 1007.59 1072.77 1014.35 1075.73 1021.09C1078.71 1027.83 1081.77 1034.53 1084.9 1041.21C1088 1047.9 1091.22 1054.54 1094.46 1061.17C1087.36 1048.21 1080.7 1035.01 1074.5 1021.61C1071.39 1014.92 1068.44 1008.15 1065.63 1001.33C1062.84 994.49 1060.23 987.582 1057.99 980.54C1056.89 977.017 1055.89 973.457 1055.09 969.842C1054.7 968.034 1054.36 966.21 1054.11 964.367C1053.87 962.524 1053.71 960.659 1053.77 958.771C1053.86 956.895 1054.09 954.943 1055.09 953.152C1056.08 951.442 1057.59 950.069 1059.35 949.208C1061.1 948.334 1063.02 947.922 1064.91 947.762C1066.81 947.606 1068.71 947.698 1070.59 947.921C1074.33 948.373 1077.98 949.307 1081.53 950.45C1085.09 951.603 1088.57 952.967 1091.99 954.454C1095.4 955.957 1098.75 957.586 1102.06 959.305C1105.36 961.018 1108.62 962.83 1111.79 964.777Z" fill="#3D13C9"/>
<path d="M1081.64 905.09C1082.53 907.652 1083.6 910.147 1084.77 912.594L1085.66 914.43C1085.95 915.039 1086.28 915.638 1086.59 916.241C1086.9 916.842 1087.21 917.448 1087.53 918.042L1088.54 919.813C1091.22 924.534 1094.18 929.104 1097.41 933.487L1099.88 936.74C1100.3 937.277 1100.7 937.831 1101.13 938.356L1102.43 939.929C1103.31 940.973 1104.17 942.034 1105.06 943.064C1105.98 944.071 1106.89 945.087 1107.79 946.108L1109.15 947.639L1110.58 949.108L1113.43 952.047C1115.35 953.995 1117.38 955.829 1119.33 957.759C1118.29 956.872 1117.25 955.978 1116.22 955.074L1114.67 953.725C1114.15 953.278 1113.63 952.827 1113.14 952.348L1110.19 949.485L1108.71 948.049L1107.3 946.554C1106.36 945.558 1105.42 944.557 1104.49 943.547C1103.59 942.518 1102.72 941.462 1101.83 940.418L1100.5 938.848C1100.06 938.324 1099.65 937.772 1099.23 937.234L1096.71 933.984C1093.52 929.531 1090.53 924.937 1087.95 920.119C1085.4 915.298 1083.11 910.315 1081.64 905.09Z" fill="#3D13C9"/>
<path opacity="0.44" d="M1041.35 1056.79C1023.6 1056.01 1005.82 1055.89 988.065 1056.71C983.628 1056.92 979.191 1057.2 974.76 1057.55C970.329 1057.91 965.902 1058.32 961.483 1058.83C952.646 1059.84 943.839 1061.19 935.111 1063.02C926.391 1064.87 917.73 1067.17 909.316 1070.32C900.924 1073.48 892.713 1077.42 885.316 1082.82L874.218 1094.68C880.794 1089.6 903.831 1079.36 911.76 1076.14C919.694 1072.9 928.015 1070.41 936.464 1068.34C944.924 1066.3 953.532 1064.71 962.208 1063.46C966.545 1062.82 970.904 1062.28 975.27 1061.8C979.636 1061.31 984.019 1060.91 988.408 1060.56C1005.97 1059.14 1023.65 1058.64 1041.34 1058.78C1050.19 1058.86 1059.04 1059.1 1067.9 1059.5C1076.2 1059.86 1084.5 1060.34 1092.79 1061.04L1099.77 1067.05C1099.77 1067.05 1098.18 1065.55 1095.36 1062.91L1108.58 1048.34L1108.81 1048.38L1114.91 1053.62C1114.91 1053.62 1112.91 1051.75 1109.44 1048.5L1109.68 1048.54L1108.41 1046.38C1101.24 1034.23 1094.42 1021.85 1088.22 1009.19C1082.01 996.541 1076.51 983.537 1071.76 970.392C1071.17 968.746 1070.59 967.104 1070.04 965.455C1069.49 963.806 1068.99 962.146 1068.48 960.497C1067.5 957.199 1066.66 953.835 1066.33 950.596C1066.3 950.197 1066.26 949.79 1066.26 949.404L1066.26 949.138C1067.65 949.076 1069.06 949.133 1070.47 949.274C1074.09 949.637 1077.68 950.503 1081.21 951.543C1084.75 952.589 1088.23 953.857 1091.67 955.245C1098.24 957.872 1104.64 960.96 1110.9 964.314L1114.8 967.666C1114.8 967.666 1113.96 966.881 1112.49 965.499L1119.45 957.82L1122.73 960.635C1122.73 960.635 1118.3 956.479 1111.84 950.415L1110.58 949.123L1109.16 947.653L1107.8 946.122C1106.89 945.101 1105.98 944.084 1105.06 943.079C1104.17 942.048 1103.31 940.987 1102.44 939.943L1101.14 938.371C1100.7 937.843 1100.31 937.291 1099.89 936.754L1097.42 933.502C1094.19 929.118 1091.23 924.55 1088.54 919.828L1087.54 918.056C1087.21 917.462 1086.91 916.854 1086.59 916.256C1086.28 915.652 1085.96 915.057 1085.66 914.444L1084.78 912.609C1083.89 910.759 1083.07 908.879 1082.33 906.965C1082.53 906.315 1082.63 905.977 1082.63 905.977L1078.7 902.483C1076.93 906.476 1075.09 910.355 1073.19 914.139C1066.72 908.058 1062.24 903.861 1062.15 903.778L1059.74 906.433L1061.77 908.178L1061.77 912.816L1056.23 912.687C1054.98 911.513 1054.26 910.841 1054.22 910.811L1051.82 913.463L1066.71 926.277C1055.98 945.141 1043.73 961.195 1030.96 974.818C1013.12 958.076 999.485 945.28 999.261 945.082L994.667 950.149L998.534 953.479L998.537 962.334L987.954 962.09C985.566 959.851 984.196 958.568 984.125 958.507L979.531 963.574L1012.9 992.293C964.848 1034.46 915.981 1046.04 915.981 1046.04L888.993 1075.8C918.078 1064.99 942.941 1052.64 964.169 1039.64C965.337 1039.41 966.509 1039.19 967.682 1039C974.219 1037.93 980.838 1037.33 987.479 1037.04C1000.77 1036.47 1014.12 1036.93 1027.44 1037.88C1030.77 1038.14 1034.11 1038.36 1037.44 1038.66C1040.77 1038.95 1044.1 1039.28 1047.43 1039.61C1054.09 1040.27 1060.74 1041.05 1067.38 1041.91C1068.63 1042.07 1069.88 1042.24 1071.13 1042.41L1092.7 1060.98C1075.65 1058.86 1058.51 1057.54 1041.35 1056.79ZM1093.43 1061.09C1093.74 1061.11 1094.04 1061.13 1094.35 1061.16L1093.96 1061.58C1093.79 1061.42 1093.61 1061.25 1093.43 1061.09ZM1033.59 983.634L1042.26 991.098C1043.47 993.702 1045.19 998.8 1041.86 1001.66C1038.63 1004.42 1033.86 1003.49 1031.14 1002.61C1028.29 999.932 1025.46 997.284 1022.71 994.695C1026.56 990.977 1030.19 987.282 1033.59 983.634ZM1078 1030.74L1078.09 1029.24C1078.32 1029.71 1078.55 1030.19 1078.78 1030.67L1078 1030.74ZM1076.39 1025.65L1076.07 1030.93L1062.87 1032.22L1073.83 1020.14C1074.05 1020.63 1074.27 1021.12 1074.5 1021.61C1075.12 1022.96 1075.75 1024.3 1076.39 1025.65ZM1078.24 1026.72L1078.51 1022.29L1087.28 1029.84L1079.98 1030.55C1079.4 1029.27 1078.82 1028 1078.24 1026.72ZM1076.68 1020.72L1076.55 1022.93C1076.28 1022.32 1076 1021.71 1075.73 1021.09C1075.45 1020.46 1075.18 1019.82 1074.9 1019.19L1076.68 1020.72ZM1072.95 1018.23L1061.38 1030.99C1058.51 1028.3 1055.56 1025.53 1052.57 1022.73C1055.71 1023.42 1059.91 1023.59 1063.1 1020.86C1066.4 1018.05 1065.98 1013.83 1064.97 1010.64L1072.41 1017.04C1072.59 1017.44 1072.77 1017.84 1072.95 1018.23ZM1054.52 1001.65L1061.74 1007.86C1062.8 1009.86 1065.68 1016.13 1061.83 1019.42C1057.67 1022.97 1050.95 1020.4 1049.37 1019.72C1047.35 1017.83 1045.33 1015.92 1043.29 1014.02L1054.52 1001.65ZM1041.89 1012.7C1039.23 1010.2 1036.56 1007.7 1033.92 1005.22C1036.84 1005.66 1040.37 1005.47 1043.13 1003.11C1046.16 1000.51 1046.05 996.718 1045.22 993.65L1053.06 1000.39L1041.89 1012.7ZM1064.53 1033.96L1075.95 1032.85L1075.56 1039.42C1073.47 1039.08 1071.38 1038.75 1069.29 1038.43C1067.74 1036.97 1066.15 1035.48 1064.53 1033.96ZM1077.89 1032.66L1079.66 1032.49C1081.01 1035.28 1082.39 1038.06 1083.78 1040.83C1081.68 1040.46 1079.57 1040.09 1077.46 1039.74L1077.89 1032.66ZM1080.81 1032.37L1089.16 1031.56L1089.15 1031.45L1105.14 1045.21C1099.37 1043.88 1093.6 1042.67 1087.79 1041.56C1086.8 1041.38 1085.81 1041.2 1084.82 1041.02C1083.46 1038.14 1082.13 1035.26 1080.81 1032.37ZM1087.3 1044.76C1090.62 1045.27 1093.93 1045.8 1097.24 1046.35C1100.28 1046.84 1103.33 1047.36 1106.36 1047.92L1094.42 1061.09C1091.75 1055.62 1089.1 1050.14 1086.51 1044.64C1086.77 1044.68 1087.03 1044.72 1087.3 1044.76ZM1063.74 956.207C1064.15 957.966 1064.63 959.692 1065.15 961.403C1066.22 964.811 1067.46 968.142 1068.79 971.434C1071.46 978.007 1074.5 984.401 1077.62 990.75C1080.73 997.1 1083.95 1003.39 1087.11 1009.7L1096.69 1028.6C1099.26 1033.66 1101.82 1038.73 1104.43 1043.79C1096.61 1036.44 1085.13 1025.67 1072.61 1013.91C1070.73 1009.55 1068.89 1005.17 1067.15 1000.76C1064.43 993.928 1061.83 987.051 1059.65 980.068C1058.55 976.58 1057.54 973.066 1056.75 969.522C1055.98 965.985 1055.36 962.384 1055.43 958.859C1055.45 958.188 1055.49 957.51 1055.59 956.855C1057.1 954.748 1058.53 952.681 1059.89 950.659C1059.95 950.628 1060.01 950.593 1060.07 950.561C1060.91 950.123 1061.83 949.809 1062.79 949.584C1062.79 949.993 1062.82 950.391 1062.84 950.794C1062.99 952.66 1063.33 954.448 1063.74 956.207ZM1062.83 947.911L1062.82 948.05C1062.34 948.145 1061.86 948.263 1061.39 948.403C1062.06 947.391 1062.7 946.393 1063.33 945.406C1063.04 946.237 1062.9 947.087 1062.83 947.911ZM1102.06 959.303C1098.76 957.585 1095.4 955.956 1091.99 954.451C1088.57 952.964 1085.09 951.603 1081.53 950.447C1077.98 949.307 1074.33 948.37 1070.59 947.919C1069.18 947.753 1067.76 947.661 1066.33 947.69C1066.4 947.16 1066.51 946.656 1066.7 946.204C1067.18 944.977 1068.1 944.09 1069.41 943.53C1070.72 942.99 1072.3 942.757 1073.94 942.729C1075.57 942.7 1077.26 942.851 1078.95 943.112C1080.64 943.368 1082.33 943.727 1084.02 944.135C1085.71 944.539 1087.39 945.007 1089.07 945.517L1110.68 964.112C1107.86 962.416 1104.98 960.818 1102.06 959.303ZM1114.67 953.727L1116.22 955.076C1116.73 955.52 1117.25 955.961 1117.76 956.402C1115.04 954.767 1112.27 953.219 1109.46 951.741C1107.98 950.971 1106.5 950.215 1105 949.48L1109.24 949.068L1109.23 949.006L1113.56 952.733C1113.92 953.075 1114.29 953.405 1114.67 953.727ZM1099.05 948.972C1099.11 948.996 1099.17 949.023 1099.24 949.048L1095.46 949.414L1096.67 948.086C1097.47 948.375 1098.26 948.67 1099.05 948.972ZM1101.28 949.845C1101.62 949.978 1101.95 950.113 1102.29 950.249L1101.97 955.615C1100.2 953.954 1098.31 952.178 1096.34 950.328L1101.28 949.845ZM1103.39 948.645L1103.65 944.217L1108.25 948.171L1103.39 948.645ZM1102.41 948.234C1101.55 947.831 1100.69 947.434 1099.83 947.048C1099.3 946.81 1098.78 946.582 1098.25 946.35L1101.71 942.538L1102.7 943.395L1102.41 948.234ZM1097.27 945.923C1096.48 945.584 1095.69 945.25 1094.89 944.923C1094.5 944.763 1094.1 944.614 1093.7 944.456C1094.36 944.273 1095.01 943.964 1095.59 943.47C1097.32 941.995 1097.09 939.782 1096.57 938.116L1100.94 941.881L1097.27 945.923ZM1094.07 947.163C1094.6 947.342 1095.12 947.53 1095.64 947.719L1094.68 948.776C1093.91 948.05 1093.13 947.314 1092.34 946.573C1092.92 946.767 1093.5 946.959 1094.07 947.163ZM1102.93 956.4L1103.27 950.642C1108.4 952.721 1113.49 954.96 1118.53 957.322L1111.77 964.77C1111.72 964.74 1111.67 964.708 1111.62 964.679C1109.49 962.684 1106.43 959.8 1102.79 956.388L1102.93 956.4ZM1090.33 932.744L1084.48 939.19C1083.08 937.879 1081.68 936.568 1080.3 935.27C1081.83 935.502 1083.67 935.401 1085.12 934.165C1086.72 932.804 1086.65 930.819 1086.22 929.21L1090.33 932.744ZM1076.56 921.357L1077.11 921.37L1084.67 927.879C1085.3 929.242 1086.21 931.915 1084.46 933.414C1082.77 934.855 1080.27 934.369 1078.85 933.911C1076.88 932.059 1074.94 930.243 1073.07 928.487C1074.39 925.925 1075.55 923.541 1076.56 921.357ZM1091.09 933.403L1094.87 936.656C1095.43 937.703 1096.94 940.988 1094.92 942.713C1093.96 943.526 1092.75 943.727 1091.62 943.663C1091.03 943.446 1090.45 943.225 1089.85 943.016C1089.18 942.775 1088.49 942.545 1087.8 942.316C1086.94 941.508 1086.08 940.694 1085.21 939.882L1091.09 933.403ZM1111.65 964.708C1111.69 964.73 1111.74 964.75 1111.78 964.773L1111.75 964.8C1111.72 964.769 1111.69 964.736 1111.65 964.708ZM1082.26 907.14C1083.72 911.623 1085.74 915.934 1087.95 920.117C1090.53 924.935 1093.52 929.529 1096.71 933.982L1099.23 937.232C1099.65 937.77 1100.06 938.323 1100.5 938.846L1101.82 940.416C1102.67 941.4 1103.49 942.399 1104.34 943.371C1095.89 935.43 1085.95 926.108 1077.85 918.5C1080.3 912.933 1081.67 908.984 1082.26 907.14ZM1071.82 916.818C1071.47 917.49 1071.13 918.162 1070.77 918.829L1070.77 915.917L1071.82 916.818ZM1062.9 909.145L1067.3 912.929L1062.91 912.829L1062.9 909.145ZM1057.45 913.829L1061.76 913.929L1061.76 917.879C1060.09 916.301 1058.63 914.932 1057.45 913.829ZM1062.91 918.948L1062.9 913.953L1068.64 914.085L1069.63 914.934L1069.63 920.071L1063.96 919.94C1063.61 919.604 1063.25 919.273 1062.91 918.948ZM1065.2 921.096L1069.51 921.194C1069.04 922.071 1068.56 922.941 1068.09 923.805C1067.09 922.869 1066.12 921.961 1065.2 921.096ZM1084.03 941.181C1082.51 940.766 1080.96 940.405 1079.39 940.122C1077.58 939.793 1075.74 939.567 1073.85 939.544C1071.96 939.528 1069.98 939.706 1068.05 940.477C1067.08 940.872 1066.14 941.437 1065.35 942.196C1065.33 942.21 1065.32 942.23 1065.3 942.244C1067.82 938.139 1070 934.284 1071.89 930.733L1084.03 941.181ZM1053.77 959.356C1053.75 961.044 1053.89 962.714 1054.11 964.363C1054.36 966.204 1054.69 968.03 1055.09 969.837C1055.89 973.455 1056.89 977.014 1057.99 980.536C1060.23 987.576 1062.84 994.485 1065.63 1001.32C1067.01 1004.68 1068.42 1008.01 1069.87 1011.34C1058.91 1001.04 1047.29 990.14 1036.72 980.215C1043.23 973.002 1048.88 965.999 1053.77 959.356ZM1025.26 976.467L1015.73 976.249L1015.73 968.266L1025.26 976.467ZM1000.71 955.34L1009.1 962.563L1000.71 962.369L1000.71 955.34ZM990.299 964.28L998.535 964.47L998.538 972.008C995.33 968.999 992.544 966.388 990.299 964.28ZM1000.71 974.053L1000.71 964.519L1011.67 964.771L1013.55 966.391L1013.55 976.198L1002.74 975.952C1002.05 975.302 1001.37 974.671 1000.71 974.053ZM1005.08 978.155L1013.55 978.35L1013.56 986.11C1010.58 983.315 1007.74 980.653 1005.08 978.155ZM1015.73 988.152L1015.73 978.401L1027.26 978.665C1023.73 982.275 1020.17 985.708 1016.6 988.966C1016.31 988.692 1016.02 988.419 1015.73 988.152ZM1047.78 1035.52C1044.43 1035.14 1041.07 1034.83 1037.71 1034.52C1034.35 1034.23 1030.99 1033.96 1027.62 1033.77C1020.89 1033.4 1014.15 1033.12 1007.4 1033.16C1000.66 1033.17 993.915 1033.42 987.2 1034.02C981.024 1034.57 974.871 1035.42 968.825 1036.73C988.881 1024.05 1005.56 1010.82 1019.39 997.86L1065.93 1037.92C1059.89 1037.02 1053.84 1036.23 1047.78 1035.52ZM1075.35 1042.98L1075.29 1044.05C1074.84 1043.63 1074.39 1043.2 1073.93 1042.78C1074.4 1042.84 1074.88 1042.91 1075.35 1042.98ZM1076.86 1045.53L1077.12 1045.55L1077.26 1043.25C1080.05 1043.65 1082.85 1044.08 1085.65 1044.51C1088.49 1050.08 1091.41 1055.61 1094.41 1061.09L1094.35 1061.16C1094.03 1061.12 1093.71 1061.08 1093.38 1061.04C1089.34 1057.24 1083.61 1051.86 1076.86 1045.53Z" fill="url(#paint6_linear_16_6)"/>
<path d="M176.147 1049.8C174.634 1059.89 177.33 1070.28 183.625 1078.61L195.529 1036.96L180.716 1019.33L176.147 1049.8Z" fill="#3010B9"/>
<path d="M137.73 965.694C138.476 968.247 139.789 970.612 141.52 972.671L180.719 1019.33L195.531 1036.96L237.603 1087.04L235.543 1107.84L234.107 1107.34C232.097 1106.64 230.378 1108.79 231.527 1110.57L241.778 1126.53C242.691 1127.95 244.89 1127.3 244.79 1125.64L244.188 1115.66L264.217 1077.72L218.427 1025.06C233.82 1024.16 267.963 1022.58 267.963 1022.58L255.236 1014.33C249.918 1010.88 243.72 1009.08 237.448 1009.18C227.651 1009.34 212.808 1009.52 204.75 1009.33L149.838 946.185C147.055 942.984 141.912 943.165 139.756 946.671C135.437 953.69 136.383 961.085 137.73 965.694Z" fill="#3D13C9"/>
<path d="M902.39 204.748C899.455 199.661 894.597 195.895 888.917 194.306L898.588 217.27L911.254 220.115L902.39 204.748Z" fill="#3010B9"/>
<path d="M948.887 229.484C947.656 228.587 946.248 227.973 944.768 227.64L911.25 220.115L898.584 217.271L862.606 209.194L856.098 199.07L856.897 198.801C858.016 198.426 857.993 196.855 856.862 196.445L846.762 192.779C845.861 192.45 845.143 193.506 845.777 194.224L849.583 198.529L854.426 222.628L892.927 230.584C886.603 236.328 872.417 248.867 872.417 248.867L880.847 248.189C884.37 247.905 887.684 246.571 890.357 244.354C894.534 240.89 900.88 235.666 904.427 232.958L950.595 242.498C952.933 242.981 955.09 241.117 954.775 238.783C954.147 234.12 951.109 231.104 948.887 229.484Z" fill="#3D13C9"/>
<path d="M1173.45 857.645L1171.32 874.917L1180.64 878.242L1181.11 878.41L1182.39 878.867L1198.33 883.413C1207.37 886.543 1214.23 894.005 1216.62 903.154C1219.74 915.064 1227.64 924.727 1238.8 928.435C1257.61 934.687 1278.56 921.647 1285.58 899.311C1292.61 876.974 1283.06 853.798 1264.25 847.545C1252.02 843.481 1238.89 847.573 1229.27 857.067C1222.98 863.27 1213.79 865.645 1205.14 862.979L1188.61 859.121L1187.79 858.98L1173.45 857.645ZM1198.21 882.597L1184.86 878.755L1185.32 876.346L1198.72 880.974L1198.21 882.597ZM1199.09 879.778L1185.55 875.103L1186.31 871.132L1200.3 875.96L1199.09 879.778ZM1200.67 874.773L1186.55 869.898L1187.6 864.361L1202.17 869.983L1200.67 874.773ZM1204.24 863.426L1202.55 868.792L1187.84 863.118L1188.48 859.742L1204.24 863.426Z" fill="#3D13C9"/>
</g>
<path opacity="0.6" d="M445.104 1058.4C433.245 1076.69 436.624 1100.42 451.997 1114.81C450.8 1116.25 449.658 1117.75 448.614 1119.36C434.312 1141.42 440.597 1170.89 462.652 1185.19C471.826 1191.14 482.276 1193.47 492.39 1192.65C481.601 1219.11 490.719 1250.34 515.58 1266.46C543.72 1284.7 581.323 1276.68 599.571 1248.53C604.479 1240.96 607.427 1232.7 608.652 1224.32C610.413 1225.92 612.282 1227.43 614.342 1228.77C634.875 1242.08 662.318 1236.23 675.637 1215.68C681 1207.41 683.201 1198.02 682.641 1188.89L682.686 1188.88L682.637 1188.85L622.916 1150.13L526.283 1087.48L459.792 1044.37L458.639 1043.62C458.639 1043.62 458.713 1044.1 458.846 1044.95C453.498 1048.28 448.757 1052.76 445.104 1058.4Z" fill="url(#paint7_linear_16_6)"/>
<path opacity="0.6" d="M304.742 501.474C302.339 505.18 303.111 510.046 306.341 513.038C306.098 513.329 305.864 513.633 305.652 513.959C302.754 518.43 304.145 524.479 308.761 527.472C310.682 528.717 312.857 529.226 314.95 529.088C312.792 534.47 314.778 540.889 319.982 544.263C325.872 548.082 333.644 546.553 337.342 540.849C338.337 539.314 338.924 537.633 339.154 535.922C339.523 536.255 339.915 536.569 340.347 536.849C344.645 539.636 350.318 538.52 353.016 534.358C354.104 532.68 354.532 530.767 354.388 528.896L354.396 528.895L354.386 528.888L341.886 520.784L321.662 507.671L307.746 498.649L307.506 498.493C307.506 498.493 307.522 498.592 307.553 498.766C306.45 499.429 305.482 500.333 304.742 501.474Z" fill="url(#paint8_linear_16_6)"/>
<path opacity="0.6" d="M709.895 60.7563C705.925 66.8795 707.198 74.9207 712.536 79.8631C712.133 80.3427 711.748 80.8449 711.399 81.384C706.609 88.7711 708.909 98.7672 716.536 103.712C719.708 105.768 723.298 106.611 726.761 106.381C723.197 115.275 726.476 125.877 735.074 131.452C744.803 137.76 757.645 135.234 763.754 125.811C765.398 123.276 766.365 120.498 766.745 117.671C767.356 118.22 768.004 118.74 768.716 119.201C775.818 123.806 785.187 121.963 789.646 115.085C791.441 112.317 792.15 109.154 791.912 106.061L791.928 106.058L791.913 106.048L771.261 92.6583L737.848 70.9949L714.856 56.0877L714.457 55.8292C714.457 55.8292 714.484 55.9924 714.534 56.2779C712.719 57.3766 711.119 58.8681 709.895 60.7563Z" fill="url(#paint9_linear_16_6)"/>
<path opacity="0.6" d="M825.563 1304.53C821.51 1310.78 822.812 1318.99 828.261 1324.03C827.85 1324.52 827.456 1325.03 827.1 1325.58C822.213 1333.12 824.559 1343.33 832.341 1348.37C835.577 1350.47 839.245 1351.33 842.777 1351.09C839.138 1360.17 842.485 1370.99 851.259 1376.68C861.19 1383.12 874.293 1380.54 880.529 1370.92C882.207 1368.34 883.196 1365.5 883.581 1362.62C884.203 1363.18 884.865 1363.71 885.59 1364.18C892.836 1368.88 902.4 1367 906.95 1359.98C908.782 1357.15 909.507 1353.93 909.263 1350.77L909.28 1350.76L909.261 1350.75L888.185 1337.09L854.084 1314.98L830.62 1299.77L830.214 1299.5C830.214 1299.5 830.241 1299.67 830.292 1299.96C828.443 1301.08 826.811 1302.61 825.563 1304.53Z" fill="url(#paint10_linear_16_6)"/>
<path opacity="0.6" d="M1092.76 550.761C1084.4 563.662 1087.08 580.608 1098.33 591.015C1097.48 592.028 1096.66 593.083 1095.93 594.219C1085.84 609.78 1090.68 630.84 1106.75 641.257C1113.43 645.589 1121 647.365 1128.29 646.881C1120.78 665.621 1127.69 687.957 1145.81 699.7C1166.3 712.991 1193.36 707.67 1206.23 687.816C1209.69 682.475 1211.73 676.622 1212.53 670.666C1213.82 671.824 1215.18 672.919 1216.68 673.892C1231.64 683.591 1251.38 679.708 1260.78 665.22C1264.56 659.385 1266.05 652.723 1265.55 646.208L1265.58 646.202L1265.55 646.18L1222.04 617.972L1151.65 572.33L1103.21 540.925L1102.37 540.381C1102.37 540.381 1102.43 540.728 1102.53 541.325C1098.71 543.643 1095.34 546.787 1092.76 550.761Z" fill="url(#paint11_linear_16_6)"/>
<path opacity="0.6" d="M1233.49 551.878C1221.05 571.068 1225.78 596.752 1243.49 612.871C1242.22 614.373 1241.01 615.937 1239.91 617.627C1224.91 640.773 1233.12 672.752 1258.26 689.053C1268.72 695.832 1280.45 698.778 1291.67 698.305C1280.76 726.342 1292.2 760.322 1320.54 778.699C1352.62 799.498 1394.15 792.416 1413.3 762.886C1418.45 754.939 1421.38 746.173 1422.4 737.206C1424.43 739 1426.57 740.703 1428.92 742.226C1452.33 757.403 1482.63 752.235 1496.6 730.684C1502.23 722.005 1504.29 711.997 1503.29 702.14L1503.34 702.13L1503.29 702.095L1435.21 657.954L1325.05 586.533L1249.25 537.39L1247.94 536.539C1247.94 536.539 1248.04 537.064 1248.22 537.972C1242.41 541.336 1237.32 545.968 1233.49 551.878Z" fill="url(#paint12_linear_16_6)"/>
<path d="M851.598 438.15C668.33 319.327 426.468 366.896 311.383 544.398C196.298 721.9 251.57 962.119 434.838 1080.94C618.106 1199.77 859.968 1152.2 975.053 974.694C1090.14 797.192 1034.87 556.973 851.598 438.15Z" fill="url(#paint13_linear_16_6)"/>
<path d="M795.011 1077.55C779.235 1078.87 757.888 1102.59 727.654 1103.22C704.777 1103.69 699.155 1130.22 697.2 1143.99C762.23 1136.91 824.72 1113.75 878.195 1075.78C866.527 1073.18 860.983 1076.99 844.977 1069.49C828.956 1061.99 810.787 1076.22 795.011 1077.55Z" fill="url(#paint14_linear_16_6)"/>
<path d="M988.886 654.291C1004.37 667.218 1010.62 694.386 1012.91 727.656C1015.21 760.927 978.136 762.893 971.004 778.492C963.871 794.093 973.006 826.018 959.034 842.962C945.065 859.908 966.066 873.525 979.692 893.917C987.278 905.271 996.744 915.151 1003.64 921.681C1050.05 816.092 1043.95 696.323 992.866 595.025C989.119 596.806 985.892 599.09 984.001 602.007C977.409 612.179 973.402 641.364 988.886 654.291Z" fill="url(#paint15_linear_16_6)"/>
<path d="M424.973 1022.54C432.885 1010.34 459.994 996.13 458.432 989.34C456.867 982.548 455.894 947.246 451.155 949.95C446.416 952.658 418.576 940.385 403.874 930.852C389.171 921.32 372.564 942.335 368.069 953.867C363.575 965.399 334.417 955.163 294.804 915.034C255.193 874.906 298.127 836.291 288.946 827.447C282.342 821.089 269.853 833.324 262.867 841.456C277.299 899.439 305.07 954.595 345.069 1001.97C351.846 995.291 363.654 992.001 371.142 990.531C381.407 988.514 417.06 1034.74 424.973 1022.54Z" fill="url(#paint16_linear_16_6)"/>
<path d="M299.093 564.787C259.288 635.618 245.041 714.882 253.869 791.751C254.948 801.151 256.375 810.514 258.139 819.824C258.546 819.094 276.258 787.369 285.094 787.386C294.033 787.404 330.222 828.202 354.644 841.148C379.064 854.092 427.371 885.412 429.178 901.03C430.985 916.647 456.43 941.813 459.313 946.571C462.194 951.327 491.403 938.486 504.543 941.224C517.68 943.965 533.193 952.73 534.482 954.859C537.363 959.615 579.469 940.686 591.826 940.032C604.184 939.376 609.997 925.811 609.997 925.811C609.997 925.811 653.177 896.021 654.249 885.162C655.325 874.303 659.817 862.769 663.774 856.666C667.731 850.563 654.642 824.743 645.215 807.073C635.788 789.404 618.306 728.952 603.067 724.852C587.829 720.75 523.503 681.935 524.039 676.502C524.576 671.074 560.187 616.15 556.522 607.997C552.858 599.845 647.08 551.142 649.474 538.249C651.869 525.356 684.495 511.838 688.209 496.912C691.922 481.985 712.19 469.123 711.948 460.297C711.705 451.472 714.928 418.893 717.566 414.823C720.203 410.756 643.178 409.93 626.376 399.036C609.574 388.142 515.352 436.845 487.999 442.224C460.646 447.604 437.152 493.046 410.58 501.821C384.008 510.595 311.375 544.404 311.375 544.404C307.034 551.105 302.959 557.912 299.093 564.787Z" fill="url(#paint17_linear_16_6)"/>
<path d="M315.717 850.581C312.053 842.428 311.029 830.207 305.754 838.344C300.478 846.481 294.91 868.874 305.166 866.854C305.166 866.854 319.382 858.733 315.717 850.581Z" fill="#EFDDAF"/>
<path opacity="0.44" d="M565.138 627.184L466.402 511.361L423.925 535.627L399.625 511.235L377.387 587.476L442.969 629.997L565.138 627.184Z" fill="url(#paint18_linear_16_6)"/>
<path d="M429.169 729.516L449.9 627.282L346.076 635.768L429.169 729.516Z" fill="#E4C197"/>
<path d="M346.076 635.768L449.9 627.282L398.597 554.07L346.076 635.768Z" fill="#D4A880"/>
<path d="M522.292 803.263L566.533 628.088L381.127 696.398L522.292 803.263Z" fill="#E4C197"/>
<path d="M381.127 696.398L566.533 628.088L429.618 568.096L381.127 696.398Z" fill="#D4A880"/>
<path opacity="0.44" d="M1107.17 694.658L1111.82 603.64C1111.82 603.64 1085.87 571.777 1056.12 563.767C1056.12 563.767 1039.02 560.2 1038 555.78C1036.98 551.36 1056.82 556.699 1056.82 556.699C1056.82 556.699 1106.41 570.048 1108.13 567.4C1109.84 564.752 1115 556.808 1115 556.808C1115 556.808 1137.06 642.574 1134.96 663.779L1119.82 699.098L1107.17 694.658Z" fill="url(#paint19_linear_16_6)"/>
<path d="M1239.18 731.503L1238.84 730.714C1238.84 730.714 1238.82 730.889 1238.79 731.197L1239.18 731.503Z" fill="#DEDEDE"/>
<path d="M1254.09 722.366C1250.59 717.2 1236.23 717.433 1236.21 717.208L1236.2 717.203C1236.44 718.633 1234.25 720.361 1233.76 725.347C1233.69 726.019 1233.52 727.845 1236.41 729.713C1237.19 730.073 1238 730.413 1238.84 730.71L1252.81 733.858C1254.32 731.791 1256.97 726.624 1254.09 722.366Z" fill="#EFF0F1"/>
<path d="M1233.76 725.349C1234.25 720.358 1236.44 718.633 1236.21 717.204C1236.14 716.834 1235.93 716.484 1235.47 716.104C1233.25 714.25 1239.26 710.269 1239.26 710.269L1238.52 701.505C1238.52 701.505 1222 706.54 1214.95 704.87C1214.95 704.87 1217.31 711.673 1222.7 718.524C1226.05 722.781 1230.57 727.047 1236.41 729.719C1233.52 727.849 1233.69 726.021 1233.76 725.349Z" fill="#DEDEDE"/>
<path d="M1235.47 716.104C1235.93 716.484 1236.14 716.834 1236.21 717.205L1236.21 717.208C1236.23 717.437 1250.59 717.201 1254.09 722.369C1256.97 726.626 1254.32 731.794 1252.81 733.865L1254.51 734.25C1261 733.483 1265.96 723.851 1263.33 718.004C1260.7 712.157 1243.85 712.42 1243.85 712.42C1243.97 711.197 1242.94 710.128 1241.7 710.175L1239.25 710.27C1239.25 710.27 1233.25 714.248 1235.47 716.104Z" fill="#E2E2E2"/>
<path d="M1238.05 730.614L1238.78 731.196C1238.82 730.887 1238.84 730.713 1238.84 730.713C1238 730.413 1237.2 730.077 1236.41 729.716C1236.88 730.015 1237.41 730.317 1238.05 730.614Z" fill="#DEDEDE"/>
<path d="M1233.42 688.253L1231.31 669.068L1231.18 668.367C1220.53 672.821 1215.03 681.354 1215.03 681.354C1217.67 674.983 1224.6 669.643 1230.74 665.948L1230.09 662.439C1214.53 666.555 1207.76 680.32 1207.76 680.32C1210.65 670.185 1223.72 661.327 1229.26 657.956L1228.18 652.121C1230.92 640.637 1225.53 638.387 1225.53 638.387C1225.53 638.387 1228.83 629.336 1221.32 632.341C1213.81 635.347 1220.9 652.787 1220.9 652.787L1221.31 656.78L1203.45 667.166L1205.95 682.457C1200.81 685.76 1200.3 699.097 1200.3 699.097C1200.3 699.097 1223.25 701.961 1238.99 696.83L1233.42 688.253Z" fill="#F8F8F8"/>
<path d="M1215.03 681.352C1215.03 681.352 1220.53 672.817 1231.18 668.365L1230.73 665.946C1224.6 669.642 1217.66 674.981 1215.03 681.352Z" fill="#DEDEDE"/>
<path d="M1207.76 680.32C1207.76 680.32 1214.53 666.555 1230.09 662.439L1229.26 657.956C1223.72 661.323 1210.64 670.184 1207.76 680.32Z" fill="#DEDEDE"/>
<path d="M1142.86 711.303L1142.86 711.305L1142.86 711.3L1142.86 711.303Z" fill="#DEDEDE"/>
<path d="M1228.89 770.724C1219.51 766.656 1210.25 752.378 1210.25 752.378L1209.46 752.278C1209.46 752.278 1208.46 762.402 1207.59 763.081C1206.72 763.761 1216.62 768.941 1217.41 769.037C1218.21 769.137 1224.46 770.705 1224.46 770.705L1228.46 773.293L1228.89 770.724Z" fill="#DEDEDE"/>
<path d="M1226.57 789.892C1230.05 787.172 1227.88 776.65 1227.88 776.65L1228.46 773.293L1224.46 770.705L1224.15 773.82C1224.15 773.82 1219.91 784.327 1222.61 789.395C1225.32 794.468 1226.57 789.892 1226.57 789.892Z" fill="#F1EFF1"/>
<path d="M1228.89 770.724L1231.7 754.265C1236.72 747.115 1238.47 733.865 1238.78 731.198L1238.04 730.617C1237.41 730.319 1236.87 730.018 1236.41 729.717C1230.56 727.045 1226.05 722.78 1222.7 718.522L1143.24 711.336C1143.36 711.782 1143.5 712.186 1143.66 712.53C1143.66 712.53 1143.34 712.13 1142.86 711.302L1142.86 711.298C1141.72 709.353 1139.68 705.022 1138.72 697.719L1129.22 696.533L1129.07 698.09L1128.27 697.99C1128.27 697.99 1136.97 723.515 1145.85 730.932L1147.28 732.687L1160.03 733.489L1162.09 736.9L1172.54 736.627L1172.38 738.184L1202.62 740.38C1203.74 745.248 1209.46 752.271 1209.46 752.271L1210.25 752.371C1210.25 752.371 1219.51 766.655 1228.89 770.724Z" fill="#F1EFF1"/>
<path d="M1143.67 712.532C1143.5 712.188 1143.37 711.784 1143.24 711.338L1142.86 711.305C1143.35 712.131 1143.67 712.532 1143.67 712.532Z" fill="#DEDEDE"/>
<path d="M1128.28 697.996L1106.9 695.328C1093.82 714.193 1109.13 729.508 1109.13 729.508L1145.86 730.936C1136.97 723.521 1128.28 697.996 1128.28 697.996Z" fill="#DEDEDE"/>
<path d="M1222.7 718.524C1217.31 711.673 1214.95 704.87 1214.95 704.87C1222 706.537 1238.52 701.505 1238.52 701.505L1238.98 696.833C1223.25 701.964 1200.29 699.1 1200.29 699.1L1142.91 695.881C1142.91 695.881 1141.88 706.374 1143.25 711.34L1222.7 718.524Z" fill="white"/>
<path d="M1142.86 711.301L1142.86 711.305L1143.24 711.338C1141.88 706.374 1142.91 695.879 1142.91 695.879L1138.72 697.722C1139.69 705.028 1141.73 709.357 1142.86 711.301Z" fill="#DEDEDE"/>
<path d="M1248.98 721.336C1248.53 721.865 1248.22 722.484 1248.08 723.13C1248.01 723.452 1247.98 723.776 1247.99 724.103C1248 724.429 1248.07 724.748 1248.14 725.065L1248.24 725.512L1247.77 725.47C1245.39 725.254 1243.02 724.944 1240.66 724.493L1240.9 724.385C1240.68 724.689 1240.48 725.051 1240.37 725.419C1240.25 725.792 1240.23 726.207 1240.45 726.582C1240.13 726.283 1240.03 725.787 1240.08 725.359C1240.12 724.914 1240.26 724.508 1240.47 724.107L1240.53 723.987L1240.71 723.998C1243.1 724.141 1245.47 724.421 1247.84 724.798L1247.47 725.201C1247.34 724.46 1247.38 723.675 1247.65 722.993C1247.92 722.31 1248.39 721.719 1248.98 721.336Z" fill="#DEDEDE"/>
<path d="M1247.41 727.816C1247.36 728.137 1247.33 728.404 1247.3 728.663C1247.28 728.921 1247.25 729.165 1247.26 729.41C1247.26 729.657 1247.27 729.904 1247.3 730.169C1247.31 730.437 1247.35 730.714 1247.34 731.046C1246.78 730.689 1246.48 730.043 1246.47 729.387C1246.48 728.74 1246.79 728.061 1247.41 727.816Z" fill="#DEDEDE"/>
<path opacity="0.44" d="M847.248 1023.8L882.497 1040.92L903.806 1019.51L907.237 998.033C908.813 998.364 909.156 995.748 908.815 991.737C907.867 980.574 901.587 958.516 901.587 958.516C902.422 957.971 902.833 955.211 902.974 951.335C903.438 938.835 901.098 914.602 901.098 914.602C902.31 914.042 902.873 912.306 903.022 909.852C903.253 906.116 902.531 900.708 901.678 895.172C901.179 891.932 900.638 888.654 900.217 885.645C899.715 882.047 899.385 878.834 899.518 876.548C899.807 871.515 896.975 866.836 893.864 863.003C891.026 859.507 887.957 856.715 886.794 855.021C886.526 854.634 886.366 854.053 886.266 853.368C886.014 851.67 886.208 849.21 886.612 846.573C886.946 844.407 887.414 842.153 887.877 840.135C888.71 836.519 889.531 833.688 889.531 833.688C889.531 833.688 889.798 833.338 890.193 832.786C890.851 831.862 891.886 830.322 892.811 828.56C893.327 827.584 893.802 826.55 894.153 825.527C895.513 821.551 890.641 814.445 890.641 814.445C892.272 812.355 894.726 802.524 894.726 802.524C897.448 794.576 897.753 769.69 897.753 769.69L899.921 771.36L900.191 773.24L905.889 772.608L905.619 770.727L907.248 768.634L906.882 766.079L906.44 762.989L905.902 759.225L907.265 755.251C907.602 749.4 905.628 747.351 904.03 746.635C905.076 746.252 906.032 745.697 906.734 744.795C909.996 740.609 908.918 733.083 901.054 732.044C893.186 731.003 892.649 727.243 892.649 727.243C892.649 727.243 891.018 729.334 893.187 731.008C893.187 731.008 886.681 725.995 883.151 728.298C879.621 730.6 877.185 727.047 877.185 727.047C877.185 727.047 878.531 736.456 884.229 735.824C889.914 735.193 887.487 744.977 893.403 746.26C892.267 749.113 892.07 756.938 892.07 756.938L881.073 793.522L872.911 794.427C872.7 794.202 872.442 793.999 872.138 793.816L881.454 783.922L869.234 792.923L875.218 780.79L867.038 793.202C866.919 793.221 866.798 793.278 866.679 793.304C866.26 793.228 865.839 793.158 865.402 793.106L863.553 780.168L862.539 792.939C861.281 792.928 859.985 792.988 858.653 793.136C857.016 793.318 855.622 793.892 854.404 794.733L845.906 791.681L852.335 796.637C850.929 798.3 849.87 800.427 849.072 802.798L838.021 804.024L848.386 805.121C847.352 809.155 846.906 813.585 846.687 817.4C846.132 827.019 850.469 830.362 850.469 830.362L846.939 832.664C841.241 833.297 824.097 875.342 825.423 898.133C826.751 920.926 840.586 923.215 840.586 923.215L845.895 1003.44L842.922 1007.07L846.166 1016.27L846.69 1015.45L847.248 1023.8ZM871.656 816.554L871.118 812.789L872.749 810.699C873.141 810.197 873.492 809.463 873.812 808.663L873.822 808.67L873.937 808.374C874.888 805.874 875.471 802.751 875.471 802.751C875.583 801.712 875.519 800.766 875.327 799.901L877.919 799.612L874.855 798.512C874.604 797.958 874.298 797.443 873.917 796.971C873.902 796.676 873.87 796.357 873.779 796.016C875.935 795.452 879.017 794.515 880.967 793.913L879.001 800.449L871.656 816.554Z" fill="url(#paint20_linear_16_6)"/>
<path d="M840.628 1031.81L839.89 1031.14L839.382 1040.76L843.297 1043.61L840.628 1031.81Z" fill="#84BBE8"/>
<path d="M938.751 1202.35C937.352 1200.86 935.908 1199.6 935.009 1198.85C929.73 1207.64 932.315 1225.11 932.315 1225.11C932.051 1212.91 936.132 1205.11 938.751 1202.35Z" fill="#84BBE8"/>
<path d="M929.58 1219.69C926.42 1209.06 929.47 1196.43 930.663 1192.25C929.634 1190.4 928.538 1188.33 927.595 1186.31C920.614 1195.69 929.58 1219.69 929.58 1219.69Z" fill="#84BBE8"/>
<path d="M960.938 1261.97C966.075 1257.55 970.706 1262.75 970.706 1262.75L970.249 1259.66C963.416 1256.93 960.938 1261.97 960.938 1261.97Z" fill="#84BBE8"/>
<path d="M967.468 1266.95C966.126 1270.93 971.316 1279.89 971.316 1279.89C971.316 1279.89 977.01 1279.23 973.721 1270.05L971.267 1266.51C971.267 1266.51 968.81 1262.97 967.468 1266.95Z" fill="#D7EFFD"/>
<path d="M918.925 1199.88C919.777 1188.4 923.132 1182.51 925.316 1179.81C925.218 1179.13 925.206 1178.53 925.355 1178.1C925.993 1176.2 928.165 1172.81 929.911 1168.79C917.351 1177.17 918.925 1199.88 918.925 1199.88Z" fill="#84BBE8"/>
<path d="M867.752 1154.16C867.752 1154.16 862.058 1154.83 859.881 1153.16C857.704 1151.5 864.463 1144.98 868.537 1146.42C869.683 1146.83 870.897 1147.69 872.054 1148.74L872.699 1142.37C869.712 1134.6 863.873 1121.66 861.679 1126.17C858.718 1132.25 855.809 1151.72 858.541 1157.14C860.92 1161.86 868.617 1163.06 870.58 1163.3L871.088 1158.28L867.752 1154.16Z" fill="#74ADDF"/>
<path d="M923.937 1233.74L920.14 1234.18C920.14 1234.18 915.508 1228.97 911.433 1227.54C907.359 1226.09 906.523 1220.45 904.346 1218.79C902.168 1217.13 901.056 1209.61 896.98 1208.17C896.98 1208.17 900.219 1203.97 904.067 1216.91C904.067 1216.91 910.319 1220.01 910.874 1223.77C910.874 1223.77 909.76 1216.25 911.38 1214.15C913 1212.05 918.694 1211.39 918.694 1211.39C918.694 1211.39 914.62 1209.95 912.722 1210.17C910.825 1210.39 909.202 1212.49 909.202 1212.49L907.255 1199.33L905.358 1199.55C905.358 1199.55 900.448 1192.46 898.552 1192.68L861.182 1056.63L843.298 1043.62L861.121 1122.42C861.121 1122.42 848.392 1127.72 853.631 1150.07C858.87 1172.41 887.492 1209.27 893.186 1208.61L897.26 1210.05C897.26 1210.05 894.021 1214.25 897.311 1223.44C900.6 1232.62 906.346 1245.35 915.837 1244.25C925.328 1243.14 932.362 1238.51 929.351 1231.2C929.351 1231.2 927.891 1228.31 926.258 1226.1L926.061 1225.84C926.065 1225.84 923.101 1228.1 923.937 1233.74ZM877.778 1156.12C877.773 1156.46 877.781 1156.69 877.801 1156.83C877.909 1157.55 877.772 1158.58 877.46 1159.59L875.169 1178.17L869.198 1176.95L870.583 1163.3C868.622 1163.07 860.924 1161.86 858.543 1157.14C855.811 1151.72 858.72 1132.26 861.682 1126.17C863.878 1121.66 869.717 1134.61 872.701 1142.37L873.906 1130.5L879.88 1131.72C879.88 1131.72 877.842 1151.78 877.778 1156.12Z" fill="#84BBE8"/>
<path d="M893.414 1053.63C892.629 1061.37 902.121 1060.27 897.262 1066.57C892.404 1072.87 886.988 1075.41 886.988 1075.41L861.185 1056.63L898.555 1192.68C900.452 1192.46 905.361 1199.54 905.361 1199.54L907.258 1199.32L909.206 1212.49C909.206 1212.49 910.826 1210.38 912.725 1210.17C914.621 1209.95 918.697 1211.38 918.697 1211.38C918.697 1211.38 913.003 1212.05 911.383 1214.15C909.763 1216.25 910.877 1223.77 910.877 1223.77C910.322 1220.01 904.071 1216.91 904.071 1216.91C900.222 1203.96 896.984 1208.16 896.984 1208.16C901.058 1209.6 902.171 1217.12 904.349 1218.79C906.526 1220.45 907.362 1226.09 911.436 1227.53C915.51 1228.97 920.143 1234.17 920.143 1234.17L923.94 1233.73C923.105 1228.09 926.068 1225.83 926.068 1225.83L926.264 1226.09C925.66 1225.28 925.036 1224.56 924.448 1224.11L922.271 1222.45L921.713 1218.68L933.431 1232.63L958.538 1271.8C958.538 1271.8 962.105 1282.87 964.005 1282.65L964.283 1284.53L971.873 1283.65L971.316 1279.88C971.316 1279.88 966.128 1270.92 967.467 1266.94C968.809 1262.96 971.265 1266.5 971.265 1266.5L970.707 1262.74C970.707 1262.74 966.076 1257.53 960.939 1261.96C960.939 1261.96 963.417 1256.92 970.25 1259.65L969.872 1257.09L967.694 1255.43L967.416 1253.55L961.723 1254.23L962.001 1256.1L960.381 1258.21C960.381 1258.21 952.964 1234.2 948.055 1227.11C948.055 1227.11 942.867 1218.15 940.69 1216.49C940.69 1216.49 943.371 1208.53 940.919 1204.99C940.289 1204.08 939.53 1203.18 938.751 1202.35C936.131 1205.11 932.051 1212.91 932.312 1225.11C932.312 1225.11 929.727 1207.64 935.007 1198.85C934.467 1198.4 934.106 1198.12 934.106 1198.12C934.106 1198.12 932.502 1195.57 930.659 1192.25C929.466 1196.43 926.415 1209.06 929.576 1219.69C929.576 1219.69 920.61 1195.69 927.593 1186.31C926.445 1183.85 925.555 1181.51 925.312 1179.81C923.13 1182.51 919.773 1188.41 918.921 1199.88C918.921 1199.88 917.344 1177.17 929.902 1168.8C931.816 1164.39 933.22 1159.23 931.497 1154.43C930.715 1152.24 930.115 1149.06 929.57 1145.47C928.404 1147.29 926.973 1150.29 925.803 1155.09C923.4 1164.93 918.261 1169.35 915.299 1175.43C912.337 1181.52 912.389 1194.9 912.389 1194.9C912.389 1194.9 909.882 1177.98 912.844 1171.89C915.805 1165.81 922.56 1159.29 922.006 1155.53C921.526 1152.3 923.817 1138.87 928.255 1135.92C927.497 1130.38 926.647 1124.98 925.356 1121.42C923.675 1121.39 921.874 1122.09 921.348 1124.99C920.286 1130.86 923.574 1140.04 916.818 1146.56C910.06 1153.09 910.388 1168.35 908.491 1168.57C906.595 1168.79 901.507 1186.6 901.507 1186.6C901.507 1186.6 904.694 1169.01 906.314 1166.91C907.934 1164.81 909.501 1149.32 912.741 1145.12C915.981 1140.92 918.665 1132.96 918.384 1131.08C918.106 1129.2 920.232 1117.47 922.13 1117.25C922.13 1117.25 917.457 1093.28 913.431 1081.29C912.564 1081.36 911.789 1082.06 911.424 1084.06C910.363 1089.92 915.373 1123.77 911.856 1126.09C908.339 1128.41 902.469 1153.96 901.403 1159.82C900.34 1165.68 899.052 1183.05 899.052 1183.05C899.052 1183.05 898.952 1156.28 900.291 1152.3C901.633 1148.32 904.82 1130.73 906.44 1128.63C908.06 1126.53 912.919 1120.23 909.351 1109.16C905.783 1098.1 904.618 1077.19 910.033 1074.65C910.033 1074.65 909.796 1051.91 907.517 1040.89C903.933 1042.46 894.055 1047.3 893.414 1053.63Z" fill="#CAE4F6"/>
<path d="M922.012 1155.53C922.57 1159.29 915.812 1165.81 912.85 1171.89C909.889 1177.98 912.395 1194.9 912.395 1194.9C912.395 1194.9 912.344 1181.52 915.306 1175.43C918.268 1169.35 923.404 1164.93 925.81 1155.09C926.98 1150.29 928.413 1147.29 929.576 1145.47C929.12 1142.46 928.707 1139.17 928.263 1135.92C923.824 1138.87 921.533 1152.3 922.012 1155.53Z" fill="#84BBE8"/>
<path d="M861.183 1056.63L886.986 1075.42C886.986 1075.42 892.402 1072.88 897.261 1066.57C902.119 1060.27 892.628 1061.37 893.412 1053.63C894.053 1047.3 903.929 1042.46 907.524 1040.9C906.705 1036.95 905.624 1034.49 904.192 1035.17C904.192 1035.17 892.02 1044.23 888.782 1048.43C885.543 1052.63 892.349 1059.49 894.805 1063.03C897.261 1066.57 886.708 1073.54 886.708 1073.54L840.626 1031.81L843.295 1043.61L861.183 1056.63Z" fill="#84BBE8"/>
<path d="M918.393 1131.08C918.672 1132.96 915.989 1140.92 912.751 1145.12C909.512 1149.32 907.943 1164.81 906.323 1166.91C904.703 1169.02 901.516 1186.6 901.516 1186.6C901.516 1186.6 906.603 1168.8 908.501 1168.57C910.397 1168.35 910.07 1153.09 916.827 1146.57C923.586 1140.04 920.295 1130.86 921.358 1125C921.884 1122.09 923.685 1121.39 925.365 1121.42C924.516 1119.08 923.476 1117.53 922.142 1117.25C920.243 1117.47 918.117 1129.2 918.393 1131.08Z" fill="#84BBE8"/>
<path d="M909.359 1109.17C912.926 1120.23 908.068 1126.53 906.448 1128.64C904.828 1130.74 901.641 1148.32 900.299 1152.31C898.957 1156.29 899.06 1183.06 899.06 1183.06C899.06 1183.06 900.35 1165.69 901.411 1159.83C902.474 1153.96 908.345 1128.42 911.864 1126.1C915.383 1123.78 910.371 1089.92 911.432 1084.06C911.792 1082.07 912.572 1081.37 913.439 1081.3C912.189 1077.58 911.005 1075 910.042 1074.66C904.626 1077.2 905.791 1098.1 909.359 1109.17Z" fill="#84BBE8"/>
<path d="M877.801 1156.83L877.46 1159.59C877.772 1158.58 877.906 1157.55 877.801 1156.83Z" fill="#84BBE8"/>
<path d="M877.778 1156.12C877.843 1151.78 879.876 1131.72 879.876 1131.72L873.901 1130.5L872.697 1142.37L872.052 1148.75C875.006 1151.45 877.599 1155.48 877.797 1156.83C877.781 1156.69 877.773 1156.46 877.778 1156.12Z" fill="#C8E4FB"/>
<path d="M875.169 1178.17L877.46 1159.59C876.962 1161.21 876.009 1162.77 874.841 1162.91L871.091 1158.28L870.583 1163.3L869.198 1176.95L875.169 1178.17Z" fill="#C8E4FB"/>
<path d="M859.881 1153.16C862.058 1154.83 867.752 1154.16 867.752 1154.16L871.087 1158.28L874.837 1162.91C876.006 1162.77 876.958 1161.21 877.456 1159.59L877.797 1156.83C877.596 1155.48 875.004 1151.45 872.052 1148.75C870.895 1147.69 869.681 1146.83 868.535 1146.42C864.463 1144.98 857.706 1151.5 859.881 1153.16Z" fill="#CDE5F9"/>
<path d="M886.707 1073.53C886.707 1073.53 897.26 1066.57 894.804 1063.03C892.35 1059.49 885.542 1052.63 888.781 1048.43C892.019 1044.23 904.191 1035.16 904.191 1035.16L903.026 1014.25L867.975 999.186L881.085 1068.45L886.707 1073.53Z" fill="#D1E7F9"/>
<path d="M840.628 1031.81L881.09 1068.45L867.981 999.187L838.776 1023.62L840.628 1031.81Z" fill="#84BBE8"/>
<path d="M892.759 1238.31L910.789 1236.22C911.329 1236.63 911.881 1237.04 912.442 1237.44L903.917 1248.49L916.646 1240.09C917.342 1240.48 918.033 1240.82 918.717 1241.12L924.289 1255.69L922.295 1242.22C922.864 1242.31 923.41 1242.34 923.931 1242.31L935.398 1252.49L926.137 1242.09L940.538 1248.07L928.69 1240.58C928.931 1240.33 929.121 1240.08 929.263 1239.81L939.147 1238.67C939.147 1238.67 933.151 1238.19 929.642 1238.09C929.604 1236.94 929.101 1236.01 929.101 1236.01L932.62 1233.69L928.823 1234.13C922.065 1240.65 904.932 1229.25 903.035 1229.47C903.035 1229.47 904.716 1231.15 907.2 1233.29L892.759 1238.31Z" fill="#CAE8FC"/>
<path d="M918.724 1218.08L920.621 1217.86L921.733 1225.38C921.733 1225.38 919.837 1225.6 917.937 1225.82C916.041 1226.04 917.659 1223.94 919.557 1223.72L921.454 1223.5L918.724 1218.08Z" fill="#84BBE8"/>
<path d="M962.912 1281.83C964.624 1281.02 971.845 1276.96 976.199 1280.29C980.554 1283.61 981.666 1291.13 974.354 1293.89C967.04 1296.65 967.596 1300.41 967.596 1300.41C967.596 1300.41 965.419 1298.75 967.039 1296.65C967.039 1296.65 962.181 1302.95 958.107 1301.51C954.033 1300.07 952.691 1304.05 952.691 1304.05C952.691 1304.05 951.301 1294.65 956.995 1293.99C962.683 1293.33 957.497 1284.37 962.912 1281.83Z" fill="#CAE4F6"/>
<path opacity="0.6" d="M609.633 862.656C604.166 871.088 605.923 882.16 613.272 888.963C612.718 889.625 612.189 890.316 611.708 891.058C605.114 901.228 608.281 914.992 618.782 921.8C623.149 924.632 628.094 925.79 632.859 925.474C627.952 937.721 632.467 952.32 644.304 959.995C657.702 968.681 675.382 965.204 683.795 952.228C686.058 948.737 687.392 944.911 687.912 941.017C688.753 941.773 689.645 942.49 690.627 943.126C700.402 949.464 713.306 946.929 719.446 937.458C721.919 933.644 722.893 929.289 722.566 925.035L722.587 925.031L722.564 925.016L694.127 906.579L648.119 876.749L616.462 856.224L615.913 855.868C615.913 855.868 615.95 856.095 616.02 856.486C613.521 858.003 611.316 860.06 609.633 862.656Z" fill="url(#paint21_linear_16_6)"/>
<path opacity="0.6" d="M971.628 718.164C957.652 739.721 962.138 768.027 980.931 785.418C979.514 787.11 978.158 788.874 976.927 790.772C960.07 816.772 968.166 851.96 995.011 869.364C1006.17 876.602 1018.82 879.568 1031 878.758C1018.45 910.067 1030 947.387 1060.26 967.008C1094.51 989.213 1139.71 980.323 1161.22 947.152C1167 938.227 1170.41 928.449 1171.74 918.498C1173.89 920.43 1176.17 922.263 1178.68 923.887C1203.67 940.092 1236.66 933.605 1252.35 909.398C1258.67 899.649 1261.16 888.517 1260.33 877.636L1260.38 877.625L1260.33 877.588L1187.63 830.458L1070.02 754.202L989.092 701.732L987.689 700.822C987.689 700.822 987.785 701.4 987.958 702.403C981.57 706.267 975.935 711.522 971.628 718.164Z" fill="url(#paint22_linear_16_6)"/>
<path opacity="0.6" d="M711.336 319.544C711.336 303.245 699.179 289.726 683.171 286.953C683.341 285.563 683.455 284.156 683.455 282.721C683.455 263.063 667 247.126 646.704 247.126C638.263 247.126 630.509 249.911 624.304 254.546C620.176 233.55 601.151 217.667 578.269 217.667C552.373 217.667 531.379 238 531.379 263.081C531.379 269.829 532.94 276.209 535.665 281.968C533.854 281.681 532.005 281.493 530.111 281.493C511.213 281.493 495.893 296.33 495.893 314.634C495.893 322.004 498.408 328.79 502.61 334.295L502.586 334.319H502.629H557.59H646.519H707.71H708.772C708.772 334.319 708.518 334.044 708.083 333.572C710.151 329.307 711.336 324.565 711.336 319.544Z" fill="url(#paint23_linear_16_6)"/>
</g>
<defs>
<linearGradient id="paint0_linear_16_6" x1="644.696" y1="1046.49" x2="609.267" y2="1169.39" gradientUnits="userSpaceOnUse">
<stop stop-color="#606060"/>
<stop offset="1" stop-color="#606060" stop-opacity="0"/>
</linearGradient>
<linearGradient id="paint1_linear_16_6" x1="408.149" y1="800.517" x2="274.43" y2="842.037" gradientUnits="userSpaceOnUse">
<stop stop-color="#606060"/>
<stop offset="1" stop-color="#606060" stop-opacity="0"/>
</linearGradient>
<linearGradient id="paint2_linear_16_6" x1="393.636" y1="591.076" x2="299.286" y2="549.594" gradientUnits="userSpaceOnUse">
<stop stop-color="#606060"/>
<stop offset="1" stop-color="#606060" stop-opacity="0"/>
</linearGradient>
<linearGradient id="paint3_linear_16_6" x1="466.698" y1="951.849" x2="410.644" y2="1013.11" gradientUnits="userSpaceOnUse">
<stop stop-color="#606060"/>
<stop offset="1" stop-color="#606060" stop-opacity="0"/>
</linearGradient>
<linearGradient id="paint4_linear_16_6" x1="1043.71" y1="498.642" x2="1138.1" y2="408.72" gradientUnits="userSpaceOnUse">
<stop stop-color="#606060"/>
<stop offset="1" stop-color="#606060" stop-opacity="0"/>
</linearGradient>
<linearGradient id="paint5_linear_16_6" x1="812.126" y1="221.52" x2="664.907" y2="278.07" gradientUnits="userSpaceOnUse">
<stop stop-color="#606060"/>
<stop offset="0.7882" stop-color="#606060" stop-opacity="0.2118"/>
<stop offset="1" stop-color="#606060" stop-opacity="0"/>
</linearGradient>
<linearGradient id="paint6_linear_16_6" x1="1114.55" y1="934.345" x2="928.833" y2="1143.23" gradientUnits="userSpaceOnUse">
<stop stop-color="#606060"/>
<stop offset="1" stop-color="#606060" stop-opacity="0"/>
</linearGradient>
<linearGradient id="paint7_linear_16_6" x1="413.422" y1="1107.26" x2="647.519" y2="1259.04" gradientUnits="userSpaceOnUse">
<stop stop-color="white"/>
<stop offset="0.9966" stop-color="white" stop-opacity="0"/>
</linearGradient>
<linearGradient id="paint8_linear_16_6" x1="298.321" y1="511.378" x2="347.314" y2="543.143" gradientUnits="userSpaceOnUse">
<stop stop-color="white"/>
<stop offset="0.9966" stop-color="white" stop-opacity="0"/>
</linearGradient>
<linearGradient id="paint9_linear_16_6" x1="699.285" y1="77.1177" x2="780.232" y2="129.6" gradientUnits="userSpaceOnUse">
<stop stop-color="white"/>
<stop offset="0.9966" stop-color="white" stop-opacity="0"/>
</linearGradient>
<linearGradient id="paint10_linear_16_6" x1="814.735" y1="1321.23" x2="897.347" y2="1374.79" gradientUnits="userSpaceOnUse">
<stop stop-color="white"/>
<stop offset="0.9966" stop-color="white" stop-opacity="0"/>
</linearGradient>
<linearGradient id="paint11_linear_16_6" x1="1070.41" y1="585.235" x2="1240.95" y2="695.807" gradientUnits="userSpaceOnUse">
<stop stop-color="white"/>
<stop offset="0.9966" stop-color="white" stop-opacity="0"/>
</linearGradient>
<linearGradient id="paint12_linear_16_6" x1="1200.24" y1="603.157" x2="1467.1" y2="776.18" gradientUnits="userSpaceOnUse">
<stop stop-color="white"/>
<stop offset="0.9966" stop-color="white" stop-opacity="0"/>
</linearGradient>
<linearGradient id="paint13_linear_16_6" x1="730.513" y1="1138.94" x2="580.332" y2="375.352" gradientUnits="userSpaceOnUse">
<stop stop-color="#B5FAFA"/>
<stop offset="1" stop-color="#7695EA"/>
</linearGradient>
<linearGradient id="paint14_linear_16_6" x1="835.843" y1="1141.1" x2="733.044" y2="1074.45" gradientUnits="userSpaceOnUse">
<stop stop-color="#EFDDAF"/>
<stop offset="1" stop-color="#7EBE7A"/>
</linearGradient>
<linearGradient id="paint15_linear_16_6" x1="1076.6" y1="809.152" x2="916.854" y2="705.578" gradientUnits="userSpaceOnUse">
<stop stop-color="#EFDDAF"/>
<stop offset="1" stop-color="#7EBE7A"/>
</linearGradient>
<linearGradient id="paint16_linear_16_6" x1="382.127" y1="884.873" x2="284.747" y2="1028.17" gradientUnits="userSpaceOnUse">
<stop stop-color="#EFDDAF"/>
<stop offset="1" stop-color="#7EBE7A"/>
</linearGradient>
<linearGradient id="paint17_linear_16_6" x1="728.047" y1="772.816" x2="330.431" y2="515.019" gradientUnits="userSpaceOnUse">
<stop stop-color="#EFDDAF"/>
<stop offset="1" stop-color="#C7BE7A"/>
</linearGradient>
<linearGradient id="paint18_linear_16_6" x1="510.005" y1="667.327" x2="405.233" y2="496.043" gradientUnits="userSpaceOnUse">
<stop stop-color="#606060"/>
<stop offset="1" stop-color="#606060" stop-opacity="0"/>
</linearGradient>
<linearGradient id="paint19_linear_16_6" x1="1150.73" y1="651.436" x2="1027.39" y2="571.469" gradientUnits="userSpaceOnUse">
<stop stop-color="#606060"/>
<stop offset="1" stop-color="#606060" stop-opacity="0"/>
</linearGradient>
<linearGradient id="paint20_linear_16_6" x1="891.044" y1="1008.45" x2="866.658" y2="753.297" gradientUnits="userSpaceOnUse">
<stop stop-color="#606060"/>
<stop offset="1" stop-color="#606060" stop-opacity="0"/>
</linearGradient>
<linearGradient id="paint21_linear_16_6" x1="595.025" y1="885.187" x2="706.481" y2="957.451" gradientUnits="userSpaceOnUse">
<stop stop-color="white"/>
<stop offset="0.9966" stop-color="white" stop-opacity="0"/>
</linearGradient>
<linearGradient id="paint22_linear_16_6" x1="934.285" y1="775.762" x2="1219.22" y2="960.5" gradientUnits="userSpaceOnUse">
<stop stop-color="white"/>
<stop offset="0.9966" stop-color="white" stop-opacity="0"/>
</linearGradient>
<linearGradient id="paint23_linear_16_6" x1="711.337" y1="275.994" x2="495.896" y2="275.994" gradientUnits="userSpaceOnUse">
<stop stop-color="white"/>
<stop offset="0.9966" stop-color="white" stop-opacity="0"/>
</linearGradient>
</defs>
</svg>
