<svg width="20" height="20" viewBox="0 0 20 20" fill="none" xmlns="http://www.w3.org/2000/svg">
<g clip-path="url(#clip0_4_11)">
<path fill-rule="evenodd" clip-rule="evenodd" d="M10.7523 13.3301C11.5823 12.85 12.3067 12.2076 12.8822 11.4464C12.7059 11.1774 12.5711 10.8624 12.492 10.5014L12.4646 10.3762C12.3041 9.64273 11.7157 9.07929 10.976 8.9506C8.01628 8.43569 8.01621 4.18683 10.976 3.6719C11.6916 3.54741 12.2655 3.01607 12.4476 2.3176C11.1418 0.893117 9.26561 0 7.18086 0C3.23598 0 0.0380096 3.19797 0.0380096 7.14286C0.0380096 9.78673 1.47444 12.0951 3.60944 13.3301V15C3.60944 15.789 4.24904 16.4286 5.03801 16.4286H9.32372C10.1127 16.4286 10.7523 15.789 10.7523 15V13.3301ZM3.60944 18.9286C3.60944 18.3369 4.08914 17.8571 4.68086 17.8571H9.68087C10.2726 17.8571 10.7523 18.3369 10.7523 18.9286C10.7523 19.5203 10.2726 20 9.68087 20H4.68086C4.08914 20 3.60944 19.5203 3.60944 18.9286ZM14.0093 2.45324C14.2708 1.25848 15.972 1.25104 16.244 2.44347L16.2569 2.49984C16.2654 2.53827 16.2736 2.57377 16.2823 2.61077C16.5956 3.94519 17.6754 4.96481 19.0273 5.2C20.2734 5.4168 20.2734 7.2057 19.0273 7.4225C17.6683 7.65894 16.584 8.6882 16.2773 10.0331L16.244 10.179C15.972 11.3715 14.2708 11.364 14.0093 10.1693L13.9819 10.0441C13.6864 8.69421 12.6036 7.65727 11.2422 7.42044C9.99841 7.20404 9.99839 5.41846 11.2422 5.20207C12.5989 4.96606 13.6789 3.9355 13.9788 2.59254L13.999 2.50041L14.0093 2.45324Z" fill="#EEEAD0"/>
</g>
<defs>
<clipPath id="clip0_4_11">
<rect width="20" height="20" fill="white"/>
</clipPath>
</defs>
</svg>
