<svg width="15" height="15" viewBox="0 0 15 15" fill="none" xmlns="http://www.w3.org/2000/svg">
<path d="M1.78571 0C0.803744 0 0 0.803744 0 1.78571V13.2143C0 14.1963 0.803744 15 1.78571 15H13.2143C14.1963 15 15 14.1963 15 13.2143V1.78571C15 0.803744 14.1963 0 13.2143 0H1.78571ZM1.78571 0.714286H13.2143C13.8102 0.714286 14.2857 1.18983 14.2857 1.78571V13.2143C14.2857 13.8102 13.8102 14.2857 13.2143 14.2857H1.78571C1.18983 14.2857 0.714286 13.8102 0.714286 13.2143V1.78571C0.714286 1.18983 1.18983 0.714286 1.78571 0.714286ZM3.57143 2.50419C3.18028 2.50419 2.82829 2.6211 2.56766 2.8404C2.30703 3.0597 2.14704 3.38733 2.14704 3.73814C2.14704 4.40499 2.72546 4.92486 3.46122 4.97628L3.46261 4.97698C3.49767 4.98893 3.53439 4.99529 3.57143 4.99581C4.38322 4.99581 4.99581 4.42717 4.99581 3.73814C4.99575 3.73186 4.99552 3.72558 4.99512 3.71931C4.95878 3.04065 4.35373 2.50419 3.57143 2.50419ZM3.57143 3.2101C4.06865 3.2101 4.26499 3.43216 4.28641 3.74721C4.28207 4.05301 4.09289 4.2899 3.57143 4.2899C3.07664 4.2899 2.85296 4.03651 2.85296 3.73814C2.85296 3.58896 2.90739 3.47654 3.02176 3.3803C3.13613 3.28407 3.31972 3.2101 3.57143 3.2101ZM2.5 5.35714C2.40528 5.35715 2.31445 5.39478 2.24747 5.46176C2.1805 5.52873 2.14287 5.61957 2.14286 5.71429V12.5C2.14287 12.5947 2.1805 12.6856 2.24747 12.7525C2.31445 12.8195 2.40528 12.8571 2.5 12.8571H4.64286C4.73757 12.8571 4.82841 12.8195 4.89538 12.7525C4.96236 12.6856 4.99999 12.5947 5 12.5V10.4053V5.71429C4.99999 5.61957 4.96236 5.52873 4.89538 5.46176C4.82841 5.39478 4.73757 5.35715 4.64286 5.35714H2.5ZM5.71429 5.35714C5.61957 5.35715 5.52873 5.39478 5.46176 5.46176C5.39478 5.52873 5.35715 5.61957 5.35714 5.71429V12.5C5.35715 12.5947 5.39478 12.6856 5.46176 12.7525C5.52873 12.8195 5.61957 12.8571 5.71429 12.8571H7.85714C7.95186 12.8571 8.0427 12.8195 8.10967 12.7525C8.17665 12.6856 8.21428 12.5947 8.21429 12.5V8.92857C8.21429 8.63226 8.29514 8.33751 8.4375 8.14453C8.57986 7.95155 8.75945 7.83573 9.10087 7.8418C9.45292 7.84785 9.63929 7.96845 9.78027 8.15778C9.92126 8.34712 10 8.63095 10 8.92857V12.5C10 12.5947 10.0376 12.6856 10.1046 12.7525C10.1716 12.8195 10.2624 12.8571 10.3571 12.8571H12.5C12.5947 12.8571 12.6856 12.8195 12.7525 12.7525C12.8195 12.6856 12.8571 12.5947 12.8571 12.5V8.6649C12.8571 7.60721 12.5439 6.7694 12.0068 6.20257C11.4698 5.63573 10.7229 5.35714 9.93304 5.35714C9.18232 5.35714 8.61102 5.60889 8.21429 5.86565V5.71429C8.21428 5.61957 8.17665 5.52873 8.10967 5.46176C8.0427 5.39478 7.95186 5.35715 7.85714 5.35714H5.71429ZM2.85714 6.07143H4.28571V10.4053V12.1429H2.85714V6.07143ZM6.07143 6.07143H7.5V6.62877C7.50002 6.70365 7.52358 6.77664 7.56735 6.83741C7.61112 6.89818 7.67288 6.94365 7.7439 6.9674C7.81492 6.99115 7.89161 6.99198 7.96313 6.96976C8.03465 6.94755 8.09737 6.90342 8.14244 6.84361C8.14244 6.84361 8.70328 6.07143 9.93304 6.07143C10.5592 6.07143 11.0962 6.27949 11.4886 6.69364C11.8809 7.10778 12.1429 7.74581 12.1429 8.6649V12.1429H10.7143V8.92857C10.7143 8.5119 10.6145 8.08111 10.3537 7.73089C10.0929 7.38067 9.65423 7.13681 9.11342 7.12751C8.56983 7.11786 8.12411 7.36678 7.86272 7.72112C7.60133 8.07546 7.5 8.5106 7.5 8.92857V12.1429H6.07143V6.07143Z" fill="#EEEAD0"/>
</svg>
