<svg width="20" height="20" viewBox="0 0 20 20" fill="none" xmlns="http://www.w3.org/2000/svg">
<g clip-path="url(#clip0_3_21)">
<path fill-rule="evenodd" clip-rule="evenodd" d="M10 -0.00105286C13.7451 -0.00105286 16.8659 3.11975 16.8659 6.86481C16.8659 8.08708 16.4457 9.29249 15.8586 10.3846C15.2691 11.481 14.4889 12.5047 13.7137 13.3763C12.937 14.2495 12.1522 14.9847 11.5408 15.5041C11.2354 15.7636 10.9681 15.9736 10.762 16.1223C10.6602 16.1957 10.5648 16.2603 10.4825 16.3097C10.4425 16.3337 10.3937 16.3614 10.3417 16.3854C10.3159 16.3973 10.2787 16.4133 10.2344 16.4274C10.1995 16.4386 10.1123 16.4647 10 16.4647C9.88677 16.4647 9.79889 16.4381 9.76389 16.4269C9.7193 16.4124 9.68199 16.3963 9.6561 16.3843C9.60409 16.36 9.55523 16.3321 9.51519 16.3078C9.4329 16.258 9.33759 16.1929 9.23587 16.1189C9.02991 15.9691 8.76271 15.7577 8.45747 15.4966C7.84634 14.974 7.06194 14.235 6.28564 13.3594C5.51089 12.4856 4.731 11.461 4.14174 10.3671C3.55501 9.27798 3.13417 8.07749 3.13417 6.86481C3.13417 3.11975 6.25497 -0.00105286 10 -0.00105286ZM10 8.91532C8.86754 8.91532 7.9495 7.99728 7.9495 6.86481C7.9495 5.73234 8.86754 4.81428 10 4.81428C11.1325 4.81428 12.0505 5.73234 12.0505 6.86481C12.0505 7.99728 11.1325 8.91532 10 8.91532ZM14.4274 14.5091C14.691 14.2128 14.9547 13.9024 15.2136 13.5799H17.1323C17.418 13.5799 17.6763 13.7502 17.7889 14.0128L19.9284 19.0054C20.023 19.2261 20.0004 19.4796 19.8683 19.68C19.7361 19.8804 19.512 20.001 19.272 20.001H0.728074C0.487972 20.001 0.263932 19.8804 0.131759 19.68C-0.000414725 19.4796 -0.0230386 19.2261 0.0715427 19.0054L2.21121 14.0128C2.32377 13.7502 2.58201 13.5799 2.86776 13.5799H4.80394C5.0569 13.8949 5.3144 14.1985 5.57167 14.4886C6.51671 15.5546 7.47179 16.4544 8.21531 17.0901C8.58676 17.4079 8.91057 17.664 9.15856 17.8443C9.28127 17.9336 9.39396 18.0104 9.48933 18.0681C9.53591 18.0964 9.59024 18.1273 9.64657 18.1536C9.67463 18.1667 9.71381 18.1836 9.75997 18.1984C9.79656 18.2103 9.88573 18.2371 9.99994 18.2371C10.1132 18.2371 10.2017 18.2107 10.2381 18.1991C10.2841 18.1844 10.3231 18.1677 10.3511 18.1547C10.4074 18.1287 10.4616 18.0981 10.5082 18.0701C10.6036 18.0129 10.7163 17.9366 10.8391 17.848C11.0873 17.669 11.4112 17.4147 11.7828 17.099C12.5266 16.4671 13.4821 15.572 14.4274 14.5091Z" fill="#EEEAD0"/>
</g>
<defs>
<clipPath id="clip0_3_21">
<rect width="20" height="20" fill="white"/>
</clipPath>
</defs>
</svg>
